<svg xmlns="http://www.w3.org/2000/svg" width="89" height="89" viewBox="0 0 89 89">
  <g id="account" transform="translate(0.173)">
    <circle id="Ellipse_5" data-name="Ellipse 5" cx="44.5" cy="44.5" r="44.5" transform="translate(-0.173)" fill="silver"/>
    <g id="Group_92" data-name="Group 92" transform="translate(24.07 22.25)">
      <path id="Path_23" data-name="Path 23" d="M51.65,30.071s0-5.721-6.357-6.039a9.457,9.457,0,0,1-6.357-3.179l-.318-.318h0a3.587,3.587,0,0,0-3.5-.954,11.427,11.427,0,0,1-3.5.636,13.518,13.518,0,0,1-3.5-.636,3.587,3.587,0,0,0-3.5.954h0l-.318.318a10.189,10.189,0,0,1-6.357,3.179c-6.357.636-6.357,6.039-6.357,6.039V32.3c0,1.589-.318,5.086,18.436,5.086H32.9c18.436,0,18.754-3.212,18.754-5.12V30.071Z" transform="translate(-11.6 7.436)" fill="none" stroke="#f7f8f7" stroke-miterlimit="10" stroke-width="1.5"/>
      <ellipse id="Ellipse_6" data-name="Ellipse 6" cx="13.032" cy="13.668" rx="13.032" ry="13.668" transform="translate(7.311)" fill="none" stroke="#f7f8f7" stroke-miterlimit="10" stroke-width="1.5"/>
    </g>
  </g>
</svg>
