<svg xmlns="http://www.w3.org/2000/svg" viewBox="0 0 167.08 126.74"><defs><style>.cls-1{fill:none;}.cls-2{fill:#cc543a;fill-rule:evenodd;}</style></defs><g id="圖層_2" data-name="圖層 2"><g id="圖層_2-2" data-name="圖層 2"><rect class="cls-1" x="11.7" y="42.29" width="141.55" height="7.37"/><path class="cls-2" d="M40.5,49a1.64,1.64,0,0,1-.37,0A.54.54,0,0,1,40.5,49Z"/><path class="cls-2" d="M34.86,44c-.11,0-.47.07-.43,0C34.63,44,34.72,44,34.86,44Z"/><path class="cls-2" d="M34.26,43.91s-.31,0-.44,0S34.18,43.89,34.26,43.91Z"/><path class="cls-2" d="M32.52,44.67a1,1,0,0,1-.43,0S32.39,44.68,32.52,44.67Z"/><path class="cls-2" d="M31.73,43.87a2.45,2.45,0,0,1-.74.05A3.65,3.65,0,0,1,31.73,43.87Z"/><path class="cls-2" d="M29.59,47.8a8.31,8.31,0,0,1-1.42,0C28.63,47.84,29.16,47.76,29.59,47.8Z"/><path class="cls-2" d="M28.57,46.08c-.47.11-1.31,0-1.91.06-.09-.09.88,0,1.05-.08a3.7,3.7,0,0,1,.37,0A1.61,1.61,0,0,1,28.57,46.08Z"/><path class="cls-2" d="M22.8,45.82s0,.08-.19.07-.06,0-.05-.07Z"/><path class="cls-2" d="M20.41,46.43a6.62,6.62,0,0,1-1.73,0c-.07,0-.07,0-.19,0-.29,0-.93,0-.31,0S19.56,46.47,20.41,46.43Z"/><path class="cls-2" d="M20.12,45.53a1.68,1.68,0,0,1-.44,0A1.07,1.07,0,0,1,20.12,45.53Z"/><path class="cls-2" d="M19.53,47.88a3,3,0,0,1-.55,0A1.68,1.68,0,0,1,19.53,47.88Z"/><path class="cls-2" d="M19.66,45.83c-.15.05-.49,0-.68.07S19.42,45.84,19.66,45.83Z"/><path class="cls-2" d="M19.38,45.58a3.9,3.9,0,0,1-.75,0A5.38,5.38,0,0,1,19.38,45.58Z"/><path class="cls-2" d="M18.94,48.31c0,.06-.27,0-.44.07C18.54,48.32,18.79,48.33,18.94,48.31Z"/><path class="cls-2" d="M18.67,47.88a8.05,8.05,0,0,1-1.23,0A8.32,8.32,0,0,1,18.67,47.88Z"/><path class="cls-2" d="M18.51,45.62a3.71,3.71,0,0,1-1.05,0C17.75,45.59,18.18,45.67,18.51,45.62Z"/><path class="cls-2" d="M17.69,46.46a3.23,3.23,0,0,1-.5,0C17.16,46.44,17.48,46.47,17.69,46.46Z"/><path class="cls-2" d="M17.15,46.28a1.54,1.54,0,0,1-.49,0A2.47,2.47,0,0,1,17.15,46.28Z"/><path class="cls-2" d="M16.62,46.06c-.07,0-.53.06-.43,0s.12,0,.12,0A3,3,0,0,1,16.62,46.06Z"/><path class="cls-2" d="M15.32,47.44c.31-.08.83,0,0,0Z"/><path class="cls-2" d="M14.65,48.1a5.4,5.4,0,0,1-.81,0A4.44,4.44,0,0,1,14.65,48.1Z"/><path class="cls-2" d="M14.45,48.2c.09.06-.41,0-.31,0Z"/><path class="cls-2" d="M13.87,49.15a1.12,1.12,0,0,1-.43,0A.87.87,0,0,1,13.87,49.15Z"/><path class="cls-2" d="M12.15,49.07c-.51.08-.69,0,0,0Z"/><path class="cls-2" d="M26,49.1c-.11,0-.25,0-.32.07a4.91,4.91,0,0,0-.8,0C25.22,49.05,25.56,49.15,26,49.1Z"/><path class="cls-2" d="M19.13,47.56c-.15,0-.13,0-.3,0,0,0,.06,0,.06-.05-.31,0-.48,0-.74,0,0,0,.07,0,.07-.05-.35.1-.75-.06-1.48,0,.69-.1,2.23,0,2.84,0-.09.07-.62,0-.69.08S19.24,47.47,19.13,47.56Z"/><path class="cls-2" d="M18.49,45.86c-.07,0,0,0,0,0s-.28,0-.31,0S19.07,45.85,18.49,45.86Z"/><path class="cls-2" d="M13.91,46.06V46a7.36,7.36,0,0,1-1.28,0,17,17,0,0,0,1.79,0c.07,0,.22,0,.3,0,1.09-.12,2.27,0,3.4-.07-.51.19-1.66-.07-2.23.13-.1,0,0,0,.06,0A12.13,12.13,0,0,0,13.91,46.06Z"/><path class="cls-2" d="M14.31,48.35c-.09,0-.27,0-.37.06S14.19,48.3,14.31,48.35Z"/><path class="cls-2" d="M137.63,49.65c.27,0,.58-.06.86-.06.68,0,1.29.07,2,0s1.18-.13,1.8-.15c.47,0,.62,0,.94-.06a7.93,7.93,0,0,0,2.05-.22c.64-.12,1.44-.19,2-.31h.31a37.38,37.38,0,0,1,4-1,2,2,0,0,1,.53-.39c.12-.06.41-.1.51-.16.34-.23,0-.51.67-.68,0-.06-.08-.07-.11-.11,0-.45-.23-.82-.08-1.17-.43-.21-.34-.44-.68-.64s-.62-.23-.89-.35-.63-.23-.89-.36c0-.14-.39-.16-.47-.28-.48-.08-.84-.2-1.33-.28,0,0-.16-.07-.17-.12a20.29,20.29,0,0,0-3.46-.61l-.55,0a15.82,15.82,0,0,1-3.19-.22c-.18,0-.18,0-.37,0a2.71,2.71,0,0,0-1.15-.24c-.16,0-.45.12-.81.14-.54,0-1.05-.13-1.53-.11-.22,0-.46.12-.69.14a18.18,18.18,0,0,1-2.34,0,6.38,6.38,0,0,0-.85-.1c-.28,0-.49.11-.46.25-.79.3-2.81.07-4,.2a24.91,24.91,0,0,0-2.6.05c-.17,0-.37,0-.55,0s-.68.06-1,.08c-.64,0-1.21,0-1.73.08a8.59,8.59,0,0,0-2.1,0c-.26,0-.51-.06-.8-.06s-.47,0-.74,0-.54-.06-.8-.06-.34,0-.49,0a5.09,5.09,0,0,0-.55,0c-.23,0-.46.08-.69.08a21,21,0,0,0-2.53.09c-1.43-.11-2.68.07-4.37,0a6.63,6.63,0,0,1-1.18,0c-.1,0-.09,0-.25,0-.88-.06-1.81.1-2.71,0a.39.39,0,0,1-.13,0,26.88,26.88,0,0,0-3.82,0,22.62,22.62,0,0,0-2.59,0c-.44,0-.88,0-1.29,0-.81,0-1.88,0-2.65,0-.24,0-.46.06-.69.07-.41,0-.85,0-1.29,0-1.69.1-3.64,0-5.12,0-.46,0-.85.06-1.36.08-.85,0-1.73-.06-2.59,0l-.62.05c-.51,0-1,0-1.54,0-1.32,0-2.64.11-3.88,0-1.59.12-3.9.08-5.74.1a5.7,5.7,0,0,1-1.24,0c-1.31,0-3,.15-4.38.07-5.8.18-11.85.1-17.59.3a6.07,6.07,0,0,0-1.54,0,2.4,2.4,0,0,0-.55-.06,22.77,22.77,0,0,1-2.53,0c-.23.12-.78,0-1.12.12-.15-.06.2-.05-.06-.09a24.17,24.17,0,0,1-3.46.17c.06,0,.07,0,0,0s-.31,0-.55,0c-1.62,0-2.78.23-4.16.31a2.19,2.19,0,0,0-.8,0c.25,0,.57,0,.55.1a4.69,4.69,0,0,0-1.24.08,8.35,8.35,0,0,0-1.24,0c-.11,0,.11.09-.13.08-.72,0-1.08,0-1.72,0a3.55,3.55,0,0,1-1.18.06c-.21,0,.23.07.05.09a10.25,10.25,0,0,1-1.66,0,1.36,1.36,0,0,1-.44.1c-.15,0,0-.08-.18-.05s.16.08.11.14c-.29,0-.24.08-.38.13a4.56,4.56,0,0,0-1.06.08c-.38,0-.8,0-1.17,0a6.47,6.47,0,0,1-.81.09c-.29,0-.53-.07-.86-.06-.17,0,.12.06-.13.07a30.41,30.41,0,0,0-3.09.15c1.28-.14,2.21,0,3.34-.11.17.08.5-.05.67.06.07,0-.19-.08.07-.08a.79.79,0,0,0,.24,0c-.16.1.08.1.17.17,1,0,1.71,0,2.53,0,.16,0-.1-.06.07-.08.32,0,.56,0,.93,0,.11.07.36.1.23.2-1.12,0-2.64.13-4,.14a3.38,3.38,0,0,0-1,0c.59,0,1.07.09,1.59.1s1.39-.1,2-.07c.18,0,.26,0,.43,0s.35-.06.5,0,.16,0,.3,0,.5-.07.81-.07c.52,0,1,.07,1.59,0,.11,0,.06.11-.07.12H29.13c.08,0,.13,0,.12.06a1.19,1.19,0,0,0-.43,0c.51,0,.46.14.29.2-1.28,0-2.84,0-3.88,0a1.09,1.09,0,0,1-.38.1c-1.18,0-2.5,0-3.77,0,1.45.1,3,0,4.63,0,.06,0,0,.06.17.05.72-.05,1.55,0,2.11-.05.24.07.48.15.71.24,1.76-.07,3,.25,4.72.25,0,0,.13.07.18.11-.14,0-.23.1-.38.14a5.27,5.27,0,0,1-.8,0c-1.42.16-3.43,0-5.19.14-.22.09-.05.16.1.24.85.05,1.62-.08,2.52,0,.32.21,0,.36-.71.37-1.15,0-3.13,0-3.88,0-3.38.12-6.72.07-10.18.17,1.92,0,3.7-.07,5.42,0,0,0,.05-.06.19-.06,1.69,0,3.57,0,5.06,0,.62.13,1.82,0,2.45.11-.16.21-.67.3-1.32.35.66,0,1.28.06,1.84.07s1.25-.05,1.48,0c.05,0-.05.06.05.06l.38,0a3.48,3.48,0,0,1,.49,0,2.29,2.29,0,0,1,.61.06c1.31,0,2.58,0,3.88,0H36c.13,0,0,0,.18,0s.06,0,.19,0l1.6,0c1.27,0,2.78,0,3.82,0,.23,0-.07.07.24.07,1.79.05,3.68.08,5.6.1.14,0,0,.08.24.07s.2-.07.43-.07a1.29,1.29,0,0,1,.37.1c2.19.06,4.45,0,6.72,0,2.11,0,4.22,0,6.22,0,1.58,0,3.09-.09,4.51,0,1.89-.06,3.53-.05,5.3-.06,1.28,0,2.69,0,3.76,0,.19,0,.41-.05.62-.05s.66.06,1,.06c.88,0,1.78-.07,2.66-.07l2.89,0c.55,0,1.07,0,1.61,0,.36,0,.73,0,1.11,0,1,0,2.1-.08,3.08-.07,1.32,0,2.67.1,4,0s3.27,0,4.68,0c1.14.14,2.34,0,3.63,0,.14,0,.23,0,.37,0,2,.11,4.14-.08,5.73,0a8.32,8.32,0,0,1,1.66,0c.6,0,1.15,0,1.73,0,.19,0,.36,0,.55,0,.58,0,1.15,0,1.79,0,1,0,2,.13,3.08,0a22.2,22.2,0,0,0,3.08.06c1.64.13,3.3,0,5,0a9.21,9.21,0,0,0,1.66,0,16.56,16.56,0,0,0,2,.05c.72,0,1.46.07,2.21.09a18.59,18.59,0,0,1,3.19.15c.37.41,1.07-.19,1.92-.11.45.08.4.2.59.35a5.08,5.08,0,0,0,1.17,0A10.61,10.61,0,0,0,137.63,49.65ZM29.76,45.24s0,0-.06,0C29.83,45.12,30.12,45.25,29.76,45.24Zm-.13,0a10.87,10.87,0,0,1-1.6,0c-.1,0,.09.1-.08.13a3.63,3.63,0,0,0-.85-.08c0-.15.72-.06.76-.19a1.11,1.11,0,0,0,.56,0c.59,0,.72,0,1.17,0C29.47,45.2,29.67,45.18,29.63,45.28Z"/><rect class="cls-1" x="34.01" y="45.97" width="7.37" height="78.06"/><path class="cls-2" d="M34.65,61.86a.42.42,0,0,1,0-.21A.19.19,0,0,1,34.65,61.86Z"/><path class="cls-2" d="M39.65,58.75c0-.07-.07-.26,0-.24A1.54,1.54,0,0,1,39.65,58.75Z"/><path class="cls-2" d="M39.76,58.41s0-.17,0-.24S39.78,58.37,39.76,58.41Z"/><path class="cls-2" d="M39,57.46a.33.33,0,0,1,0-.24S39,57.38,39,57.46Z"/><path class="cls-2" d="M39.8,57a.68.68,0,0,1,0-.41A1.14,1.14,0,0,1,39.8,57Z"/><path class="cls-2" d="M35.87,55.84a2.58,2.58,0,0,1,0-.79C35.83,55.31,35.91,55.6,35.87,55.84Z"/><path class="cls-2" d="M37.59,55.28c-.11-.26,0-.73-.06-1.06.09,0,0,.49.08.58a.71.71,0,0,1,0,.21C37.58,55.1,37.64,55.18,37.59,55.28Z"/><path class="cls-2" d="M37.85,52.1c-.05,0-.08,0-.07-.11a.09.09,0,0,1,.07,0Z"/><path class="cls-2" d="M37.24,50.77a2,2,0,0,1,0-1s0,0,0-.1,0-.51,0-.17S37.2,50.31,37.24,50.77Z"/><path class="cls-2" d="M38.14,50.62a.43.43,0,0,1,0-.24S38.16,50.58,38.14,50.62Z"/><path class="cls-2" d="M35.79,50.29s0-.21,0-.3A.51.51,0,0,1,35.79,50.29Z"/><path class="cls-2" d="M37.84,50.36c-.05-.08,0-.27-.07-.37S37.83,50.23,37.84,50.36Z"/><path class="cls-2" d="M38.09,50.21a1.2,1.2,0,0,1-.05-.42A1.67,1.67,0,0,1,38.09,50.21Z"/><path class="cls-2" d="M35.36,50c-.06,0-.06-.15-.07-.25S35.34,49.88,35.36,50Z"/><path class="cls-2" d="M35.79,49.82a2.47,2.47,0,0,1,0-.68A3.06,3.06,0,0,1,35.79,49.82Z"/><path class="cls-2" d="M38,49.73a1.26,1.26,0,0,1,0-.58C38.08,49.31,38,49.54,38,49.73Z"/><path class="cls-2" d="M37.21,49.28a1.06,1.06,0,0,1-.06-.28C37.23,49,37.2,49.16,37.21,49.28Z"/><path class="cls-2" d="M37.39,49c0-.08,0-.15,0-.27S37.38,48.9,37.39,49Z"/><path class="cls-2" d="M37.61,48.69s-.06-.3,0-.24,0,.06-.06.07S37.63,48.59,37.61,48.69Z"/><path class="cls-2" d="M36.23,48c.08.17,0,.46,0,0Z"/><path class="cls-2" d="M35.57,47.6a1.66,1.66,0,0,1,0-.45A1.73,1.73,0,0,1,35.57,47.6Z"/><path class="cls-2" d="M35.47,47.49c-.06,0-.06-.22,0-.17Z"/><path class="cls-2" d="M34.52,47.17a.37.37,0,0,1,0-.24C34.53,47,34.54,47.13,34.52,47.17Z"/><path class="cls-2" d="M34.6,46.22c-.08-.28,0-.38,0,0Z"/><path class="cls-2" d="M34.57,53.87a1.71,1.71,0,0,0-.07-.18c.07-.1,0-.29,0-.44C34.62,53.43,34.52,53.61,34.57,53.87Z"/><path class="cls-2" d="M36.11,50.07c0-.08,0-.07,0-.17s0,0,.06,0c0-.17,0-.26,0-.41,0,0,0,0,0,0-.1-.19.06-.42,0-.82a10.5,10.5,0,0,1,0,1.57c-.07,0,0-.35-.08-.38S36.2,50.13,36.11,50.07Z"/><path class="cls-2" d="M37.81,49.72s0,0,0,0,0-.15,0-.17S37.82,50,37.81,49.72Z"/><path class="cls-2" d="M37.61,47.19h.07a2.29,2.29,0,0,1,0-.71c.05.26-.07.81,0,1s0,.12,0,.17c.12.6,0,1.25.07,1.87-.2-.28.07-.91-.13-1.23,0-.05,0,0,0,0A4.12,4.12,0,0,0,37.61,47.19Z"/><path class="cls-2" d="M35.32,47.41s0-.14-.07-.2S35.37,47.35,35.32,47.41Z"/><path class="cls-2" d="M34,115.42c0,.15.07.31.07.47a9.92,9.92,0,0,0,0,1.09c0,.33.12.65.14,1s.05.34.07.52c.06.5,0,.91.22,1.13s.19.79.31,1.1c0,0,0,.15,0,.17a14.17,14.17,0,0,1,1,2.19,1.77,1.77,0,0,1,.39.29c.06.07.1.23.16.28.22.19.51,0,.68.38.06,0,.07,0,.11-.06a6.94,6.94,0,0,1,1.17,0c.2-.24.44-.19.63-.37a4.34,4.34,0,0,0,.35-.49c.14-.17.24-.35.37-.5.14,0,.16-.21.27-.25.09-.27.2-.47.29-.74,0,0,.07-.09.12-.09a6.92,6.92,0,0,0,.61-1.91c0-.07,0-.22,0-.3a4.69,4.69,0,0,1,.22-1.76c0-.1,0-.1,0-.2a1.07,1.07,0,0,0,.24-.64c0-.09-.12-.25-.14-.45s.13-.57.1-.84c0-.12-.11-.25-.13-.38a5.53,5.53,0,0,1,0-1.29c0-.22.12-.31.1-.47s-.11-.27-.25-.25c-.3-.44-.07-1.56-.2-2.22a7.55,7.55,0,0,0,0-1.43c0-.1,0-.21,0-.31s-.06-.37-.08-.58,0-.66-.08-1c.18-.45,0-.78,0-1.16,0-.14.06-.28.06-.44s-.05-.26-.05-.41.06-.3.06-.44,0-.19,0-.27a1.55,1.55,0,0,0,0-.31c0-.12-.08-.25-.08-.37a6.43,6.43,0,0,0-.09-1.4c.11-.79-.07-1.48,0-2.41a2,2,0,0,1,0-.65s0,0,0-.14c0-.48-.1-1,0-1.49a.18.18,0,0,1-.05-.07,8.22,8.22,0,0,0,0-2.11,6.91,6.91,0,0,0,0-1.43c0-.24,0-.48,0-.71,0-.45,0-1,0-1.46,0-.13-.06-.26-.07-.38s0-.47,0-.71a27,27,0,0,1,0-2.83c0-.25-.06-.46-.08-.75,0-.47.06-1,0-1.42,0-.12,0-.24-.05-.35,0-.28,0-.55,0-.84a15.48,15.48,0,0,1,0-2.15c-.12-.87-.08-2.15-.1-3.16a1.73,1.73,0,0,1,0-.68,16.19,16.19,0,0,1-.07-2.42c-.18-3.2-.1-6.53-.3-9.7a1.87,1.87,0,0,0,0-.85c.05,0,0-.19.06-.3a6.32,6.32,0,0,1,0-1.4c-.12-.13,0-.43-.12-.62.06-.08.05.11.09,0a7.46,7.46,0,0,1-.17-1.91s0,0,0,0-.05-.17-.05-.31c0-.89-.23-1.53-.31-2.29,0-.1.12-.35,0-.44,0,.14,0,.31-.09.3a1.45,1.45,0,0,0-.08-.68,2.51,2.51,0,0,0,0-.68c0-.07-.09.06-.09-.08,0-.39,0-.59,0-.95a1,1,0,0,1-.06-.65c0-.11-.07.13-.1,0a3.46,3.46,0,0,1,0-.91.57.57,0,0,1-.1-.25c0-.08.08,0,0-.1s-.08.09-.14.06-.08-.12-.13-.21-.05-.37-.08-.58,0-.44,0-.64a3,3,0,0,1-.08-.45c0-.16.07-.3.06-.47s-.07.06-.07-.08a8.47,8.47,0,0,0-.16-1.7c.14.7,0,1.22.12,1.84-.08.09.05.28-.06.37.05,0,.08-.1.07,0a1.23,1.23,0,0,0,0,.13c-.09-.09-.09,0-.16.1,0,.52.05.94.05,1.39,0,.09.06-.06.07,0s0,.31,0,.51-.1.2-.2.13c0-.62-.13-1.45-.15-2.19,0-.22.07-.45,0-.58a5.76,5.76,0,0,1-.1.88c0,.37.09.77.07,1.13a2.23,2.23,0,0,0,0,.23c0,.08,0,.2,0,.28s0,.09,0,.17.07.27.07.44a8.33,8.33,0,0,0,0,.88c0,.06-.11,0-.13,0,0-.37,0-.43,0-.81q0,.06-.06.06c0-.12,0-.16,0-.24,0,.28-.14.26-.2.16,0-.7,0-1.56,0-2.14a.38.38,0,0,1-.1-.21c-.05-.65,0-1.38-.05-2.07a15.48,15.48,0,0,0,0,2.55s-.06,0,0,.1c0,.39,0,.85,0,1.15-.08.14-.15.27-.24.4.07,1-.25,1.68-.25,2.6-.06,0-.07.07-.11.1s-.1-.13-.14-.21a1.6,1.6,0,0,1,0-.44c-.17-.78,0-1.89-.14-2.86-.09-.12-.16,0-.24.05a9.3,9.3,0,0,1,0,1.39c-.21.18-.36,0-.37-.39,0-.63,0-1.73,0-2.14-.12-1.86-.07-3.71-.17-5.62,0,1.06.07,2.05,0,3,0,0,.06,0,.06.11a25.46,25.46,0,0,0,.05,2.79c-.13.34,0,1-.11,1.35-.21-.08-.3-.37-.35-.73,0,.37-.06.71-.07,1a5.4,5.4,0,0,1,0,.81s0,0,0,0c0-.1,0,.19,0,.21a1.12,1.12,0,0,1,0,.27.74.74,0,0,1-.06.34c0,.72,0,1.42,0,2.14,0,.07,0,.23,0,.24s-.05,0-.05.1,0,0,0,.1c0,.28,0,.6,0,.88,0,.7,0,1.53,0,2.11,0,.13-.07,0-.07.13,0,1-.08,2-.1,3.09,0,.08-.09,0-.07.13s.07.11.06.24a.46.46,0,0,1-.09.2c-.07,1.21,0,2.46,0,3.71s0,2.33,0,3.43c0,.87.09,1.7,0,2.48.06,1,.05,2,.06,2.93,0,.7,0,1.48,0,2.07,0,.1.05.23.05.34s-.06.37-.06.54c0,.49.07,1,.07,1.47l0,1.6c0,.3.06.58.06.88s0,.41,0,.61c0,.58.08,1.16.06,1.7a14.82,14.82,0,0,0,0,2.21c0,.82,0,1.81,0,2.58a13.32,13.32,0,0,0,0,2,1.77,1.77,0,0,1,0,.2c-.1,1.08.09,2.28,0,3.16a2.57,2.57,0,0,1,0,.92,7.47,7.47,0,0,0,0,1c0,.1,0,.2,0,.3,0,.32,0,.64,0,1a13.41,13.41,0,0,0,0,1.7,6.29,6.29,0,0,0-.06,1.69c-.13.91,0,1.82,0,2.75a2.84,2.84,0,0,0,0,.92,4.51,4.51,0,0,0,0,1.12c0,.39-.07.81-.09,1.22a5.73,5.73,0,0,1-.15,1.76c-.41.2.19.59.11,1.06-.08.25-.2.21-.35.32a1.58,1.58,0,0,0,0,.65C34.2,114.9,34,115.08,34,115.42Zm4.42-59.49s0,0,0,0S38.42,56.13,38.43,55.93Zm0-.07a3.3,3.3,0,0,1,0-.88c0-.06-.11.05-.13,0a1.22,1.22,0,0,0,.08-.48c.15,0,.06.4.19.42s0,.24.05.31c-.05.33,0,.4,0,.65C38.47,55.77,38.49,55.88,38.39,55.86Z"/><rect class="cls-1" x="121.58" y="45.97" width="7.37" height="77.09"/><path class="cls-2" d="M122.22,61.66a.38.38,0,0,1,0-.2A.17.17,0,0,1,122.22,61.66Z"/><path class="cls-2" d="M127.21,58.59c0-.06-.06-.26,0-.24A.83.83,0,0,1,127.21,58.59Z"/><path class="cls-2" d="M127.33,58.26s0-.17,0-.24S127.35,58.21,127.33,58.26Z"/><path class="cls-2" d="M126.57,57.31a.3.3,0,0,1,0-.23S126.56,57.24,126.57,57.31Z"/><path class="cls-2" d="M127.37,56.88a.65.65,0,0,1-.05-.4C127.37,56.54,127.36,56.74,127.37,56.88Z"/><path class="cls-2" d="M123.44,55.71a2.19,2.19,0,0,1,0-.77C123.4,55.19,123.48,55.48,123.44,55.71Z"/><path class="cls-2" d="M125.16,55.16c-.11-.25,0-.71-.06-1,.09,0,0,.48.08.57a.59.59,0,0,1,0,.2C125.15,55,125.21,55.07,125.16,55.16Z"/><path class="cls-2" d="M125.42,52s-.08,0-.07-.1a.05.05,0,0,1,.07,0Z"/><path class="cls-2" d="M124.81,50.71a2.1,2.1,0,0,1,0-.94s0,0,0-.1,0-.5,0-.17S124.77,50.25,124.81,50.71Z"/><path class="cls-2" d="M125.71,50.56a.41.41,0,0,1,0-.24A.33.33,0,0,1,125.71,50.56Z"/><path class="cls-2" d="M123.36,50.24s0-.21,0-.3A.5.5,0,0,1,123.36,50.24Z"/><path class="cls-2" d="M125.41,50.31a2,2,0,0,1-.07-.37C125.41,49.84,125.4,50.18,125.41,50.31Z"/><path class="cls-2" d="M125.66,50.15c0-.06,0-.26,0-.4A1.5,1.5,0,0,1,125.66,50.15Z"/><path class="cls-2" d="M122.93,49.92c-.06,0-.06-.15-.07-.24S122.91,49.83,122.93,49.92Z"/><path class="cls-2" d="M123.36,49.77a2.41,2.41,0,0,1,0-.67A3,3,0,0,1,123.36,49.77Z"/><path class="cls-2" d="M125.61,49.68a1.37,1.37,0,0,1,0-.57C125.65,49.27,125.56,49.5,125.61,49.68Z"/><path class="cls-2" d="M124.77,49.24a1.78,1.78,0,0,1,0-.28C124.8,49,124.77,49.12,124.77,49.24Z"/><path class="cls-2" d="M125,48.94c0-.08,0-.15,0-.27S125,48.86,125,48.94Z"/><path class="cls-2" d="M125.18,48.65c-.05,0-.06-.29,0-.23s0,.06-.06.06S125.2,48.56,125.18,48.65Z"/><path class="cls-2" d="M123.8,48c.08.16,0,.45,0,0Z"/><path class="cls-2" d="M123.14,47.58a1.6,1.6,0,0,1,0-.44A1.65,1.65,0,0,1,123.14,47.58Z"/><path class="cls-2" d="M123,47.47c-.06.05-.06-.22,0-.17Z"/><path class="cls-2" d="M122.09,47.15a.33.33,0,0,1,0-.23S122.11,47.12,122.09,47.15Z"/><path class="cls-2" d="M122.17,46.22c-.08-.28,0-.38,0,0Z"/><path class="cls-2" d="M122.13,53.77a.44.44,0,0,0-.07-.17c.08-.11,0-.3,0-.44C122.19,53.33,122.08,53.52,122.13,53.77Z"/><path class="cls-2" d="M123.68,50c0-.08,0-.07,0-.17s0,0,.06,0c0-.17,0-.26,0-.4a.07.07,0,0,0,.06,0c-.1-.19,0-.41,0-.8a10.11,10.11,0,0,1,0,1.54c-.07,0,0-.34-.09-.37S123.76,50.08,123.68,50Z"/><path class="cls-2" d="M125.38,49.67s0,0,0,0,0-.15,0-.17S125.39,50,125.38,49.67Z"/><path class="cls-2" d="M125.18,47.18h.07a2.17,2.17,0,0,1,0-.7c0,.25-.07.79,0,1s0,.12,0,.17c.12.59,0,1.23.07,1.85-.2-.28.07-.9-.13-1.22,0,0,0,0,0,0A4,4,0,0,0,125.18,47.18Z"/><path class="cls-2" d="M122.89,47.4c0-.06,0-.15-.07-.21S122.94,47.33,122.89,47.4Z"/><path class="cls-2" d="M121.58,114.55c0,.15.07.32.07.47a9.74,9.74,0,0,0,0,1.08c0,.33.12.64.14,1s0,.33.07.5c.06.5,0,.91.22,1.12s.19.79.3,1.09a1.49,1.49,0,0,1,0,.17,14.8,14.8,0,0,1,1,2.16,1.77,1.77,0,0,1,.39.29c.06.07.1.23.16.28.22.18.51,0,.68.37.06,0,.07,0,.11-.06a6.94,6.94,0,0,1,1.17,0c.2-.23.44-.18.63-.37a4.57,4.57,0,0,0,.35-.48c.14-.17.24-.35.37-.49s.16-.21.27-.25c.09-.26.2-.46.28-.73.05,0,.08-.09.13-.09a6.7,6.7,0,0,0,.61-1.88c0-.07,0-.22,0-.31a4.58,4.58,0,0,1,.22-1.73c0-.1,0-.1,0-.2a1.06,1.06,0,0,0,.24-.63c0-.09-.12-.24-.14-.44s.13-.57.1-.83-.11-.25-.14-.38a5.92,5.92,0,0,1,0-1.27c0-.22.12-.3.1-.47s-.11-.26-.25-.25c-.3-.43-.07-1.53-.2-2.19a7.34,7.34,0,0,0-.05-1.41c0-.09,0-.21,0-.3s-.06-.37-.08-.58,0-.65-.08-.94c.18-.44,0-.77,0-1.14,0-.14.06-.28.06-.43s-.05-.26-.05-.41.06-.29.06-.43,0-.19,0-.27a2.72,2.72,0,0,0,0-.3c0-.13-.08-.25-.08-.38a6.32,6.32,0,0,0-.09-1.38c.11-.78-.07-1.45.05-2.38a2,2,0,0,1,0-.64s-.05,0-.05-.13c.05-.48-.1-1,0-1.48l-.06-.07a7.6,7.6,0,0,0,0-2.08,6.72,6.72,0,0,0,0-1.41c0-.24,0-.48,0-.71,0-.44,0-1,0-1.44,0-.13-.06-.25-.07-.37s0-.47,0-.71a26.09,26.09,0,0,1,0-2.78c0-.25-.06-.47-.08-.75,0-.46.06-.94,0-1.4,0-.12,0-.23,0-.34,0-.28,0-.54,0-.84a14.93,14.93,0,0,1,0-2.11c-.12-.87-.08-2.13-.1-3.13a1.68,1.68,0,0,1,0-.67,15.79,15.79,0,0,1-.07-2.39c-.18-3.16-.1-6.45-.3-9.58a1.83,1.83,0,0,0,0-.84,1,1,0,0,0,.06-.3,6.71,6.71,0,0,1-.06-1.38c-.11-.12,0-.42-.11-.61.06-.08,0,.11.09,0a6.85,6.85,0,0,1-.17-1.88s0,0,0,0,0-.17,0-.3a22.47,22.47,0,0,0-.31-2.26c0-.1.12-.35,0-.44,0,.14,0,.31-.09.3a1.47,1.47,0,0,0-.08-.68,2.46,2.46,0,0,0,0-.67c0-.06-.09.06-.09-.07.05-.39,0-.59,0-.94a1.07,1.07,0,0,1-.07-.64c0-.11-.07.13-.09,0a3.46,3.46,0,0,1,0-.91.6.6,0,0,1-.11-.24c0-.08.09,0,.06-.1s-.08.09-.15.06-.07-.12-.12-.2a1.41,1.41,0,0,0-.08-.58c0-.21,0-.44,0-.64a2.66,2.66,0,0,1-.08-.44c0-.16.07-.29.06-.46s-.07.06-.07-.07a8.29,8.29,0,0,0-.16-1.69c.14.7,0,1.21.12,1.82-.08.09,0,.27-.06.36,0,0,.08-.1.07,0s0,.06,0,.13-.09.05-.16.1c0,.52,0,.92,0,1.38,0,.08.06-.06.07,0s0,.31,0,.51-.1.19-.2.12c0-.61-.13-1.43-.15-2.15,0-.22.07-.45,0-.58a5.62,5.62,0,0,1-.1.87c0,.37.09.76.07,1.11a2,2,0,0,0,0,.24c0,.07,0,.19,0,.27s0,.09,0,.16.07.27.07.44a8,8,0,0,0,0,.87c0,.06-.11,0-.13,0,0-.37,0-.43,0-.8q0,.06-.06.06c0-.12,0-.16,0-.24,0,.28-.14.26-.2.16,0-.69,0-1.54,0-2.11a.46.46,0,0,1-.11-.21c0-.64,0-1.36,0-2.05a14.12,14.12,0,0,0,0,2.52s-.06,0,0,.1c0,.39,0,.84,0,1.14l-.24.39c.07,1-.25,1.66-.25,2.57-.06,0-.07.07-.11.1a1.91,1.91,0,0,1-.14-.21,2.16,2.16,0,0,1,0-.44c-.16-.77,0-1.86-.13-2.82-.09-.12-.16,0-.24,0a10.71,10.71,0,0,1,0,1.38c-.21.17-.36,0-.37-.39,0-.63,0-1.71,0-2.11-.13-1.84-.07-3.66-.17-5.55,0,1,.07,2,0,2.95,0,0,.06,0,.05.11,0,.92,0,1.94,0,2.75-.12.34,0,1-.1,1.34-.21-.09-.3-.37-.35-.72,0,.36-.06.7-.07,1a5.41,5.41,0,0,1,0,.81s0,0,0,0a1.57,1.57,0,0,1,0,.2.77.77,0,0,1,0,.27.69.69,0,0,1-.06.33c0,.71,0,1.41,0,2.12a2.3,2.3,0,0,0,0,.23c0,.07,0,0,0,.1s0,0,0,.1c0,.28,0,.59,0,.87,0,.7,0,1.52,0,2.08,0,.13-.07,0-.07.13,0,1-.08,2-.1,3.05,0,.08-.09,0-.08.13s.08.11.07.24a.53.53,0,0,1-.09.2c-.07,1.19,0,2.42,0,3.66s0,2.3,0,3.39c0,.86.09,1.68,0,2.45.06,1,0,1.92.06,2.89,0,.69,0,1.46,0,2a3.26,3.26,0,0,1,0,.33c0,.18-.06.36-.06.54,0,.48.07,1,.07,1.44s0,1.06,0,1.58c0,.3.06.58.06.88s0,.4,0,.6c0,.57.08,1.14.06,1.68a14.42,14.42,0,0,0,0,2.18c0,.8,0,1.78,0,2.55a12.9,12.9,0,0,0,0,2,1.77,1.77,0,0,1,0,.2c-.1,1.07.09,2.25,0,3.12a2.26,2.26,0,0,1,0,.9c0,.33,0,.63,0,1a1.65,1.65,0,0,1,0,.3c0,.31,0,.62.06,1a11.5,11.5,0,0,0,0,1.68,6.13,6.13,0,0,0-.06,1.67c-.14.9,0,1.8,0,2.72a2.48,2.48,0,0,0,0,.9,4.43,4.43,0,0,0,0,1.11c0,.39-.07.79-.09,1.2a5.62,5.62,0,0,1-.15,1.74c-.41.2.19.58.11,1-.08.24-.2.21-.35.31a1.53,1.53,0,0,0,0,.64C121.77,114,121.59,114.22,121.58,114.55ZM126,55.81s0,0,0,0S126,56,126,55.81Zm0-.07a3.3,3.3,0,0,1,0-.88s-.11,0-.13,0a1.08,1.08,0,0,0,.08-.46c.15,0,.06.39.19.41s0,.24,0,.31c0,.32,0,.39,0,.63C126,55.65,126.06,55.76,126,55.74Z"/><rect class="cls-1" x="114.05" y="119.38" width="21.75" height="7.37"/><path class="cls-2" d="M118.48,126.11a.06.06,0,0,1-.06,0S118.46,126.07,118.48,126.11Z"/><path class="cls-2" d="M117.61,121.11s-.07.07-.06,0S117.59,121.11,117.61,121.11Z"/><path class="cls-2" d="M117.52,121s0,0-.07,0S117.51,121,117.52,121Z"/><path class="cls-2" d="M117.25,121.76s0,0-.06,0S117.23,121.77,117.25,121.76Z"/><path class="cls-2" d="M117.13,121a.09.09,0,0,1-.11.05C117,121,117.09,121,117.13,121Z"/><path class="cls-2" d="M116.8,124.89c-.06,0-.17.07-.22,0S116.74,124.84,116.8,124.89Z"/><path class="cls-2" d="M116.65,123.17c-.08.11-.21,0-.3.06,0-.09.14,0,.16-.09s0,0,.06,0S116.62,123.12,116.65,123.17Z"/><path class="cls-2" d="M115.76,122.91s0,.08,0,.07a.15.15,0,0,1,0-.07Z"/><path class="cls-2" d="M115.39,123.52a.18.18,0,0,1-.26,0s0,0,0,0-.15,0,0,0S115.26,123.56,115.39,123.52Z"/><path class="cls-2" d="M115.35,122.62a.09.09,0,0,1-.07,0S115.34,122.6,115.35,122.62Z"/><path class="cls-2" d="M115.26,125s-.06,0-.09,0S115.24,124.93,115.26,125Z"/><path class="cls-2" d="M115.28,122.92s-.08,0-.11.07S115.24,122.93,115.28,122.92Z"/><path class="cls-2" d="M115.23,122.67s-.07,0-.11,0S115.2,122.68,115.23,122.67Z"/><path class="cls-2" d="M115.17,125.4c0,.06,0,0-.07.07S115.14,125.42,115.17,125.4Z"/><path class="cls-2" d="M115.13,125c0,.06-.14,0-.19,0A.24.24,0,0,1,115.13,125Z"/><path class="cls-2" d="M115.1,122.71c0,.09-.12,0-.16,0S115.05,122.76,115.1,122.71Z"/><path class="cls-2" d="M115,123.55s0,0-.07,0S114.94,123.56,115,123.55Z"/><path class="cls-2" d="M114.89,123.37s0,0-.07,0S114.87,123.38,114.89,123.37Z"/><path class="cls-2" d="M114.81,123.15s-.08,0-.07,0,0,0,0,0S114.78,123.13,114.81,123.15Z"/><path class="cls-2" d="M114.61,124.52c0-.07.13,0,0,0Z"/><path class="cls-2" d="M114.51,125.19s-.08,0-.13,0A.12.12,0,0,1,114.51,125.19Z"/><path class="cls-2" d="M114.48,125.29c0,.06-.07,0,0,0Z"/><path class="cls-2" d="M114.39,126.24s0,.05-.07,0S114.38,126.22,114.39,126.24Z"/><path class="cls-2" d="M114.12,126.16c-.08.08-.1,0,0,0Z"/><path class="cls-2" d="M116.25,126.19s0,0,0,.07-.09,0-.13,0S116.18,126.24,116.25,126.19Z"/><path class="cls-2" d="M115.2,124.64s0,0,0,0,0,0,0-.05-.07,0-.11,0a.43.43,0,0,0,0,0c-.06.1-.12-.06-.23,0,.11-.11.34,0,.43,0s-.09,0-.1.08S115.21,124.56,115.2,124.64Z"/><path class="cls-2" d="M115.1,123s0,0,0,0,0,0,0,0S115.19,122.94,115.1,123Z"/><path class="cls-2" d="M114.39,123.14v-.07c-.06,0-.15,0-.19,0s.22.07.27,0,0,0,0,0c.17-.12.35,0,.52-.07-.08.19-.25-.07-.34.13,0,0,0,0,0,0S114.49,123,114.39,123.14Z"/><path class="cls-2" d="M114.46,125.43s0,0-.06.07S114.44,125.39,114.46,125.43Z"/><path class="cls-2" d="M133.41,126.74s.08-.06.13-.06.2.07.3,0,.18-.13.28-.15.09,0,.14-.06.26,0,.32-.22.22-.19.3-.31a.05.05,0,0,1,.05,0c.22-.29.35-.76.61-1a3.39,3.39,0,0,1,.08-.39c0-.06.07-.1.08-.16a2.69,2.69,0,0,1,.11-.68c0-.06,0-.07,0-.11,0-.45,0-.83,0-1.17s-.06-.44-.11-.64a2.55,2.55,0,0,0-.14-.35c0-.13-.09-.23-.13-.36s-.06-.16-.07-.28-.13-.2-.21-.28a1.3,1.3,0,0,1,0-.13c-.15-.23-.31-.51-.53-.6l-.08,0c-.16,0-.41,0-.49-.22,0,0,0,0-.06,0s-.1-.25-.17-.24-.07.12-.13.14-.16-.13-.23-.11-.08.12-.11.14a.45.45,0,0,1-.36,0c-.06,0-.09-.11-.13-.09s-.08.11-.07.25c-.12.3-.43.07-.62.2-.14-.11-.27.07-.4,0s-.06,0-.08,0-.11.06-.17.08-.18,0-.26.08c-.13-.18-.22,0-.32,0s-.08-.06-.13-.06-.07,0-.11,0-.08-.07-.12-.06-.06,0-.08,0-.05-.05-.08,0-.07.07-.11.08-.27,0-.39.09c-.22-.11-.41.07-.67,0-.06,0-.11.06-.18,0s0,.06,0,.06-.28.09-.42,0a.08.08,0,0,1,0,0,.62.62,0,0,0-.58,0c-.12-.09-.26,0-.4,0s-.14,0-.2,0-.29,0-.41,0-.07.06-.1.07-.13,0-.2,0a2.13,2.13,0,0,1-.79,0c-.07,0-.13.06-.21.08s-.26-.06-.39,0l-.1,0c-.08,0-.15,0-.24,0s-.4.11-.59,0a2.56,2.56,0,0,1-.88.1c-.07.1-.13,0-.19,0a1.33,1.33,0,0,1-.68.07c-.89.17-1.82.1-2.7.29-.07-.07-.18,0-.24,0s0,0-.08-.06-.25,0-.39,0-.12,0-.17.12c0-.06,0,0,0-.09-.09.21-.4.11-.53.17s0,0,0,0,0,0-.09,0c-.25,0-.43.23-.64.31,0,0-.1-.12-.12,0s.08,0,.08.1a.16.16,0,0,0-.19.08c-.08,0-.12,0-.19,0s0,.1,0,.09-.16,0-.26,0-.15.11-.18.06,0,.07,0,.09-.17.06-.25,0,0,.09-.07.1,0-.08,0,0,0,.08,0,.14,0,.08-.06.13-.1,0-.16.08-.13,0-.18,0-.07.09-.13.09-.08-.07-.13-.06,0,.06,0,.07a.82.82,0,0,0-.47.15c.19-.14.34,0,.51-.11,0,.08.08-.05.1.06,0,0,0-.08,0-.08s0,0,0,0,0,.1,0,.17.26,0,.39-.06,0-.05,0-.07a.39.39,0,0,0,.14,0c0,.08,0,.11,0,.2-.17,0-.4.14-.6.15s-.13-.06-.17,0c.1,0,.17.09.25.1s.21-.1.31-.07,0,0,.07,0,0-.06.07,0,0,0,0,0,.08-.07.13-.07.15.07.24,0,0,.11,0,.12h-.23a.06.06,0,0,1,0,0s0,0-.07,0,.08.14,0,.2a3.91,3.91,0,0,1-.6,0s0,.09-.06.1-.38,0-.57,0a1.14,1.14,0,0,0,.71,0s0,.06,0,0a1,1,0,0,1,.33,0l.11.23c.27-.06.46.26.72.26a.35.35,0,0,0,0,.11l-.06.14s-.09,0-.12,0c-.22.16-.53,0-.8.14a.33.33,0,0,0,0,.24c.13,0,.25-.08.38,0s0,.36-.11.38a2.19,2.19,0,0,1-.59,0c-.52.12-1,.07-1.57.17a5.83,5.83,0,0,1,.84,0s0-.06,0-.06a2.18,2.18,0,0,0,.77,0c.1.13.28,0,.38.11a.38.38,0,0,1-.2.35c.1,0,.19.06.28.07s.19-.05.23,0,0,.06,0,.06.06,0,.06,0,0,0,.08,0,.06,0,.09.06c.2,0,.4,0,.6,0,0,0,.06,0,.06,0s0,0,0,0,0,0,0,0l.25,0c.19,0,.42,0,.58,0s0,.07,0,.07c.28,0,.57.08.86.1,0,0,0,.08,0,.07s0-.07.07-.07a.23.23,0,0,1,0,.1,4,4,0,0,0,1,0c.33,0,.65,0,1,0a2.75,2.75,0,0,1,.69,0,4.7,4.7,0,0,1,.82-.07,2.81,2.81,0,0,0,.58,0s.06,0,.09,0,.1.06.15.06.27-.07.41-.07l.44,0c.09,0,.17,0,.25-.06s.11,0,.17,0,.32-.08.48-.07a1.15,1.15,0,0,0,.61,0,2.49,2.49,0,0,0,.72,0c.18.14.36,0,.56,0,0,0,0,0,.06,0,.3.11.63-.08.88,0,.09-.09.17,0,.25,0s.18,0,.27,0,.05,0,.08,0,.18,0,.28-.06.3.14.47.05a.56.56,0,0,0,.47.06c.25.13.51,0,.77,0,.09,0,.17.11.25,0,.1.09.2,0,.32,0s.22.07.34.09.36,0,.49.15c.05.41.16-.19.29-.11s.06.2.09.34.12,0,.18,0S133.31,126.74,133.41,126.74Zm-16.58-4.41s0,0,0,0S116.88,122.34,116.83,122.33Zm0,0c-.08,0-.19.09-.25,0s0,.1,0,.13a.14.14,0,0,0-.13-.08c0-.15.11-.06.12-.19s.06,0,.08,0,.11,0,.18,0S116.81,122.27,116.81,122.37Z"/><rect class="cls-1" x="3.1" y="59.17" width="140.68" height="7.37" transform="translate(-17.93 94.4) rotate(-59.61)"/><path class="cls-2" d="M91.92,25.34a1.22,1.22,0,0,1,.16-.34A.57.57,0,0,1,91.92,25.34Z"/><path class="cls-2" d="M99.06,23c0-.11.18-.44.24-.36A3.71,3.71,0,0,1,99.06,23Z"/><path class="cls-2" d="M99.47,22.56s.14-.26.2-.37S99.53,22.51,99.47,22.56Z"/><path class="cls-2" d="M99.68,20.69a1,1,0,0,1,.21-.38C99.91,20.36,99.74,20.58,99.68,20.69Z"/><path class="cls-2" d="M100.77,20.42a2.18,2.18,0,0,1,.33-.66A3.33,3.33,0,0,1,100.77,20.42Z"/><path class="cls-2" d="M98.46,16.59a7.89,7.89,0,0,1,.72-1.21C98.91,15.75,98.71,16.25,98.46,16.59Z"/><path class="cls-2" d="M100.45,16.59c.15-.45.67-1.12.92-1.67.11,0-.44.76-.46.95s-.15.2-.22.29A1.4,1.4,0,0,1,100.45,16.59Z"/><path class="cls-2" d="M103.58,11.78s0-.06,0-.2.07,0,.09,0Z"/><path class="cls-2" d="M104.26,9.42a6.55,6.55,0,0,1,.85-1.5c0-.06,0-.08.06-.18.14-.25.49-.78.17-.25C105,8.18,104.65,8.67,104.26,9.42Z"/><path class="cls-2" d="M105.18,9.63a1.35,1.35,0,0,1,.19-.39A1.17,1.17,0,0,1,105.18,9.63Z"/><path class="cls-2" d="M103.44,7.93a2.81,2.81,0,0,1,.27-.48A1.64,1.64,0,0,1,103.44,7.93Z"/><path class="cls-2" d="M105.15,9.08c0-.15.22-.44.29-.62S105.26,8.87,105.15,9.08Z"/><path class="cls-2" d="M105.51,9a3.62,3.62,0,0,1,.33-.66A4.49,4.49,0,0,1,105.51,9Z"/><path class="cls-2" d="M103.37,7.21s.09-.26.16-.41C103.56,6.86,103.43,7.07,103.37,7.21Z"/><path class="cls-2" d="M103.88,7.2a7.62,7.62,0,0,1,.6-1.07A8.94,8.94,0,0,1,103.88,7.2Z"/><path class="cls-2" d="M105.91,8.2a3.49,3.49,0,0,1,.52-.91C106.32,7.57,106,7.89,105.91,8.2Z"/><path class="cls-2" d="M105.59,7.07c0-.12.14-.29.21-.45C105.88,6.63,105.69,6.89,105.59,7.07Z"/><path class="cls-2" d="M106,6.7a1.76,1.76,0,0,1,.24-.43C106.27,6.34,106.09,6.57,106,6.7Z"/><path class="cls-2" d="M106.48,6.36c0-.08.22-.49.25-.35s-.08.09-.11.07S106.58,6.22,106.48,6.36Z"/><path class="cls-2" d="M106,4.55c-.09.3-.45.69,0,0Z"/><path class="cls-2" d="M105.72,3.63a4.1,4.1,0,0,1,.39-.69A6.07,6.07,0,0,1,105.72,3.63Z"/><path class="cls-2" d="M105.72,3.41c-.09,0,.16-.37.16-.26Z"/><path class="cls-2" d="M105.19,2.44a1.39,1.39,0,0,1,.19-.39A.83.83,0,0,1,105.19,2.44Z"/><path class="cls-2" d="M106.13,1c.19-.49.35-.6,0,0Z"/><path class="cls-2" d="M99.13,12.87c0-.1.09-.23.1-.3a4.87,4.87,0,0,0,.44-.67C99.58,12.21,99.32,12.45,99.13,12.87Z"/><path class="cls-2" d="M103.93,7.75c.07-.13.09-.09.17-.25,0,0,0,.07,0,.09.17-.26.23-.42.36-.64,0,0,0,.07,0,.08a11.94,11.94,0,0,1,.75-1.26c-.26.65-1.1,1.93-1.39,2.46,0-.12.31-.54.28-.63S103.94,7.89,103.93,7.75Z"/><path class="cls-2" d="M105.72,8.06c0-.06,0,0,0,0s.13-.24.16-.26S105.43,8.56,105.72,8.06Z"/><path class="cls-2" d="M107.85,4l.06,0A7.4,7.4,0,0,1,108.59,3a17.11,17.11,0,0,0-.86,1.56c-.06.06-.13.18-.19.24-.45,1-1.15,1.94-1.65,2.94.09-.53.89-1.38,1-2,.06-.08,0,0,0,.06A13.83,13.83,0,0,0,107.85,4Z"/><path class="cls-2" d="M105.67,3.22c0-.09.1-.25.13-.35S105.77,3.14,105.67,3.22Z"/><path class="cls-2" d="M42.53,108.27c-.14.24-.23.53-.38.78-.34.58-.71,1.07-1,1.67s-.48,1.07-.78,1.62-.27.55-.41.83A8.06,8.06,0,0,0,39.1,115c-.22.61-.56,1.34-.74,1.87,0,.09-.13.24-.14.28-.47,1.36-.51,2.35-1.17,3.89a2.55,2.55,0,0,1,.07.65c0,.14-.13.4-.12.51,0,.41.42.3.24.93,0,.06.11,0,.15,0,.38.24.83.21,1,.52.4-.27.56-.07.89-.26s.52-.42.75-.59.52-.42.77-.58c.11.07.33-.25.47-.26.31-.37.6-.62.91-1,.06,0,.14-.1.2-.08a19.67,19.67,0,0,0,2.26-2.66c.07-.1.22-.33.29-.46a15.14,15.14,0,0,1,1.8-2.62c.1-.15.06-.17.17-.32a2.76,2.76,0,0,0,.79-.87c.08-.14.12-.44.29-.76.24-.48.63-.84.86-1.27.1-.19.13-.45.22-.66a18.37,18.37,0,0,1,1.2-2,8.5,8.5,0,0,0,.51-.69c.12-.24.15-.46,0-.51.14-.83,1.36-2.45,1.85-3.55a24.07,24.07,0,0,0,1.26-2.25c.09-.15.23-.3.31-.45s.29-.62.46-.95c.29-.57.58-1.05.81-1.52a8.7,8.7,0,0,0,1-1.81c.13-.22.3-.41.45-.65s.19-.44.33-.67.33-.43.45-.65.14-.31.22-.44.21-.26.32-.45.16-.43.27-.63a20.93,20.93,0,0,0,1.2-2.22c.81-1.17,1.28-2.33,2.24-3.72a5.73,5.73,0,0,1,.57-1c0-.09,0-.11.08-.24.49-.73.82-1.6,1.33-2.34a.39.39,0,0,1,0-.14A24.89,24.89,0,0,0,66,81.09a24.13,24.13,0,0,0,1.29-2.23c.22-.38.48-.73.67-1.09.38-.71,1-1.6,1.32-2.28.11-.2.18-.42.29-.62.19-.36.46-.71.66-1.1.76-1.51,1.8-3.14,2.54-4.41.23-.39.38-.76.62-1.21.4-.74.92-1.45,1.33-2.19.11-.19.18-.39.27-.56.24-.45.52-.85.79-1.31.65-1.14,1.23-2.32,1.93-3.35.7-1.41,1.89-3.38,2.8-5a6,6,0,0,1,.6-1.07c.63-1.15,1.38-2.65,2.14-3.79C86,45.85,89.08,40.7,91.8,35.68a6.66,6.66,0,0,0,.76-1.33,2.21,2.21,0,0,0,.32-.45,23.45,23.45,0,0,1,1.23-2.19c0-.26.37-.68.46-1,.13-.1,0,.19.11,0a22.68,22.68,0,0,1,1.59-3.06c0,.05-.06.05,0,0s.12-.3.24-.51c.8-1.4,1.2-2.49,1.82-3.72.12-.13.43-.48.44-.66-.13.21-.29.48-.35.42a4.89,4.89,0,0,0,.55-1.1,10.81,10.81,0,0,0,.6-1.07c.06-.1-.14,0,0-.16.4-.59.51-.94.88-1.47a3.53,3.53,0,0,1,.53-1c.08-.2-.17.16-.1,0a10.32,10.32,0,0,1,.83-1.43,1.56,1.56,0,0,1,.13-.43c.07-.13,0,.07.14-.13s-.15.1-.18,0a.81.81,0,0,0,.09-.39,4.8,4.8,0,0,0,.46-.94c.16-.35.4-.69.56-1s.16-.43.34-.74.32-.42.48-.7-.11.06,0-.15a29.33,29.33,0,0,0,1.42-2.73c-.52,1.17-1.12,1.89-1.58,2.92-.15.1-.21.46-.39.55,0,.08.16-.12,0,.09a1.33,1.33,0,0,0-.14.2c0-.19-.12,0-.23.06-.47.83-.81,1.49-1.23,2.2,0,.14.11-.06,0,.09s-.28.48-.44.81c-.12.06-.27.26-.29.1.57-.95,1.21-2.33,1.86-3.47.2-.35.48-.67.49-.93-.27.53-.62.88-.89,1.32s-.61,1.24-1,1.79c-.1.15-.16.2-.25.34s-.13.33-.2.45-.12.13-.19.25-.19.46-.35.72c-.26.44-.58.85-.84,1.35-.08.07-.13,0-.08-.13.35-.58.4-.68.74-1.27,0,.06-.08.09-.1.07a1.08,1.08,0,0,0,.2-.38c-.25.44-.35.33-.32.15.66-1.08,1.39-2.45,2-3.32a.93.93,0,0,1,.1-.38c.55-1,1.25-2.14,1.85-3.25a45.88,45.88,0,0,0-2.32,4s-.07,0-.14.12c-.32.64-.75,1.35-1,1.83-.19.17-.38.34-.57.49-.82,1.54-1.74,2.48-2.59,3.92,0,0-.12.07-.18.1a3.06,3.06,0,0,1,.07-.4,3.71,3.71,0,0,1,.41-.68c.57-1.3,1.68-3,2.49-4.52,0-.23-.12-.12-.26,0-.47.7-.75,1.42-1.3,2.14-.34.17-.3-.2,0-.8.56-1,1.57-2.69,2-3.31,1.59-3,3.32-5.8,5-8.82-1,1.63-1.8,3.21-2.74,4.65,0,0,0,.07-.05.19-.87,1.44-1.81,3.05-2.5,4.36-.42.47-.89,1.57-1.32,2.05-.1-.24.08-.73.36-1.32-.32.58-.69,1.08-1,1.55s-.59,1.09-.74,1.27,0-.07-.08,0c.1-.16-.16.29-.17.33a3.59,3.59,0,0,1-.22.44,2.37,2.37,0,0,1-.36.49c-.69,1.11-1.27,2.23-2,3.32-.08.12-.21.35-.22.37s0,0-.14.13,0,.06-.07.18c-.27.42-.57.91-.83,1.35-.63,1.1-1.43,2.36-1.94,3.26-.13.19,0-.1-.19.17-.93,1.51-1.92,3.11-2.9,4.75-.08.12-.09,0-.18.17s0,.2-.16.41a2.09,2.09,0,0,1-.26.26c-1.17,1.85-2.24,3.82-3.35,5.78s-2.1,3.63-3.1,5.36c-.78,1.36-1.47,2.69-2.23,3.88-.9,1.65-1.73,3-2.61,4.58-.64,1.1-1.38,2.28-1.88,3.22-.09.17-.17.38-.28.56s-.38.53-.54.81c-.44.75-.83,1.56-1.28,2.31s-1,1.65-1.47,2.47c-.28.47-.49,1-.76,1.41s-.41.61-.59.93c-.52.89-1,1.84-1.5,2.68-.68,1.11-1.43,2.23-2,3.42-.79,1.24-1.69,2.78-2.37,4-.7.91-1.18,2-1.86,3.11-.07.11-.14.17-.21.29-1.08,1.63-2,3.59-2.89,4.91a8.54,8.54,0,0,1-.86,1.41c-.33.5-.55,1-.84,1.5-.09.16-.21.29-.31.45-.31.49-.54,1-.85,1.57-.47.83-1.12,1.62-1.59,2.61a20.3,20.3,0,0,0-1.59,2.61c-.95,1.34-1.65,2.84-2.55,4.26a9.06,9.06,0,0,0-.86,1.4,14.7,14.7,0,0,0-1.06,1.72c-.37.6-.8,1.22-1.19,1.85a17.9,17.9,0,0,1-1.74,2.65c-.53.11-.37,1-.87,1.71-.29.34-.36.23-.59.32a5.38,5.38,0,0,0-.58,1A10,10,0,0,0,42.53,108.27ZM100.58,18s0,0,.06,0C100.65,18.16,100.39,18.34,100.58,18Zm0-.12a10.75,10.75,0,0,1,.79-1.39c0-.09-.14,0-.07-.13a4.52,4.52,0,0,0,.49-.69c.14.06-.31.65-.21.75a1.08,1.08,0,0,0-.24.5c-.34.48-.33.64-.6,1C100.76,17.81,100.68,18,100.61,17.91Z"/><rect class="cls-1" x="88.14" y="-6.83" width="7.37" height="138.5" transform="translate(-18.73 52.1) rotate(-28.87)"/><path class="cls-2" d="M69.33,27.93a1.48,1.48,0,0,1-.21-.3C69.18,27.64,69.3,27.8,69.33,27.93Z"/><path class="cls-2" d="M71,20.68c-.07-.08-.28-.37-.19-.37A2.18,2.18,0,0,1,71,20.68Z"/><path class="cls-2" d="M70.85,20.11s-.15-.26-.22-.36S70.83,20,70.85,20.11Z"/><path class="cls-2" d="M69.37,19a.88.88,0,0,1-.22-.36S69.3,18.89,69.37,19Z"/><path class="cls-2" d="M69.69,17.93a2.28,2.28,0,0,1-.39-.61A3.09,3.09,0,0,1,69.69,17.93Z"/><path class="cls-2" d="M65.24,18a7.08,7.08,0,0,1-.66-1.22C64.75,17.19,65.07,17.6,65.24,18Z"/><path class="cls-2" d="M66.27,16.29c-.32-.35-.61-1.13-1-1.61,0-.12.43.75.57.86s.1.23.14.33A1.61,1.61,0,0,1,66.27,16.29Z"/><path class="cls-2" d="M63.77,11.22s-.08,0-.15-.13,0-.07,0-.08Z"/><path class="cls-2" d="M62.1,9.46A6.44,6.44,0,0,1,61.26,8s-.06,0-.11-.14S60.73,7,61,7.58,61.67,8.76,62.1,9.46Z"/><path class="cls-2" d="M62.75,8.78a2.07,2.07,0,0,1-.23-.36A.89.89,0,0,1,62.75,8.78Z"/><path class="cls-2" d="M60.42,9.41A3.21,3.21,0,0,1,60.14,9,1.77,1.77,0,0,1,60.42,9.41Z"/><path class="cls-2" d="M62.27,8.53c-.11-.11-.26-.41-.38-.55S62.15,8.33,62.27,8.53Z"/><path class="cls-2" d="M62.36,8.17A3.58,3.58,0,0,1,62,7.55,6.93,6.93,0,0,1,62.36,8.17Z"/><path class="cls-2" d="M59.76,9.11c-.06,0-.17-.2-.27-.34C59.56,8.77,59.67,9,59.76,9.11Z"/><path class="cls-2" d="M60,8.67a9.08,9.08,0,0,1-.6-1A8.59,8.59,0,0,1,60,8.67Z"/><path class="cls-2" d="M61.91,7.45a4.29,4.29,0,0,1-.5-.9C61.59,6.78,61.71,7.18,61.91,7.45Z"/><path class="cls-2" d="M60.79,7.15a2.77,2.77,0,0,1-.28-.4C60.56,6.68,60.69,7,60.79,7.15Z"/><path class="cls-2" d="M60.7,6.6a1.16,1.16,0,0,1-.25-.42C60.51,6.21,60.62,6.48,60.7,6.6Z"/><path class="cls-2" d="M60.64,6c-.08,0-.3-.43-.17-.39s0,.11,0,.13S60.57,5.88,60.64,6Z"/><path class="cls-2" d="M58.82,5.59c.21.23.36.73,0,0Z"/><path class="cls-2" d="M57.92,5.33a4.34,4.34,0,0,1-.39-.68A5.51,5.51,0,0,1,57.92,5.33Z"/><path class="cls-2" d="M57.73,5.21c0,.11-.23-.32-.14-.26Z"/><path class="cls-2" d="M56.63,5.18a1.18,1.18,0,0,1-.24-.36A1,1,0,0,1,56.63,5.18Z"/><path class="cls-2" d="M55.89,3.66c-.31-.4-.32-.59,0,0Z"/><path class="cls-2" d="M62.41,15.56a1.79,1.79,0,0,0-.21-.24,5.52,5.52,0,0,0-.34-.7A10.83,10.83,0,0,1,62.41,15.56Z"/><path class="cls-2" d="M60.51,8.91c-.07-.12,0-.13-.12-.27s0,0,.08,0c-.14-.27-.24-.4-.37-.63,0,0,.06.05.08,0-.25-.25-.3-.67-.69-1.27.42.55,1.08,1.9,1.39,2.41-.11,0-.3-.53-.4-.55S60.63,9,60.51,8.91Z"/><path class="cls-2" d="M61.69,7.54c0-.06,0,0,0,0s-.14-.23-.15-.27S62,8,61.69,7.54Z"/><path class="cls-2" d="M59.36,3.71l.06,0a6.14,6.14,0,0,1-.56-1.12,14.42,14.42,0,0,0,.88,1.51c0,.08.09.2.11.28.61.88,1.06,2,1.66,2.88-.41-.34-.72-1.45-1.17-1.85,0-.09,0,0,0,0A13.21,13.21,0,0,0,59.36,3.71Z"/><path class="cls-2" d="M57.54,5.17c-.07-.07-.16-.22-.23-.29S57.53,5,57.54,5.17Z"/><path class="cls-2" d="M114.66,111.45c.13.24.33.47.47.72.32.58.54,1.13.9,1.7s.66.94,1,1.47.33.51.5.77a7.28,7.28,0,0,0,1.16,1.65c.41.49.85,1.14,1.21,1.56.06.07.14.24.16.26a38.19,38.19,0,0,1,2.72,2.94,2.12,2.12,0,0,1,.59.26c.11.08.28.31.38.36.36.19.46-.21.91.26.07,0,0-.11,0-.15.4-.2.61-.6,1-.63,0-.48.23-.51.24-.89a9,9,0,0,0-.12-.94c0-.33-.09-.65-.1-.94.12-.06,0-.41,0-.53-.15-.45-.22-.82-.38-1.28,0-.06,0-.17,0-.21a18.71,18.71,0,0,0-1.11-3.25,5.36,5.36,0,0,0-.24-.48,15.24,15.24,0,0,1-1.31-2.84c-.07-.17-.11-.14-.18-.31a2.62,2.62,0,0,0-.33-1.1c-.08-.14-.32-.33-.51-.63-.28-.45-.38-1-.63-1.36-.12-.19-.32-.34-.45-.53a18.3,18.3,0,0,1-1.09-2,5.64,5.64,0,0,0-.32-.78c-.14-.23-.32-.36-.43-.27-.64-.53-1.39-2.38-2.08-3.35-.33-.82-.89-1.46-1.27-2.2-.08-.14-.14-.34-.23-.49s-.37-.55-.57-.86c-.33-.53-.59-1-.88-1.45a8,8,0,0,0-1-1.79c-.12-.22-.19-.46-.32-.71s-.27-.38-.4-.61-.2-.49-.32-.71-.19-.28-.26-.41a5.4,5.4,0,0,0-.23-.49c-.11-.19-.28-.36-.39-.55a20,20,0,0,0-1.28-2.13c-.58-1.28-1.32-2.26-2-3.77a6.43,6.43,0,0,1-.58-1c0-.08-.09-.06-.16-.19-.37-.78-.94-1.5-1.31-2.31a.29.29,0,0,1-.11-.09,24,24,0,0,0-1.81-3.27,23.85,23.85,0,0,0-1.24-2.21c-.21-.38-.37-.77-.58-1.12-.42-.67-.88-1.61-1.27-2.26-.11-.2-.27-.37-.38-.56-.21-.34-.37-.75-.6-1.11-.89-1.4-1.75-3.1-2.45-4.37-.21-.39-.45-.7-.71-1.13-.43-.71-.76-1.51-1.19-2.23-.11-.18-.24-.34-.34-.51-.25-.43-.45-.86-.71-1.32-.63-1.13-1.35-2.22-1.86-3.32-.85-1.3-1.91-3.3-2.8-4.87a5.71,5.71,0,0,1-.6-1c-.66-1.11-1.55-2.5-2.14-3.72C83.77,43.24,81,38,78.09,33.2a5.21,5.21,0,0,0-.75-1.31,2.13,2.13,0,0,0-.2-.5,21.23,21.23,0,0,1-1.25-2.15c-.21-.14-.39-.65-.63-.9,0-.16.14.14.06-.09a21.46,21.46,0,0,1-1.79-2.89c0,.06,0,.08,0,0s-.2-.25-.31-.46c-.79-1.37-1.52-2.26-2.24-3.41a1.76,1.76,0,0,0-.34-.7c.11.22.26.48.18.51a4.5,4.5,0,0,0-.66-1,8.54,8.54,0,0,0-.6-1.05c-.06-.1,0,.14-.14-.07-.3-.64-.54-.91-.81-1.48a3.46,3.46,0,0,1-.61-1c-.13-.16,0,.23,0,.09a10.67,10.67,0,0,1-.79-1.42,1.42,1.42,0,0,1-.3-.33c-.08-.13.09,0,0-.18s0,.18-.07.16c-.17-.23-.18-.16-.29-.27a4.43,4.43,0,0,0-.57-.86c-.21-.31-.38-.69-.58-1a7.54,7.54,0,0,1-.46-.66c-.13-.25-.19-.49-.35-.76s0,.13-.12-.08a29.73,29.73,0,0,0-1.6-2.57c.73,1,1,1.9,1.68,2.8,0,.18.28.41.27.61.07,0,0-.2.09,0a1.77,1.77,0,0,0,.1.22c-.16-.09,0,.11-.06.22.45.82.85,1.44,1.24,2.15.09.12,0-.12.09,0s.27.48.47.78c0,.13.07.36-.07.29-.52-1-1.36-2.19-2-3.32-.2-.34-.33-.73-.54-.87a14.55,14.55,0,0,1,.66,1.41c.31.58.75,1.14,1,1.71.08.16.09.24.17.39s.21.27.28.4,0,.16.11.28.29.39.44.66c.24.44.42.91.71,1.39,0,.11-.07.1-.14,0l-.71-1.27c0,.07,0,.12,0,.13-.1-.18-.11-.26-.22-.36.25.44.1.46,0,.34-.58-1.1-1.37-2.41-1.82-3.33a1.14,1.14,0,0,1-.27-.27c-.6-1-1.18-2.14-1.81-3.21a42.24,42.24,0,0,0,2.18,4c0,.07,0,.05,0,.18.38.59.76,1.31,1,1.78,0,.25.09.49.13.73.88,1.47,1.21,2.73,2,4.17,0,0,0,.14,0,.2-.1-.1-.2-.15-.3-.26a4.34,4.34,0,0,1-.38-.69c-.81-1.14-1.66-2.91-2.57-4.38-.18-.14-.16,0-.16.2.36.75.83,1.36,1.16,2.18,0,.38-.32.16-.66-.43-.56-1-1.48-2.68-1.81-3.34-1.7-2.83-3.24-5.72-5-8.64.87,1.67,1.81,3.14,2.56,4.65,0,0,.07,0,.13.14.78,1.46,1.67,3.07,2.44,4.31.18.59.88,1.55,1.06,2.15-.25,0-.58-.43-.93-1,.32.56.56,1.12.81,1.61s.63,1,.7,1.26c0,.05-.07,0,0,.08-.08-.17.17.28.19.31a1.93,1.93,0,0,1,.26.41,2.12,2.12,0,0,1,.24.55c.59,1.13,1.24,2.19,1.82,3.33.06.12.2.35.2.37s0,0,0,.18.06,0,.12.15c.22.44.48,1,.73,1.38.61,1.09,1.28,2.4,1.78,3.29.09.2-.1,0,0,.24C71.1,30.7,72,32.34,72.85,34c.07.13-.06.07.05.24s.16.14.27.34a1.25,1.25,0,0,1,.09.36c1,1.91,2.11,3.81,3.21,5.74s2,3.61,3,5.32c.76,1.34,1.54,2.6,2.16,3.83,1,1.6,1.72,3,2.57,4.52.61,1.09,1.24,2.32,1.78,3.22.09.15.23.32.34.5s.25.6.41.87c.41.76.9,1.49,1.31,2.25l1.35,2.49c.25.47.55.89.81,1.35.17.3.31.65.48,1,.5.9,1.07,1.77,1.52,2.62.6,1.14,1.17,2.33,1.88,3.44.66,1.28,1.5,2.82,2.2,4a33.58,33.58,0,0,0,1.69,3.12c.06.12.08.21.14.33.83,1.74,2,3.51,2.7,4.92a7.33,7.33,0,0,1,.75,1.44c.27.52.58,1,.86,1.46.09.16.14.32.22.49.26.51.59,1,.9,1.51.47.81.81,1.76,1.42,2.65a18.58,18.58,0,0,0,1.4,2.67c.65,1.47,1.58,2.82,2.32,4.29a7.93,7.93,0,0,0,.76,1.44,13.51,13.51,0,0,0,.91,1.76c.33.62.63,1.29,1,1.94a18.37,18.37,0,0,1,1.37,2.81c-.19.51.68.82,1,1.59.14.42,0,.43,0,.67a4.66,4.66,0,0,0,.56,1A9.42,9.42,0,0,0,114.66,111.45ZM67.56,16.9s0,0,0-.07C67.7,16.91,67.73,17.21,67.56,16.9Zm-.09-.09a12,12,0,0,1-.78-1.36c0-.09,0,.12-.15,0a3.88,3.88,0,0,0-.33-.77c.12-.09.39.59.53.56.12.25.18.38.3.45.24.54.38.6.55,1C67.46,16.63,67.57,16.79,67.47,16.81Z"/><rect class="cls-1" x="57.28" y="86.4" width="49.42" height="7.37"/><path class="cls-2" d="M67.34,93.13a.25.25,0,0,1-.13,0A.08.08,0,0,1,67.34,93.13Z"/><path class="cls-2" d="M65.37,88.13s-.17.07-.15,0A.34.34,0,0,1,65.37,88.13Z"/><path class="cls-2" d="M65.16,88s-.11,0-.15,0S65.13,88,65.16,88Z"/><path class="cls-2" d="M64.55,88.78a.12.12,0,0,1-.15,0S64.51,88.79,64.55,88.78Z"/><path class="cls-2" d="M64.28,88A.34.34,0,0,1,64,88C64.06,88,64.18,88,64.28,88Z"/><path class="cls-2" d="M63.53,91.91c-.14,0-.41.07-.5,0C63.19,92,63.38,91.86,63.53,91.91Z"/><path class="cls-2" d="M63.17,90.19c-.16.1-.46,0-.67.06,0-.09.31,0,.37-.09l.13,0C63.06,90.2,63.11,90.14,63.17,90.19Z"/><path class="cls-2" d="M61.16,89.93s0,.07-.07.07a.08.08,0,0,1,0-.07Z"/><path class="cls-2" d="M60.32,90.54a.82.82,0,0,1-.6,0s0,0-.07,0-.32,0-.1,0S60,90.58,60.32,90.54Z"/><path class="cls-2" d="M60.22,89.64a.28.28,0,0,1-.15,0S60.2,89.62,60.22,89.64Z"/><path class="cls-2" d="M60,92s-.14,0-.2,0S60,92,60,92Z"/><path class="cls-2" d="M60.06,89.94c-.05,0-.17,0-.24.07S60,90,60.06,89.94Z"/><path class="cls-2" d="M60,89.68c0,.06-.17,0-.26,0S59.88,89.7,60,89.68Z"/><path class="cls-2" d="M59.81,92.42c0,.06-.09,0-.15.07S59.76,92.44,59.81,92.42Z"/><path class="cls-2" d="M59.71,92a1,1,0,0,1-.43,0A1.25,1.25,0,0,1,59.71,92Z"/><path class="cls-2" d="M59.66,89.73c-.11.08-.27,0-.37,0C59.39,89.69,59.54,89.78,59.66,89.73Z"/><path class="cls-2" d="M59.37,90.57a.42.42,0,0,1-.17.05C59.19,90.54,59.3,90.58,59.37,90.57Z"/><path class="cls-2" d="M59.19,90.39c-.06,0-.1,0-.18,0S59.13,90.4,59.19,90.39Z"/><path class="cls-2" d="M59,90.17s-.19,0-.15,0,0,0,0,.05S58.94,90.15,59,90.17Z"/><path class="cls-2" d="M58.55,91.54c.1-.07.28,0,0,0Z"/><path class="cls-2" d="M58.31,92.2a.53.53,0,0,1-.28,0A.69.69,0,0,1,58.31,92.2Z"/><path class="cls-2" d="M58.24,92.31c0,.06-.14,0-.11,0Z"/><path class="cls-2" d="M58,93.26a.14.14,0,0,1-.15,0S58,93.24,58,93.26Z"/><path class="cls-2" d="M57.44,93.18c-.18.08-.24,0,0,0Z"/><path class="cls-2" d="M62.28,93.21s-.09,0-.11.07-.19,0-.28,0C62,93.16,62.12,93.26,62.28,93.21Z"/><path class="cls-2" d="M59.88,91.66c-.06,0-.05,0-.11,0s0,0,0,0a2.17,2.17,0,0,0-.26,0,.05.05,0,0,0,0,0c-.12.1-.27-.06-.52,0a3.72,3.72,0,0,1,1-.05c0,.07-.22,0-.24.08S59.91,91.58,59.88,91.66Z"/><path class="cls-2" d="M59.65,90s0,0,0,0-.09,0-.11,0S59.85,90,59.65,90Z"/><path class="cls-2" d="M58.05,90.16v-.07a1,1,0,0,1-.45,0c.17,0,.51.07.63,0a.45.45,0,0,0,.11,0A11.51,11.51,0,0,1,59.52,90c-.18.19-.58-.07-.78.13,0,0,0,0,0,0A1.65,1.65,0,0,0,58.05,90.16Z"/><path class="cls-2" d="M58.19,92.45s-.09,0-.13.07S58.15,92.41,58.19,92.45Z"/><path class="cls-2" d="M101.25,93.76c.09,0,.2-.06.3-.06a4,4,0,0,0,.69,0c.21,0,.41-.13.63-.15a1.84,1.84,0,0,0,.32-.06c.32-.07.58,0,.72-.22s.5-.19.7-.31a.22.22,0,0,1,.11,0c.49-.29.8-.76,1.38-1a2,2,0,0,1,.19-.4c0-.05.14-.09.17-.15.12-.23,0-.51.24-.68,0-.06,0-.07,0-.11,0-.45-.08-.83,0-1.17-.15-.21-.12-.44-.23-.64s-.22-.23-.32-.35-.22-.23-.31-.36-.13-.16-.16-.28-.29-.2-.46-.28-.06-.07-.07-.13a3.23,3.23,0,0,0-1.2-.6l-.19,0a2.08,2.08,0,0,1-1.12-.22c-.06,0-.06,0-.13,0a.5.5,0,0,0-.4-.24c-.05,0-.16.11-.28.14s-.37-.13-.54-.11-.16.12-.24.14a2.18,2.18,0,0,1-.81,0c-.14,0-.2-.11-.3-.09s-.17.11-.16.25c-.28.3-1,.06-1.41.2-.31-.11-.6.07-.9,0-.06,0-.13,0-.19,0a3.11,3.11,0,0,0-.37.08c-.23,0-.42,0-.61.08-.28-.18-.49,0-.73,0a2.3,2.3,0,0,0-.28-.06,1.78,1.78,0,0,1-.26,0c-.09,0-.18-.06-.27-.06a1.49,1.49,0,0,1-.18,0c-.07,0-.11,0-.19,0s-.16.07-.24.08a2.59,2.59,0,0,0-.88.09c-.5-.11-.94.07-1.53,0a.82.82,0,0,1-.41,0s0,.06-.09.06c-.3-.06-.63.09-.94,0,0,0,0,0,0,0a3.12,3.12,0,0,0-1.33,0,3.1,3.1,0,0,0-.91,0,3.39,3.39,0,0,0-.45,0c-.28,0-.65,0-.92,0-.09,0-.16.06-.24.07a3.38,3.38,0,0,0-.45,0,10.84,10.84,0,0,1-1.79,0,4.8,4.8,0,0,0-.48.08c-.29,0-.6-.06-.9,0l-.22,0c-.18,0-.35,0-.53,0a6.21,6.21,0,0,1-1.36,0,12.81,12.81,0,0,1-2,.1c-.15.1-.29,0-.44,0a7,7,0,0,1-1.53.07c-2,.17-4.13.1-6.14.29A.83.83,0,0,0,70,88s-.12,0-.19-.06c-.25.12-.56,0-.88.05-.08.12-.27,0-.39.12s.07-.06,0-.09c-.21.21-.9.11-1.21.17,0,0,0,0,0,0s-.11,0-.2,0a11.21,11.21,0,0,0-1.45.3c-.06,0-.22-.12-.28,0,.09,0,.2,0,.19.1a.62.62,0,0,0-.43.08c-.18,0-.27,0-.43,0s0,.1,0,.09c-.25,0-.37,0-.6,0a.46.46,0,0,1-.41.06c-.07,0,.08.07,0,.09A1.42,1.42,0,0,1,63,89s-.08.09-.16.1,0-.08-.06,0,.06.08,0,.14-.08.07-.13.12-.24.06-.37.09-.28,0-.41,0-.16.09-.28.09-.19-.07-.3-.06,0,.06,0,.07a3.86,3.86,0,0,0-1.08.15c.45-.14.77,0,1.17-.11.06.08.17,0,.23,0s-.06-.07,0-.07a.1.1,0,0,0,.08,0c-.06.1,0,.1.06.17.33,0,.59,0,.88-.06.06,0,0,0,0-.07a1.91,1.91,0,0,0,.32,0c0,.08.13.11.08.2-.39,0-.92.14-1.38.15-.14,0-.29-.07-.37,0,.21,0,.38.09.56.1s.48-.1.71-.07c.06,0,.09,0,.15,0S62.91,90,63,90s.06,0,.11,0,.17-.06.28-.06a4.86,4.86,0,0,0,.56.05.07.07,0,0,1,0,.12h-.51s0,0,0,0-.1,0-.15,0c.18,0,.16.13.1.2-.45,0-1,0-1.36,0,0,0-.06.09-.13.1-.41,0-.87,0-1.31,0a5.42,5.42,0,0,0,1.61,0s0,.07.06.06a7.09,7.09,0,0,1,.74-.06l.25.24c.61-.06,1.06.26,1.65.26,0,0,0,.07.06.11s-.08.1-.14.14a.66.66,0,0,1-.28,0,13.74,13.74,0,0,1-1.81.14c-.07.09,0,.16,0,.24.29,0,.56-.08.88,0,.11.22,0,.36-.25.38-.4,0-1.09,0-1.35,0-1.18.12-2.35.07-3.56.17.67,0,1.29-.07,1.89,0,0,0,0,0,.07,0a11.38,11.38,0,0,0,1.77,0c.21.13.63,0,.85.11,0,.21-.23.3-.46.35a5.7,5.7,0,0,1,.64.07,3.13,3.13,0,0,1,.52,0s0,.06,0,.06.12,0,.13,0,.07,0,.17,0a.31.31,0,0,1,.21.06c.46,0,.9,0,1.36,0a.72.72,0,0,0,.15,0s0,.05.06.06,0,0,.07,0l.56,0c.44,0,1,0,1.33,0,.08,0,0,.07.08.07.63,0,1.29.08,2,.1,0,0,0,.08.08.07S70,93,70.08,93a.29.29,0,0,1,.12.1,20.56,20.56,0,0,0,2.35,0c.73,0,1.47,0,2.17,0a14.06,14.06,0,0,1,1.57,0c.67-.06,1.24-.06,1.86-.07.44,0,.93,0,1.31,0a1.19,1.19,0,0,1,.22,0c.11,0,.22.06.34.06.31,0,.62-.07.93-.07l1,0a5.32,5.32,0,0,0,.56-.06c.12,0,.25,0,.38,0,.37,0,.74-.08,1.08-.07a6.54,6.54,0,0,0,1.4,0,11.1,11.1,0,0,0,1.63,0,4.46,4.46,0,0,0,1.27,0l.13,0c.68.11,1.45-.08,2,0,.21-.09.39,0,.58,0a3.94,3.94,0,0,0,.6,0c.07,0,.13,0,.2,0a3.42,3.42,0,0,0,.62-.06,4.75,4.75,0,0,0,1.08,0,2.71,2.71,0,0,0,1.07.06,14.37,14.37,0,0,0,1.74,0c.2,0,.38.12.58,0a2.06,2.06,0,0,0,.71,0c.25,0,.51.07.77.09s.84,0,1.12.15c.12.41.37-.19.67-.11.15.08.13.2.2.34a.58.58,0,0,0,.41,0C100.92,93.58,101,93.76,101.25,93.76ZM63.59,89.35s0,0,0,0S63.71,89.36,63.59,89.35Zm-.05,0c-.18,0-.43.09-.56,0s0,.1,0,.13a.53.53,0,0,0-.3-.08c0-.15.25-.06.26-.2.1,0,.15,0,.2,0,.2,0,.25,0,.41,0C63.48,89.31,63.55,89.29,63.54,89.39Z"/><rect class="cls-1" x="66.85" y="67.95" width="7.37" height="22.13"/><path class="cls-2" d="M67.48,72.45a.06.06,0,0,1,0-.06S67.52,72.43,67.48,72.45Z"/><path class="cls-2" d="M72.48,71.57s-.07-.07,0-.07S72.48,71.55,72.48,71.57Z"/><path class="cls-2" d="M72.59,71.47s0,0,0-.06S72.61,71.46,72.59,71.47Z"/><path class="cls-2" d="M71.83,71.2s0,0,0-.06S71.82,71.18,71.83,71.2Z"/><path class="cls-2" d="M72.63,71.08s-.06-.06,0-.12S72.62,71,72.63,71.08Z"/><path class="cls-2" d="M68.7,70.74c0-.06-.07-.18,0-.22S68.74,70.68,68.7,70.74Z"/><path class="cls-2" d="M70.42,70.59c-.11-.08,0-.21-.06-.3.09,0,0,.13.08.16s0,0,0,.06S70.47,70.56,70.42,70.59Z"/><path class="cls-2" d="M70.68,69.68c-.05,0-.08,0-.07,0a.16.16,0,0,1,.07,0Z"/><path class="cls-2" d="M70.07,69.31a.19.19,0,0,1,0-.27s0,0,0,0,0-.15,0-.05S70,69.18,70.07,69.31Z"/><path class="cls-2" d="M71,69.26s0,0,0-.06S71,69.25,71,69.26Z"/><path class="cls-2" d="M68.62,69.17s0-.06,0-.08S68.65,69.15,68.62,69.17Z"/><path class="cls-2" d="M70.67,69.19s0-.08-.07-.11S70.66,69.16,70.67,69.19Z"/><path class="cls-2" d="M70.92,69.15s0-.08,0-.12S70.91,69.11,70.92,69.15Z"/><path class="cls-2" d="M68.19,69.08c-.06,0,0,0-.07-.07S68.17,69.06,68.19,69.08Z"/><path class="cls-2" d="M68.62,69c-.05,0,0-.14,0-.2A.23.23,0,0,1,68.62,69Z"/><path class="cls-2" d="M70.88,69c-.09-.05,0-.12,0-.16S70.83,69,70.88,69Z"/><path class="cls-2" d="M70,68.88s0,0-.05-.07S70,68.85,70,68.88Z"/><path class="cls-2" d="M70.22,68.8s0,0,0-.08S70.21,68.78,70.22,68.8Z"/><path class="cls-2" d="M70.44,68.72s-.06-.09,0-.07,0,0-.06,0S70.46,68.69,70.44,68.72Z"/><path class="cls-2" d="M69.06,68.51c.08,0,0,.13,0,0Z"/><path class="cls-2" d="M68.4,68.41s0-.08,0-.13A.12.12,0,0,1,68.4,68.41Z"/><path class="cls-2" d="M68.3,68.38c-.06,0-.06-.07,0,0Z"/><path class="cls-2" d="M67.35,68.29s0-.05,0-.07S67.37,68.28,67.35,68.29Z"/><path class="cls-2" d="M67.43,68c-.08-.08,0-.11,0,0Z"/><path class="cls-2" d="M67.4,70.19s0,0-.07,0,0-.09,0-.13S67.35,70.11,67.4,70.19Z"/><path class="cls-2" d="M68.94,69.11s0,0,0,0H69S69,69,69,69h0c-.1-.06.06-.12,0-.23.1.1,0,.34.05.44s0-.1-.08-.11S69,69.13,68.94,69.11Z"/><path class="cls-2" d="M70.64,69s0,0,0,0,0,0,0-.05S70.65,69.1,70.64,69Z"/><path class="cls-2" d="M70.44,68.29h.08c0-.06,0-.16,0-.2s-.07.23,0,.28,0,0,0,0c.12.17,0,.35.07.53-.19-.08.07-.26-.13-.35,0,0,0,0,0,0S70.56,68.39,70.44,68.29Z"/><path class="cls-2" d="M68.15,68.36s0,0-.07-.06S68.2,68.34,68.15,68.36Z"/><path class="cls-2" d="M66.85,87.64s.06.09.06.13-.07.2,0,.31.12.18.15.28a.42.42,0,0,0,.06.15c.07.14,0,.26.22.32s.19.22.31.31a.11.11,0,0,1,0,0c.29.22.76.36,1,.62a3.39,3.39,0,0,1,.39.08c.06,0,.1.07.16.08.23.06.51,0,.68.11a.31.31,0,0,0,.11,0c.45,0,.82,0,1.17,0s.44,0,.64-.11a2,2,0,0,0,.34-.14c.14,0,.24-.1.37-.14s.16-.06.28-.07.2-.13.28-.21l.12,0c.23-.16.52-.33.61-.54,0,0,0-.07,0-.09a.53.53,0,0,1,.22-.5s0,0,0-.06.25-.1.24-.18-.12-.07-.14-.12.13-.17.1-.24-.11-.08-.13-.11a.47.47,0,0,1,0-.37c0-.06.12-.08.1-.13S74,86.94,73.9,87c-.3-.12-.07-.44-.2-.63.11-.14-.07-.27,0-.41s0-.06,0-.08-.06-.11-.08-.17a1.73,1.73,0,0,0-.08-.27c.18-.13,0-.22,0-.33s.06-.08.06-.12,0-.08,0-.12.06-.08.06-.12,0,0,0-.08,0-.05,0-.09-.08-.07-.08-.1,0-.28-.09-.4c.11-.22-.07-.42,0-.68a.19.19,0,0,1,0-.19s0,0,0,0-.1-.29,0-.43l0,0a.7.7,0,0,0,0-.6c.09-.12,0-.25,0-.4s0-.14,0-.2a3,3,0,0,1,0-.42s-.06-.07-.07-.11,0-.13,0-.2a2.18,2.18,0,0,1,0-.8c0-.07-.06-.13-.08-.21s.06-.27,0-.4a.93.93,0,0,0,0-.1,1,1,0,0,1,0-.24c0-.21-.11-.42,0-.61a2.65,2.65,0,0,1-.1-.9c-.1-.06,0-.12,0-.19a1.35,1.35,0,0,1-.07-.69c-.18-.9-.1-1.85-.3-2.75.08-.07,0-.18,0-.24s0-.05.06-.08,0-.26-.05-.4,0-.12-.12-.17,0,0,.09,0c-.21-.09-.11-.4-.17-.54,0,0,0,0,0,0s0,0,0-.09c0-.26-.23-.44-.31-.65,0,0,.12-.1,0-.13s0,.09-.09.09a.17.17,0,0,0-.08-.2c0-.08,0-.12,0-.19s-.09,0-.08,0,0-.17,0-.27-.11-.15-.06-.18-.07,0-.09,0-.07-.18,0-.26-.09,0-.1-.07.08,0,0,0-.08,0-.14,0-.08,0-.13-.06-.05-.11-.08-.17,0-.12,0-.18-.08-.07-.08-.13.07-.08.06-.13-.07,0-.07,0a.82.82,0,0,0-.16-.49c.15.2,0,.35.12.52-.08,0,0,.08-.06.11.05,0,.08,0,.08,0s0,0,0,0-.09,0-.16,0,.05.26.05.39.06,0,.08,0a.89.89,0,0,0,0,.15c-.07,0-.1,0-.2,0,0-.17-.13-.41-.15-.62,0-.06.07-.12,0-.16s-.09.17-.1.25.1.22.07.32,0,0,0,.06.06.06.05.08,0,0,0,.05.07.08.07.13-.07.16-.05.25-.11,0-.12,0a1.85,1.85,0,0,0,0-.23l-.06,0s0,0,0-.07-.14.08-.2,0a4.07,4.07,0,0,1,0-.61s-.09,0-.1-.06c0-.18,0-.39,0-.59a1.29,1.29,0,0,0,0,.73s-.06,0,0,0a1,1,0,0,1,0,.32l-.24.12c.07.27-.25.47-.25.73a.35.35,0,0,0-.11,0,.84.84,0,0,1-.14-.06s0-.09,0-.12c-.16-.23,0-.54-.14-.81a.33.33,0,0,0-.24,0c0,.13.08.26,0,.4s-.36,0-.37-.12a2.25,2.25,0,0,1,0-.6c-.12-.53-.07-1-.17-1.59a5.83,5.83,0,0,1,0,.84s.06,0,.06,0a2.06,2.06,0,0,0,0,.79c-.13.1,0,.29-.11.39a.41.41,0,0,1-.35-.21c0,.1-.06.2-.07.29s0,.19,0,.23-.06,0-.06,0,0,.05,0,.06,0,0,0,.07,0,.06-.06.1c0,.2,0,.4,0,.61,0,0,0,.06,0,.06s0,0,0,0,0,0,0,0a2.13,2.13,0,0,0,0,.25c0,.2,0,.44,0,.6s-.07,0-.07,0a8,8,0,0,0-.1.87s-.09,0-.07,0,.07,0,.06.07a.19.19,0,0,1-.09,0,4.11,4.11,0,0,0,0,1c0,.33,0,.66,0,1a2.82,2.82,0,0,1,0,.7,4.77,4.77,0,0,1,.06.83,3.81,3.81,0,0,0,0,.59s0,.06,0,.1-.06.1-.06.15.07.28.07.42l0,.45c0,.08.06.16.06.25s0,.11,0,.17.08.33.07.48a1.13,1.13,0,0,0,0,.63,2.25,2.25,0,0,0,0,.73c-.14.18,0,.37,0,.57,0,0,0,0,0,.06-.11.3.08.65,0,.89.09.1,0,.18,0,.26s0,.18,0,.27,0,.06,0,.09,0,.18.05.28-.13.31,0,.48a.54.54,0,0,0-.06.48c-.13.26,0,.52,0,.78,0,.09-.11.17,0,.26-.1.1,0,.21,0,.32s-.07.23-.09.34,0,.38-.15.5c-.41.06.19.17.11.3a.77.77,0,0,1-.35.1c-.06.06,0,.12,0,.18S66.85,87.54,66.85,87.64Zm4.41-16.87h0C71.38,70.78,71.25,70.83,71.26,70.77Zm0,0c0-.08-.09-.19,0-.25s-.11,0-.13,0a.17.17,0,0,0,.08-.13c.15,0,.06.11.19.11s0,.07,0,.09,0,.11,0,.18S71.32,70.76,71.22,70.75Z"/><rect class="cls-1" x="79.15" y="62.9" width="7.37" height="31.95" transform="translate(-30.86 91.37) rotate(-49.87)"/><path class="cls-2" d="M92,82.65s.06,0,.09,0A.05.05,0,0,1,92,82.65Z"/><path class="cls-2" d="M89.8,87.29s.12,0,.06.08S89.82,87.32,89.8,87.29Z"/><path class="cls-2" d="M89.83,87.47s.06,0,.08,0S89.83,87.5,89.83,87.47Z"/><path class="cls-2" d="M90.62,87.14s.09,0,.08,0S90.65,87.15,90.62,87.14Z"/><path class="cls-2" d="M90.24,87.86a.16.16,0,0,1,.16.07C90.34,88,90.29,87.89,90.24,87.86Z"/><path class="cls-2" d="M93.14,85.17c.07,0,.25.11.24.22C93.33,85.28,93.19,85.27,93.14,85.17Z"/><path class="cls-2" d="M92.21,86.63c.15,0,.22.2.37.24,0,.08-.16-.12-.24-.09a.36.36,0,0,1,0-.09S92.21,86.7,92.21,86.63Z"/><path class="cls-2" d="M93,87.67s0,0,.08,0l0,.06Z"/><path class="cls-2" d="M93.84,87.55a.4.4,0,0,1,.32.24s0,0,0,0,.15.15,0,.06S94,87.65,93.84,87.55Z"/><path class="cls-2" d="M93.31,88.29a.1.1,0,0,1,.1,0A.07.07,0,0,1,93.31,88.29Z"/><path class="cls-2" d="M94.93,86.57s.07.05.11.07S94.93,86.62,94.93,86.57Z"/><path class="cls-2" d="M93.59,88.12s.1,0,.16,0S93.63,88.15,93.59,88.12Z"/><path class="cls-2" d="M93.47,88.36c.06,0,.11,0,.16.07S93.53,88.38,93.47,88.36Z"/><path class="cls-2" d="M95.31,86.33s.08,0,.12,0S95.35,86.34,95.31,86.33Z"/><path class="cls-2" d="M95.08,86.7c.06,0,.17.1.23.16A.42.42,0,0,1,95.08,86.7Z"/><path class="cls-2" d="M93.65,88.45c.11,0,.15.1.19.14S93.74,88.46,93.65,88.45Z"/><path class="cls-2" d="M94.33,87.92a.28.28,0,0,1,.12,0C94.41,88,94.37,88,94.33,87.92Z"/><path class="cls-2" d="M94.31,88.14s.06,0,.09.06S94.34,88.16,94.31,88.14Z"/><path class="cls-2" d="M94.26,88.39s.13,0,0,.09,0,0,0-.06S94.28,88.43,94.26,88.39Z"/><path class="cls-2" d="M95.37,87.53c-.1,0-.12-.15,0,0Z"/><path class="cls-2" d="M95.91,87.12a.21.21,0,0,1,.15.11A.3.3,0,0,1,95.91,87.12Z"/><path class="cls-2" d="M96,87.07c0-.06.11,0,.06,0Z"/><path class="cls-2" d="M96.73,86.42a.08.08,0,0,1,.09,0S96.73,86.45,96.73,86.42Z"/><path class="cls-2" d="M97,86.74c.14,0,.12.1,0,0Z"/><path class="cls-2" d="M94.6,84.69a.33.33,0,0,0,.1,0c0,.08.09.08.11.14S94.71,84.72,94.6,84.69Z"/><path class="cls-2" d="M94.79,86.88s0,0,0,.06l0,0c0,.06.09.06.14.1s0,0,0,0,.1.15.25.22c-.19,0-.4-.3-.52-.37.06,0,.11.09.17,0S94.72,86.93,94.79,86.88Z"/><path class="cls-2" d="M93.81,88.27s0,0,0,0,.05,0,.05,0S93.7,88.19,93.81,88.27Z"/><path class="cls-2" d="M94.72,88.79l0,0c.07,0,.19.13.19.22s-.2-.27-.33-.23a.15.15,0,0,1,0-.07c-.26-.07-.39-.34-.63-.45.21-.07.24.3.47.23,0,0,0,0,0,0S94.54,88.78,94.72,88.79Z"/><path class="cls-2" d="M96.13,87s.07,0,.11,0S96.12,87,96.13,87Z"/><path class="cls-2" d="M75.69,68s-.14,0-.19-.08-.18-.24-.32-.31-.28-.08-.4-.15a.88.88,0,0,0-.21-.09c-.2-.08-.3-.21-.49-.13s-.37-.06-.55,0c0,0,0,0-.06,0a6.51,6.51,0,0,1-1.3.16,2.67,2.67,0,0,1-.35.22c-.06,0-.13,0-.19.05s-.33.38-.55.42c0,0,0,.06,0,.1-.29.34-.49.66-.74.9-.06.22-.23.39-.29.59a2.57,2.57,0,0,0-.08.4c0,.14,0,.27-.08.41s0,.18-.09.27,0,.28,0,.41,0,.08-.05.12a2.09,2.09,0,0,0,.21,1l.08.1c.18.14.43.41.41.63,0,0,0,0,.07,0s0,.29,0,.36.16,0,.23,0,.1.25.2.3.15,0,.21,0a1,1,0,0,1,.39.36c0,.08,0,.17.09.2s.15,0,.23-.13c.34-.12.53.36.83.43.08.22.35.2.48.34s0,.09.07.11.16,0,.23.09a3.35,3.35,0,0,0,.35.2c0,.25.26.18.38.29s.05.12.1.16.11,0,.15.07.06.13.1.16.09,0,.11,0,0,.08.07.11.13,0,.17,0,.27.29.5.31c.17.29.5.33.72.67a.42.42,0,0,1,.22.15s.05,0,.07,0,.38.19.49.37l.06,0a1.37,1.37,0,0,0,.66.55c.08.18.3.23.46.36s.12.17.2.21a6,6,0,0,1,.47.38s.12,0,.16,0,.13.15.22.19a4.44,4.44,0,0,1,.9.72,2,2,0,0,0,.29.14c.17.1.26.3.42.4s.1,0,.14.06a2.68,2.68,0,0,1,.26.23c.23.19.52.3.68.55a5.21,5.21,0,0,1,1.06.76c.13,0,.15.1.23.16a2.82,2.82,0,0,1,.8.58c1.11.71,2.11,1.65,3.23,2.33,0,.12.18.19.28.21s0,.08.06.12c.2,0,.29.22.47.33.11-.06.15.09.26.07s-.06,0,0,.08c.23-.08.51.29.7.37,0,0,0,0,0,0s.09,0,.13,0a4.58,4.58,0,0,0,.91.37s0,.18.11.15-.09-.09,0-.16a.26.26,0,0,0,.27.12c.09.07.11.15.23.16s0-.08.08,0,.2.14.28.27a.22.22,0,0,1,.25.12c.06,0,0-.09,0-.08a.63.63,0,0,1,.29.24s.1,0,.14,0-.06.06,0,.07,0-.08.07-.12.09,0,.15,0,.15.06.23.09.14.12.22.15.13,0,.19,0,0,.13.11.17,0-.06.07,0a1.7,1.7,0,0,0,.64.33c-.32-.08-.38-.33-.66-.4,0-.08-.12,0-.07-.14s0,.09-.06.05,0,0,0-.06,0-.08.07-.15c-.16-.13-.32-.2-.47-.32s0,0,0,0-.1-.08-.18-.11,0-.14.09-.19c.19.17.54.28.78.46.07.06.09.18.21.12-.13-.06-.13-.22-.21-.31s-.3-.12-.4-.24,0-.07,0-.09-.09,0-.12,0,0-.06,0-.08-.12,0-.18-.07-.13-.2-.24-.27.06-.09.09-.08l.26.21s0,0,0-.06,0,.06.08,0,0-.17.08-.19c.2.2.51.38.66.57,0,0,.09,0,.13,0,.24.13.44.36.68.51a2.42,2.42,0,0,0-.8-.67s0,0,0-.07a4,4,0,0,1-.4-.26l0-.29c-.34-.21-.36-.64-.65-.88,0,0,0-.07,0-.11s.1,0,.16,0,.11,0,.13.12c.35.08.62.46,1,.65a.25.25,0,0,0,.13-.2c-.11-.16-.33-.18-.41-.39.08-.21.23-.28.36-.18a4.88,4.88,0,0,1,.65.58c.67.4,1.21.92,1.87,1.35a11,11,0,0,1-.93-.79s0,0-.07,0a5.21,5.21,0,0,0-.9-.7c0-.19-.33-.24-.36-.44a.42.42,0,0,1,.46-.07,2.67,2.67,0,0,1-.28-.32c-.07-.08-.24-.14-.26-.21s0,0,0,0-.07,0-.07,0-.06,0-.11,0a.16.16,0,0,1-.07-.14c-.2-.21-.46-.35-.66-.57l-.07-.06s0,0,0-.07,0,0,0,0a2.13,2.13,0,0,0-.26-.26c-.23-.18-.45-.43-.64-.58,0,0,.06,0,0-.09-.28-.29-.59-.6-.9-.89,0,0,.05-.07,0-.09s-.08,0-.12,0a.28.28,0,0,1,0-.13,7.73,7.73,0,0,0-1.18-.94c-.39-.29-.75-.6-1.11-.88a5.18,5.18,0,0,1-.8-.63c-.36-.23-.64-.47-1-.72a7.42,7.42,0,0,0-.65-.54s-.1,0-.14-.05-.07-.14-.13-.19-.35-.2-.5-.33l-.48-.44a2.69,2.69,0,0,0-.32-.19c-.06,0-.1-.14-.16-.2s-.42-.24-.58-.4a2.59,2.59,0,0,0-.68-.59,4.36,4.36,0,0,0-.8-.69c-.1-.28-.4-.34-.6-.55,0,0,0-.06,0-.09-.27-.36-.77-.53-1-.84-.16,0-.18-.17-.26-.26s-.23-.14-.33-.22,0-.08-.07-.11a1.66,1.66,0,0,0-.34-.22c-.18-.13-.26-.39-.51-.48a1.06,1.06,0,0,0-.49-.49c-.19-.35-.58-.47-.83-.76-.09-.1-.12-.25-.27-.26,0-.17-.2-.23-.32-.34s-.21-.26-.32-.39-.44-.31-.45-.58c.2-.37-.31,0-.41-.19s.06-.21.12-.35-.11-.14-.2-.17S75.8,68.13,75.69,68ZM91.47,87.1a0,0,0,0,0,0,0C91.37,87.18,91.41,87.05,91.47,87.1Zm0,0c.09.07.27.11.29.22s0-.09.1-.09a.26.26,0,0,0,.09.19c-.09.11-.16-.06-.25,0s-.06-.07-.13,0c-.07-.12-.15-.07-.2-.18S91.44,87.16,91.51,87.09Z"/><rect class="cls-1" x="91.15" y="67.95" width="7.37" height="21.76"/><path class="cls-2" d="M91.78,72.37a.05.05,0,0,1,0-.05S91.82,72.36,91.78,72.37Z"/><path class="cls-2" d="M96.78,71.51s-.07-.07,0-.07S96.78,71.49,96.78,71.51Z"/><path class="cls-2" d="M96.89,71.41s0,0,0-.06S96.91,71.4,96.89,71.41Z"/><path class="cls-2" d="M96.13,71.15s0-.05,0-.07S96.12,71.13,96.13,71.15Z"/><path class="cls-2" d="M96.93,71a.1.1,0,0,1-.05-.12C96.93,70.93,96.92,71,96.93,71Z"/><path class="cls-2" d="M93,70.7c0-.06-.07-.18,0-.22S93,70.63,93,70.7Z"/><path class="cls-2" d="M94.72,70.54c-.11-.07,0-.2-.06-.29.09,0,0,.13.08.16a.07.07,0,0,1,0,0S94.77,70.51,94.72,70.54Z"/><path class="cls-2" d="M95,69.65s-.08,0-.07,0H95Z"/><path class="cls-2" d="M94.37,69.29a.19.19,0,0,1,0-.27s0,0,0,0,0-.14,0,0S94.33,69.16,94.37,69.29Z"/><path class="cls-2" d="M95.27,69.24s0,0,0-.07S95.29,69.23,95.27,69.24Z"/><path class="cls-2" d="M92.92,69.15s0-.06,0-.08S93,69.13,92.92,69.15Z"/><path class="cls-2" d="M95,69.17s0-.08-.07-.1S95,69.13,95,69.17Z"/><path class="cls-2" d="M95.22,69.13s0-.08,0-.12S95.21,69.09,95.22,69.13Z"/><path class="cls-2" d="M92.49,69.06c-.06,0,0,0-.07-.07S92.47,69,92.49,69.06Z"/><path class="cls-2" d="M92.92,69s0-.14,0-.19A.21.21,0,0,1,92.92,69Z"/><path class="cls-2" d="M95.18,69c-.09,0,0-.12,0-.16S95.13,68.94,95.18,69Z"/><path class="cls-2" d="M94.34,68.87a.14.14,0,0,1,0-.08C94.36,68.79,94.33,68.84,94.34,68.87Z"/><path class="cls-2" d="M94.52,68.79s0-.05,0-.08S94.51,68.76,94.52,68.79Z"/><path class="cls-2" d="M94.74,68.7s-.06-.08,0-.06,0,0-.06,0S94.76,68.68,94.74,68.7Z"/><path class="cls-2" d="M93.36,68.5c.08,0,0,.13,0,0Z"/><path class="cls-2" d="M92.7,68.4a.13.13,0,0,1,0-.12A.11.11,0,0,1,92.7,68.4Z"/><path class="cls-2" d="M92.6,68.37c-.06,0-.06-.06,0-.05Z"/><path class="cls-2" d="M91.65,68.28a.05.05,0,0,1,0-.07S91.67,68.27,91.65,68.28Z"/><path class="cls-2" d="M91.73,68c-.08-.08,0-.11,0,0Z"/><path class="cls-2" d="M91.7,70.15s0,0-.07-.05,0-.08,0-.12S91.65,70.08,91.7,70.15Z"/><path class="cls-2" d="M93.24,69.09s0,0,0,0h.06s0-.07,0-.11h0c-.1,0,.06-.12,0-.23.1.11,0,.35,0,.44s0-.1-.08-.11S93.33,69.11,93.24,69.09Z"/><path class="cls-2" d="M94.94,69h0s0,0,0,0S95,69.08,94.94,69Z"/><path class="cls-2" d="M94.74,68.29h.08c0-.06,0-.16,0-.2s-.07.22,0,.27,0,0,0,0c.12.17,0,.35.07.52-.19-.07.07-.25-.13-.34,0,0,0,0,0,0S94.86,68.39,94.74,68.29Z"/><path class="cls-2" d="M92.45,68.35l-.07-.06S92.5,68.33,92.45,68.35Z"/><path class="cls-2" d="M91.15,87.3s.06.09.06.14-.07.19,0,.3.12.18.15.28,0,.09.06.14,0,.25.22.31.19.23.31.31a.11.11,0,0,1,0,0c.29.22.76.35,1,.61a3.39,3.39,0,0,1,.39.08c.06,0,.1.07.16.08a3.26,3.26,0,0,1,.68.1c.06,0,.07,0,.11,0,.45,0,.82,0,1.17,0,.2-.06.44,0,.64-.1a3.45,3.45,0,0,0,.34-.14l.37-.13c.14,0,.16-.06.28-.08s.2-.13.28-.2a.42.42,0,0,1,.12,0c.23-.15.52-.31.61-.53,0,0,0-.06,0-.08a.51.51,0,0,1,.22-.49s0,0,0-.06.25-.1.24-.18-.12-.07-.14-.12.13-.16.1-.24-.11-.07-.13-.1a.45.45,0,0,1,0-.36c0-.06.12-.09.1-.13s-.11-.08-.25-.07c-.3-.12-.07-.44-.2-.62.11-.14-.07-.27,0-.4s0-.06,0-.09-.06-.1-.08-.16a1.6,1.6,0,0,0-.08-.26c.18-.13,0-.22,0-.33s.06-.07.06-.12-.05-.07-.05-.11.06-.09.06-.13,0,0,0-.07.05,0,0-.09-.08-.07-.08-.1,0-.27-.09-.39c.11-.22-.07-.41,0-.67,0-.07-.06-.12,0-.18s0,0,0,0-.1-.28,0-.42l0,0a.68.68,0,0,0,0-.59c.09-.11,0-.25,0-.39s0-.14,0-.2a2.84,2.84,0,0,1,0-.41s-.06-.07-.07-.11,0-.13,0-.19a2.13,2.13,0,0,1,0-.79c0-.07-.06-.13-.08-.21s.06-.27,0-.4,0-.06,0-.09a1,1,0,0,1,0-.24c0-.2-.11-.41,0-.6a2.54,2.54,0,0,1-.1-.88c-.1-.06,0-.12,0-.19a1.28,1.28,0,0,1-.07-.67c-.18-.89-.1-1.82-.3-2.71.08-.07,0-.17,0-.23s0-.06.06-.09,0-.25,0-.39,0-.12-.12-.17c.06,0,0,0,.09,0-.21-.09-.11-.39-.17-.53h0s0,0,0-.09c0-.25-.23-.42-.31-.64,0,0,.12-.09,0-.12s0,.09-.09.09a.16.16,0,0,0-.08-.19c0-.08,0-.12,0-.19s-.09,0-.08,0,0-.17,0-.27-.11-.14-.06-.18-.07,0-.09,0-.07-.18,0-.26-.09,0-.1-.07.08,0,0,0-.08,0-.14,0-.08,0-.13-.06,0-.1-.08-.16,0-.12,0-.18-.08-.07-.08-.12.07-.08.06-.13-.07,0-.07,0a.79.79,0,0,0-.16-.48c.15.2,0,.34.12.51-.08,0,.05.08-.06.11,0,0,.08,0,.08,0s0,0,0,0-.09,0-.16,0,0,.26,0,.39.06,0,.08,0a.68.68,0,0,0,0,.14c-.07,0-.1.06-.2,0s-.13-.41-.14-.61.06-.13,0-.16-.09.16-.1.24.1.22.07.32,0,0,0,.06.06.06,0,.08,0,0,0,0,.07.07.07.12-.07.16,0,.25-.11,0-.12,0a1.62,1.62,0,0,0,0-.22.06.06,0,0,1-.06,0s0,0,0-.06-.14.07-.2,0a3.81,3.81,0,0,1,0-.59s-.09,0-.1-.06,0-.39,0-.58a1.22,1.22,0,0,0,0,.71s-.06,0,0,0a1,1,0,0,1,0,.32,1.33,1.33,0,0,1-.24.11c.07.27-.25.47-.25.73l-.11,0a.84.84,0,0,1-.14-.06s0-.08,0-.12c-.16-.22,0-.53-.14-.8a.39.39,0,0,0-.24,0c0,.13.08.25,0,.39s-.36,0-.37-.11a2.27,2.27,0,0,1,0-.6c-.12-.52-.07-1-.17-1.56,0,.29.07.57,0,.83q.06,0,.06,0a2,2,0,0,0,0,.78c-.13.09,0,.28-.11.37a.38.38,0,0,1-.35-.2c0,.1-.06.2-.07.28s0,.2,0,.23-.06,0-.06,0,0,0,0,.06,0,0,0,.07,0,.06-.06.1c0,.2,0,.39,0,.59,0,0,0,.07,0,.07s0,0,0,0,0,0,0,0a1.75,1.75,0,0,0,0,.24c0,.2,0,.43,0,.59s-.07,0-.07,0a7.51,7.51,0,0,0-.1.86s-.09,0-.07,0,.07,0,.06.07l-.09.06a4,4,0,0,0,0,1c0,.32,0,.65,0,1a2.72,2.72,0,0,1,0,.69,4.55,4.55,0,0,1,.06.81,3.65,3.65,0,0,0,0,.58s0,.06,0,.1-.06.1-.06.15.07.27.07.41l0,.44c0,.08.06.16.06.25s0,.11,0,.17.08.32.07.47a1.09,1.09,0,0,0,0,.62,2.18,2.18,0,0,0,0,.72c-.14.17,0,.36,0,.56,0,0,0,0,0,.05-.11.3.08.64,0,.88.09.09,0,.17,0,.26s0,.18,0,.26,0,.06,0,.09,0,.18,0,.27-.13.31,0,.48a.52.52,0,0,0-.06.47c-.13.25,0,.51,0,.77,0,.08-.11.16,0,.25-.1.09,0,.2,0,.31s-.07.23-.09.34,0,.37-.15.49c-.41.06.19.17.11.3s-.2.06-.35.09,0,.12,0,.18S91.15,87.21,91.15,87.3Zm4.41-16.58s0,0,0,0S95.55,70.78,95.56,70.72Zm0,0c0-.08-.09-.19,0-.24s-.11,0-.13,0a.17.17,0,0,0,.08-.14c.15,0,.06.12.19.12s0,.07,0,.09,0,.11,0,.18S95.62,70.71,95.52,70.7Z"/><rect class="cls-1" x="70.62" y="19.69" width="25.42" height="7.37"/><path class="cls-2" d="M75.8,26.42a.08.08,0,0,1-.07,0C75.74,26.41,75.77,26.38,75.8,26.42Z"/><path class="cls-2" d="M74.78,21.43s-.08.06-.07,0S74.76,21.42,74.78,21.43Z"/><path class="cls-2" d="M74.67,21.32s0,0-.07,0S74.66,21.29,74.67,21.32Z"/><path class="cls-2" d="M74.36,22.08s-.06,0-.08,0S74.34,22.09,74.36,22.08Z"/><path class="cls-2" d="M74.22,21.28a.12.12,0,0,1-.13,0C74.11,21.27,74.17,21.29,74.22,21.28Z"/><path class="cls-2" d="M73.83,25.2c-.06,0-.2.08-.25,0S73.76,25.16,73.83,25.2Z"/><path class="cls-2" d="M73.65,23.49c-.08.1-.23,0-.34.05,0-.09.16,0,.19-.08l.06,0S73.62,23.43,73.65,23.49Z"/><path class="cls-2" d="M72.62,23.22c0,.05,0,.08,0,.07s0,0,0-.07Z"/><path class="cls-2" d="M72.19,23.84a.26.26,0,0,1-.31,0s0,0,0,0-.16,0,0,0S72,23.87,72.19,23.84Z"/><path class="cls-2" d="M72.13,22.93a.07.07,0,0,1-.07,0S72.12,22.91,72.13,22.93Z"/><path class="cls-2" d="M72,25.29s-.07,0-.1,0S72,25.25,72,25.29Z"/><path class="cls-2" d="M72.05,23.24s-.09,0-.12.06S72,23.24,72.05,23.24Z"/><path class="cls-2" d="M72,23c0,.06-.08,0-.13.05S72,23,72,23Z"/><path class="cls-2" d="M71.92,25.71c0,.07,0,.06-.08.07S71.9,25.74,71.92,25.71Z"/><path class="cls-2" d="M71.87,25.28s-.16,0-.22,0A.34.34,0,0,1,71.87,25.28Z"/><path class="cls-2" d="M71.85,23c-.06.08-.14,0-.19,0S71.79,23.08,71.85,23Z"/><path class="cls-2" d="M71.7,23.87s-.06,0-.09.05S71.66,23.87,71.7,23.87Z"/><path class="cls-2" d="M71.6,23.68c0,.05,0,0-.09,0S71.58,23.69,71.6,23.68Z"/><path class="cls-2" d="M71.51,23.46c0,.05-.1.06-.08,0s0,0,0,.06S71.48,23.45,71.51,23.46Z"/><path class="cls-2" d="M71.27,24.84c.06-.07.15,0,0,0Z"/><path class="cls-2" d="M71.15,25.5a.12.12,0,0,1-.14,0A.23.23,0,0,1,71.15,25.5Z"/><path class="cls-2" d="M71.12,25.61c0,.05-.08.05-.06,0Z"/><path class="cls-2" d="M71,26.56a.06.06,0,0,1-.08,0S71,26.54,71,26.56Z"/><path class="cls-2" d="M70.7,26.47c-.09.08-.12,0,0,0Z"/><path class="cls-2" d="M73.19,26.51s0,0,0,.07-.1,0-.15,0S73.11,26.56,73.19,26.51Z"/><path class="cls-2" d="M72,25s0,0-.06,0,0,0,0-.05-.08,0-.13,0a.11.11,0,0,0,0-.06c-.06.1-.13-.05-.26,0,.12-.1.4,0,.51,0s-.11,0-.12.09S72,24.88,72,25Z"/><path class="cls-2" d="M71.84,23.26a0,0,0,0,0,0,0s0,0,0,0S72,23.26,71.84,23.26Z"/><path class="cls-2" d="M71,23.46v-.07c-.07,0-.18,0-.23-.05s.26.08.32,0l.06,0c.19-.11.4,0,.61-.06-.1.19-.3-.07-.41.12,0,0,0,0,0,0A.48.48,0,0,0,71,23.46Z"/><path class="cls-2" d="M71.09,25.75s0,0-.06.07S71.07,25.7,71.09,25.75Z"/><path class="cls-2" d="M93.24,27.06c.05,0,.1-.07.15-.07s.23.07.36,0a3.13,3.13,0,0,1,.32-.15.67.67,0,0,0,.17-.07c.16-.06.29,0,.37-.21s.25-.2.35-.31.05,0,.06,0c.26-.28.41-.75.71-1,0-.1,0-.26.1-.39s.07-.1.09-.16c.06-.22,0-.51.12-.68S96,24,96,24c0-.44,0-.82,0-1.17s-.06-.44-.13-.63a2.21,2.21,0,0,0-.16-.35c0-.13-.11-.23-.16-.37s-.07-.16-.08-.27-.15-.2-.24-.28a.5.5,0,0,1,0-.13,1.69,1.69,0,0,0-.62-.6l-.1,0a.63.63,0,0,1-.57-.22s0,0-.07,0-.12-.25-.2-.25-.09.12-.15.14-.19-.12-.28-.1-.08.11-.12.14a.6.6,0,0,1-.42,0c-.07,0-.1-.11-.15-.1s-.09.11-.08.25c-.15.31-.51.07-.73.2-.16-.11-.31.08-.46.06s-.07-.05-.1,0-.12.06-.19.08a2.05,2.05,0,0,0-.31.07c-.15-.18-.26,0-.38,0s-.09-.06-.14-.06-.09.06-.14.05-.09-.06-.14-.06-.06,0-.09,0-.06,0-.1,0-.08.08-.12.09-.31,0-.45.09c-.26-.12-.49.06-.79-.06-.08,0-.13.07-.21,0s0,.06,0,.05-.32.1-.48,0l0,.05a.84.84,0,0,0-.68,0c-.14-.09-.3,0-.47,0s-.15-.05-.23,0-.33,0-.47,0-.09.06-.13.06-.15,0-.23,0a2.88,2.88,0,0,1-.92,0,1.27,1.27,0,0,0-.24.07c-.16,0-.31-.06-.47,0s-.07,0-.11.05-.18,0-.28,0a1.79,1.79,0,0,1-.69,0,3.47,3.47,0,0,1-1,.1c-.08.09-.15,0-.23,0a1.88,1.88,0,0,1-.78.08c-1,.17-2.13.09-3.16.29a.24.24,0,0,0-.28,0s-.06,0-.1,0-.29,0-.45,0-.14,0-.2.12c0-.07,0-.06,0-.09-.11.21-.46.11-.63.17a0,0,0,1,1,0,0c0-.05,0,.05-.1.05-.29,0-.49.23-.74.31,0,0-.12-.12-.15,0s.11,0,.1.09a.2.2,0,0,0-.22.08c-.09,0-.14,0-.22,0s0,.09,0,.09-.19,0-.31,0a.15.15,0,0,1-.21.06s0,.07,0,.09a.39.39,0,0,1-.3,0s0,.1-.08.11,0-.08,0-.06,0,.09,0,.15,0,.07-.07.12-.12.05-.19.08-.14,0-.21,0-.08.08-.14.08-.1-.06-.16-.06,0,.07,0,.07a1.11,1.11,0,0,0-.55.16c.23-.14.39,0,.59-.12,0,.08.1-.05.13.06,0-.05,0-.08,0-.07s0,0,0,0,0,.1,0,.16c.17,0,.31-.05.46-.05s0,0,0-.07.1,0,.17,0,.06.11,0,.2c-.2,0-.48.13-.71.15-.08,0-.15-.07-.19,0s.19.1.28.11.25-.1.37-.08.05,0,.08,0,.06,0,.09,0,0,0,0,0,.09-.07.15-.06.18.07.28,0,0,.12,0,.13a1.24,1.24,0,0,0-.27,0s0,0,0,0,0,0-.07,0,.08.13,0,.2c-.23,0-.51,0-.7,0,0,0,0,.09-.07.11-.21,0-.45,0-.67,0a1.56,1.56,0,0,0,.83,0s0,.07,0,.06a2,2,0,0,1,.38-.06c0,.08.08.16.13.24.31-.06.54.25.84.25,0,.06,0,.07,0,.11s0,.11-.07.14-.1,0-.15,0c-.25.16-.61,0-.93.14a.26.26,0,0,0,0,.23c.15.05.29-.07.45,0s0,.36-.13.37a3,3,0,0,1-.69,0c-.61.13-1.21.08-1.83.17a7.79,7.79,0,0,1,1,0s0-.06,0-.05a3,3,0,0,0,.91-.05c.11.13.32,0,.44.11a.42.42,0,0,1-.24.35.88.88,0,0,1,.33.07c.08,0,.22-.06.26,0s0,.05,0,.05H74s0,0,.09,0,.07,0,.11,0c.24,0,.46,0,.7,0H75s0,0,0,.06,0,0,0,0a1,1,0,0,0,.29,0c.23,0,.5,0,.68,0s0,.08,0,.08c.32,0,.66.07,1,.09,0,0,0,.09,0,.08s0-.08.07-.07a.22.22,0,0,1,.07.09,4.49,4.49,0,0,0,1.21,0l1.11,0a3.75,3.75,0,0,1,.81,0,6.35,6.35,0,0,1,.95-.07,5,5,0,0,0,.68,0s.07-.05.11-.05.12.07.18.07.32-.08.47-.07l.52,0c.1,0,.2-.06.29-.06s.13.05.2,0a5.62,5.62,0,0,1,.56-.06,1.55,1.55,0,0,0,.71,0,3,3,0,0,0,.85,0c.2.14.42,0,.65,0,0,0,0,0,.06,0,.36.11.75-.09,1,0,.11-.1.2,0,.3,0s.21,0,.31,0,.07,0,.1,0a1.8,1.8,0,0,0,.32-.06c.17,0,.36.14.56,0a.66.66,0,0,0,.55.06c.29.14.59,0,.89,0,.11,0,.2.12.3,0,.11.1.24,0,.37.05l.39.09c.19,0,.43,0,.58.15.06.41.19-.19.34-.11s.07.2.11.35.14,0,.21,0S93.13,27.06,93.24,27.06ZM73.87,22.65s0,0,0,0S73.93,22.65,73.87,22.65Zm0,0c-.09,0-.22.09-.28,0s0,.1,0,.12a.2.2,0,0,0-.15-.08c0-.15.13-.06.13-.19s.08,0,.1,0,.13,0,.21,0S73.85,22.59,73.84,22.68Z"/><path class="cls-1" d="M79.86,2A46.54,46.54,0,0,0,89.7,30.37a48.37,48.37,0,0,0,11.14,10.37,45.75,45.75,0,0,0,13.93,6.2A45.69,45.69,0,0,0,130,48.34a47.33,47.33,0,0,0,14.81-3.65,48,48,0,0,0,12.83-8.22,48,48,0,0,0,9.49-11.93L160.64,21a40.65,40.65,0,0,1-8,10,40.39,40.39,0,0,1-10.8,6.93A40,40,0,0,1,129.39,41a39.26,39.26,0,0,1-24.47-6.39,41,41,0,0,1-9.41-8.75l-1-1.29a12,12,0,0,1-.92-1.32L92,20.48l-1.41-2.9c-.46-1-.76-2-1.15-3A40.76,40.76,0,0,1,87.22,2Z"/><path class="cls-2" d="M146.45,36.32a1.21,1.21,0,0,1,.22-.17C146.67,36.21,146.55,36.31,146.45,36.32Z"/><path class="cls-2" d="M152.88,38c.07-.07.28-.28.31-.19A2,2,0,0,1,152.88,38Z"/><path class="cls-2" d="M153.36,37.84c0-.05.2-.16.28-.23S153.43,37.82,153.36,37.84Z"/><path class="cls-2" d="M154,36.36a.67.67,0,0,1,.26-.24C154.3,36.17,154.1,36.28,154,36.36Z"/><path class="cls-2" d="M155,36.56a1.86,1.86,0,0,1,.45-.44C155.44,36.23,155.2,36.41,155,36.56Z"/><path class="cls-2" d="M153.79,32.48a4.14,4.14,0,0,1,.79-.74C154.29,31.94,154.05,32.29,153.79,32.48Z"/><path class="cls-2" d="M155.52,33.2c.2-.33.76-.71,1.06-1.09.11,0-.5.49-.55.64l-.24.17C155.7,33,155.65,33.15,155.52,33.2Z"/><path class="cls-2" d="M158.91,30.09s0-.07.05-.16a.06.06,0,0,1,.08,0Z"/><path class="cls-2" d="M159.64,28.22a5.27,5.27,0,0,1,.82-1.09s0-.06.06-.14.43-.58.15-.18A14,14,0,0,1,159.64,28.22Z"/><path class="cls-2" d="M160.49,28.6a.79.79,0,0,1,.19-.29A.67.67,0,0,1,160.49,28.6Z"/><path class="cls-2" d="M158.91,26.8c0-.07.19-.23.26-.34A.94.94,0,0,1,158.91,26.8Z"/><path class="cls-2" d="M160.48,28.13a5,5,0,0,1,.29-.47C160.91,27.6,160.59,28,160.48,28.13Z"/><path class="cls-2" d="M160.83,28.1c0-.11.21-.32.32-.5A2.74,2.74,0,0,1,160.83,28.1Z"/><path class="cls-2" d="M158.85,26.19c0-.05.07-.19.14-.31C159,25.94,158.9,26.08,158.85,26.19Z"/><path class="cls-2" d="M159.32,26.28a5.66,5.66,0,0,1,.51-.78A5.21,5.21,0,0,1,159.32,26.28Z"/><path class="cls-2" d="M161.2,27.52a2.62,2.62,0,0,1,.48-.7C161.58,27,161.32,27.27,161.2,27.52Z"/><path class="cls-2" d="M160.9,26.49a1.46,1.46,0,0,1,.18-.35C161.16,26.16,161,26.35,160.9,26.49Z"/><path class="cls-2" d="M161.29,26.25a.82.82,0,0,1,.21-.33S161.35,26.15,161.29,26.25Z"/><path class="cls-2" d="M161.71,26c0-.07.2-.37.23-.25s-.07.06-.1,0S161.8,25.92,161.71,26Z"/><path class="cls-2" d="M161.15,24.43c-.08.23-.4.5,0,0Z"/><path class="cls-2" d="M160.85,23.63a2.69,2.69,0,0,1,.31-.53A2.85,2.85,0,0,1,160.85,23.63Z"/><path class="cls-2" d="M160.84,23.45c-.08,0,.11-.29.12-.2Z"/><path class="cls-2" d="M160.25,22.58a.7.7,0,0,1,.14-.29C160.41,22.34,160.3,22.54,160.25,22.58Z"/><path class="cls-2" d="M161,21.53c.13-.36.27-.43,0,0Z"/><path class="cls-2" d="M154.82,29.68a.76.76,0,0,0,.11-.22c.15-.05.27-.28.43-.4C155.26,29.28,155,29.4,154.82,29.68Z"/><path class="cls-2" d="M159.37,26.76c.06-.09.09-.06.16-.18s0,.06,0,.08a4.78,4.78,0,0,0,.31-.48.11.11,0,0,0,0,.08c.07-.28.38-.45.66-.93a12.14,12.14,0,0,1-1.24,1.8c0-.09.3-.37.26-.46S159.38,26.87,159.37,26.76Z"/><path class="cls-2" d="M161,27.36s0,0,0,0,.12-.18.14-.2S160.77,27.75,161,27.36Z"/><path class="cls-2" d="M162.88,24.22l.06,0a4.75,4.75,0,0,1,.57-.86,9.55,9.55,0,0,0-.7,1.25c-.05,0-.11.14-.16.18a23.77,23.77,0,0,1-1.47,2.28c.08-.44.82-1,.92-1.53.05-.06,0,0,0,.05A5.72,5.72,0,0,0,162.88,24.22Z"/><path class="cls-2" d="M160.77,23.28c0-.07.07-.19.09-.27S160.86,23.23,160.77,23.28Z"/><path class="cls-2" d="M88.9,13.16c-.05-.2-.17-.39-.22-.6-.13-.48-.17-.92-.33-1.4s-.34-.79-.48-1.23l-.17-.66a4.54,4.54,0,0,0-.44-1.45c-.2-.45-.36-1-.54-1.43a1.56,1.56,0,0,1,0-.22,19,19,0,0,1-1.12-2.91,1.88,1.88,0,0,1-.42-.4c-.06-.09-.11-.31-.18-.38-.23-.26-.51,0-.7-.53-.06,0-.07.07-.11.09-.44,0-.81.19-1.16.07-.19.35-.43.28-.61.56a6.61,6.61,0,0,0-.31.74c-.12.26-.21.53-.33.75-.14,0-.15.34-.26.41-.06.4-.16.72-.22,1.14,0,0-.06.14-.12.15a9.61,9.61,0,0,0-.22,3c0,.11,0,.34,0,.47a23,23,0,0,1,.28,2.74c0,.15.07.14.1.3a2,2,0,0,0,0,1c0,.14.21.35.31.65s.11.91.24,1.31a3.56,3.56,0,0,0,.3.53,13.65,13.65,0,0,1,.68,1.9,6.15,6.15,0,0,0,.16.72c.1.22.25.35.37.28a6,6,0,0,1,.74,1.41A14.14,14.14,0,0,0,85,21.84a16.55,16.55,0,0,0,1,2c.08.13.13.3.21.42s.36.47.54.74c.32.44.56.86.84,1.22a5.3,5.3,0,0,0,1,1.5c.13.18.21.38.36.58s.28.29.42.48.22.4.36.58.2.21.28.31a3.34,3.34,0,0,0,.25.4c.12.15.29.27.41.42A7.92,7.92,0,0,0,92.11,32a13.57,13.57,0,0,0,1.17,1.33l1.34,1.41a4.6,4.6,0,0,1,.76.65c.07,0,.1,0,.19.1.52.55,1.2,1,1.73,1.53l.11,0A17.14,17.14,0,0,0,100,39a5.59,5.59,0,0,0,.82.65c.3.2.66.37,1,.58s.61.43.92.59c.6.33,1.35.84,1.92,1.16.18.08.38.12.56.2s.63.35,1,.48c1.33.54,2.77,1.35,4,1.73.37.13.7.19,1.11.32.69.2,1.34.61,2,.75.18,0,.36,0,.53.09.42.09.81.23,1.25.34,1.09.26,2.18.5,3.21.7.67,0,1.49.15,2.33.27.42,0,.85.14,1.27.17l1.22.06a4,4,0,0,1,1,0H126c.63,0,1.28-.06,1.86,0a53.89,53.89,0,0,0,7.33-1,38.62,38.62,0,0,0,7-2.19,4.2,4.2,0,0,0,1.19-.49,1.44,1.44,0,0,0,.45-.11,19.91,19.91,0,0,1,1.9-.93c.13-.19.58-.3.8-.5.13,0-.12.13.08.06a17.12,17.12,0,0,1,2.45-1.53s-.07,0,0,0,.2-.18.37-.29a23.38,23.38,0,0,0,2.7-2.15c.13-.06.49-.21.56-.35-.18.11-.39.27-.42.19a3.28,3.28,0,0,0,.77-.67,3.68,3.68,0,0,0,.79-.64c.07-.05-.12,0,0-.13.48-.35.66-.6,1.09-.9a2.64,2.64,0,0,1,.7-.67c.11-.13-.19.07-.09,0a9.51,9.51,0,0,1,1-.93,1,1,0,0,1,.18-.32c.09-.09,0,.08.15-.07s-.15,0-.17,0c.15-.18.09-.18.14-.3a2.84,2.84,0,0,0,.56-.65c.2-.24.45-.48.63-.71a4.45,4.45,0,0,1,.38-.54c.16-.17.34-.28.51-.47s-.11,0,0-.13a11.58,11.58,0,0,0,1.47-2,24.87,24.87,0,0,1-1.63,2.14c-.15.05-.24.34-.41.36,0,.08.16-.05,0,.09s-.09.05-.15.13c0-.16-.12,0-.22,0a17.12,17.12,0,0,1-1.37,1.5c-.08.1.1,0,0,.09s-.33.31-.53.54c-.11,0-.28.12-.26,0A30.1,30.1,0,0,0,158,31.07c.21-.24.49-.44.54-.65a12.26,12.26,0,0,1-.94.87,12.58,12.58,0,0,1-1.08,1.21c-.11.1-.18.12-.28.21s-.16.23-.25.31-.13.06-.2.14-.24.33-.42.5-.66.49-1,.8c-.09,0-.11-.05,0-.13a10.68,10.68,0,0,0,.88-.78s-.09.05-.11,0,.19-.14.24-.25c-.29.29-.36.16-.3,0,.73-.69,1.63-1.54,2.2-2.14a.74.74,0,0,1,.12-.29c.6-.72,1.35-1.44,1.92-2.27-.77.84-1.55,1.73-2.41,2.74,0,0,0,0-.13.06-.35.44-.85.88-1.15,1.19l-.57.22A7.25,7.25,0,0,1,153.57,34c-.5.32-1,.64-1.5,1,0,0-.12,0-.18,0a2.79,2.79,0,0,1,.16-.28,2.83,2.83,0,0,1,.48-.39,14,14,0,0,1,1.4-1.3,21,21,0,0,0,1.5-1.48c.06-.17-.09-.13-.22-.11a18,18,0,0,1-1.43,1.3c-.34,0-.22-.26.15-.64.61-.63,1.74-1.62,2.12-2.05a44.16,44.16,0,0,0,4.63-6.17,31.92,31.92,0,0,1-2.4,3.32s0,.07-.05.15c-.79,1-1.78,2-2.48,2.92-.41.26-1,1-1.41,1.22-.06-.23.16-.57.48-.94-.36.35-.74.63-1,.91a5.76,5.76,0,0,1-.82.75s0-.07-.06,0c.11-.08-.19.17-.21.19a1.28,1.28,0,0,1-.26.26,1.23,1.23,0,0,1-.39.25,24.68,24.68,0,0,1-2.31,1.76l-.26.19c-.08,0,0,0-.14,0s0,.06-.09.12c-.32.21-.71.41-1,.62l-1.27.79c-.43.25-.86.45-1.19.65-.16.07,0-.09-.2,0-1.17.63-2.48,1.16-3.79,1.73-.1,0,0-.07-.19,0s-.11.12-.28.18a.68.68,0,0,1-.28,0c-1.53.55-3.11,1.13-4.73,1.58-.76.18-1.51.41-2.27.54l-2.25.4a27,27,0,0,1-3.33.33l-2,.12-1.94-.08L123,41.82l-.7,0-.63-.08c-.14,0-.31,0-.47,0s-.47-.14-.71-.18c-.64-.1-1.32-.13-2-.23s-1.39-.37-2.09-.55c-.39-.1-.78-.14-1.18-.24s-.51-.18-.78-.25c-.73-.27-1.5-.47-2.18-.74L111,38.94c-.46-.21-.9-.45-1.37-.62-1-.55-2.2-1-3.09-1.62a21.63,21.63,0,0,0-2.3-1.44,1.81,1.81,0,0,1-.21-.18c-1.09-1-2.55-1.75-3.38-2.61a4.55,4.55,0,0,1-.89-.86c-.32-.32-.67-.55-1-.84-.1-.09-.17-.2-.27-.3-.33-.29-.63-.58-1-.92A20.72,20.72,0,0,0,96,27.82c-.41-.49-.87-1.32-1.38-1.83a12,12,0,0,0-1.07-1.5,11.6,11.6,0,0,1-1-1.57,4.39,4.39,0,0,0-.62-1.07c-.13-.44-.5-.83-.7-1.33s-.41-1-.64-1.52a7.11,7.11,0,0,1-.84-2.2c.29-.4-.45-.66-.59-1.29,0-.34.08-.33.18-.52a2.89,2.89,0,0,0-.31-.8C88.93,13.86,89,13.59,88.9,13.16Zm66.49,21.32s0,0,.06,0C155.42,34.61,155.16,34.66,155.39,34.48Zm.05-.1a7.83,7.83,0,0,1,.93-.91c.06-.06-.13,0-.05-.13a2.69,2.69,0,0,0,.56-.42c.12.09-.38.44-.31.56-.18.15-.27.23-.3.35-.38.29-.39.43-.69.65C155.59,34.35,155.49,34.47,155.44,34.38Z"/><path class="cls-1" d="M79.86,2A41,41,0,0,1,77.7,14.58c-.4,1-.7,2-1.16,3l-1.41,2.9-1.67,2.76a12,12,0,0,1-.92,1.32l-1,1.29a41.14,41.14,0,0,1-9.4,8.75,38.43,38.43,0,0,1-11.72,5.22A38.34,38.34,0,0,1,37.69,41a40.09,40.09,0,0,1-12.46-3.06A40.39,40.39,0,0,1,14.43,31a40.65,40.65,0,0,1-8-10L0,24.54A48,48,0,0,0,9.49,36.47a48,48,0,0,0,12.83,8.22,47.4,47.4,0,0,0,14.81,3.65,45.69,45.69,0,0,0,15.18-1.4,45.75,45.75,0,0,0,13.93-6.2A48.37,48.37,0,0,0,77.38,30.37,46.54,46.54,0,0,0,87.22,2Z"/><path class="cls-2" d="M17.56,41.58a.7.7,0,0,1-.29-.13A.46.46,0,0,1,17.56,41.58Z"/><path class="cls-2" d="M16.5,34.9c-.08,0-.32-.16-.25-.21A2.08,2.08,0,0,1,16.5,34.9Z"/><path class="cls-2" d="M16.2,34.54c-.05,0-.19-.13-.28-.18S16.16,34.48,16.2,34.54Z"/><path class="cls-2" d="M14.68,34.33a.64.64,0,0,1-.27-.2C14.46,34.11,14.6,34.27,14.68,34.33Z"/><path class="cls-2" d="M14.72,33.32a1.31,1.31,0,0,1-.46-.32A2.15,2.15,0,0,1,14.72,33.32Z"/><path class="cls-2" d="M10.85,35.2a4.69,4.69,0,0,1-.84-.82C10.25,34.68,10.63,34.92,10.85,35.2Z"/><path class="cls-2" d="M11.42,33.36c-.35-.18-.75-.73-1.15-1,0-.11.52.48.67.52l.18.23C11.22,33.19,11.35,33.23,11.42,33.36Z"/><path class="cls-2" d="M8.4,29.89s-.07,0-.15-.07a.07.07,0,0,1,0-.08Z"/><path class="cls-2" d="M6.72,28.79a3.79,3.79,0,0,1-.87-1.08s-.07,0-.12-.11-.41-.62-.12-.21S6.27,28.28,6.72,28.79Z"/><path class="cls-2" d="M7.29,28.05a1,1,0,0,1-.24-.25C7.11,27.81,7.27,28,7.29,28.05Z"/><path class="cls-2" d="M5.13,29.12c-.07,0-.2-.25-.3-.35A1.14,1.14,0,0,1,5.13,29.12Z"/><path class="cls-2" d="M6.82,28a4.55,4.55,0,0,1-.39-.38C6.4,27.42,6.7,27.81,6.82,28Z"/><path class="cls-2" d="M6.88,27.62a1.78,1.78,0,0,1-.39-.44C6.59,27.26,6.75,27.49,6.88,27.62Z"/><path class="cls-2" d="M4.48,29c-.06,0-.17-.15-.27-.26C4.28,28.72,4.39,28.9,4.48,29Z"/><path class="cls-2" d="M4.7,28.55a5.78,5.78,0,0,1-.61-.83A6.85,6.85,0,0,1,4.7,28.55Z"/><path class="cls-2" d="M6.44,27.1A2.31,2.31,0,0,1,6,26.43C6.13,26.59,6.25,26.92,6.44,27.1Z"/><path class="cls-2" d="M5.38,27.06a2.9,2.9,0,0,1-.27-.3C5.16,26.69,5.29,26.93,5.38,27.06Z"/><path class="cls-2" d="M5.29,26.6c-.11-.07-.15-.17-.24-.32C5.11,26.29,5.21,26.51,5.29,26.6Z"/><path class="cls-2" d="M5.22,26.12c-.07,0-.28-.31-.16-.3s0,.09,0,.11S5.16,26,5.22,26.12Z"/><path class="cls-2" d="M3.48,26c.2.17.35.58,0,0Z"/><path class="cls-2" d="M2.63,25.89a3,3,0,0,1-.36-.56A3.45,3.45,0,0,1,2.63,25.89Z"/><path class="cls-2" d="M2.46,25.81c0,.1-.22-.26-.13-.22Z"/><path class="cls-2" d="M1.39,25.89a.88.88,0,0,1-.21-.3A.74.74,0,0,1,1.39,25.89Z"/><path class="cls-2" d="M.71,24.58c-.29-.33-.3-.51,0,0Z"/><path class="cls-2" d="M7.78,34.06a1.76,1.76,0,0,0-.23-.15c-.06-.17-.31-.34-.44-.53C7.35,33.52,7.48,33.81,7.78,34.06Z"/><path class="cls-2" d="M5.18,28.66c-.08-.09,0-.1-.13-.21s0,0,.07,0c-.13-.21-.23-.31-.36-.49,0,0,.06,0,.08,0-.25-.18-.31-.54-.69-1,.42.4,1,1.51,1.4,1.87-.1,0-.32-.4-.41-.4S5.3,28.68,5.18,28.66Z"/><path class="cls-2" d="M6.24,27.23c0-.05,0,0,0,0s-.13-.17-.13-.21S6.51,27.6,6.24,27.23Z"/><path class="cls-2" d="M4.05,24.3l.07,0a4.55,4.55,0,0,1-.49-.9c.23.29.53,1,.77,1.2,0,.06.07.16.09.23.53.68,1,1.49,1.57,2.19-.39-.22-.7-1.11-1.12-1.38,0-.07,0,0,0,0A13.22,13.22,0,0,0,4.05,24.3Z"/><path class="cls-2" d="M2.28,25.79c-.07-.05-.15-.17-.23-.24S2.26,25.67,2.28,25.79Z"/><path class="cls-2" d="M85.23,15.29c.06-.23.07-.5.13-.75.15-.56.35-1,.46-1.64s.13-1,.24-1.54a7.64,7.64,0,0,0,.08-.8,5.78,5.78,0,0,0,0-1.78c0-.56,0-1.25,0-1.73a1.61,1.61,0,0,1,0-.26c-.18-1.24-.64-2-.76-3.41A1.84,1.84,0,0,1,85,2.93c-.06-.1-.08-.34-.14-.42-.21-.28-.51,0-.65-.56-.06,0-.08.07-.12.1-.44,0-.83.18-1.17.05-.22.35-.46.27-.66.53s-.26.47-.39.68-.26.47-.4.66c-.13,0-.17.29-.29.34-.1.36-.23.62-.33,1,0,0-.08.12-.13.12a22.91,22.91,0,0,0-.93,2.47c0,.09-.07.28-.09.4a5.53,5.53,0,0,1-.64,2.25c0,.13,0,.14-.06.27a1.55,1.55,0,0,0-.44.75c0,.12,0,.35,0,.61s-.31.71-.38,1.05c0,.16,0,.36,0,.53a9.57,9.57,0,0,1-.62,1.59,3.51,3.51,0,0,0-.3.56c-.06.19,0,.37.11.4a2.66,2.66,0,0,1-.34,1.33,10.67,10.67,0,0,0-.67,1.45,12.38,12.38,0,0,0-.79,1.75c-.07.11-.18.22-.25.33s-.21.46-.33.7c-.22.43-.44.78-.61,1.14-.47.41-.5.92-.8,1.33-.12.15-.28.26-.41.44s-.17.31-.29.46-.29.29-.4.44-.13.22-.2.31-.18.17-.27.31-.15.31-.24.46c-.33.53-.87,1-1.16,1.48a11.36,11.36,0,0,0-1.06,1.14,6.44,6.44,0,0,1-1.2,1.19,3.58,3.58,0,0,1-.63.6c0,.06,0,.09-.11.17-.52.4-.93,1-1.47,1.39a.22.22,0,0,1,0,.1,13.69,13.69,0,0,0-2.28,1.72,4.4,4.4,0,0,0-.75.52,9.48,9.48,0,0,1-.84.58c-.28.17-.58.3-.83.47-.5.35-1.2.72-1.68,1-.15.09-.28.2-.43.28s-.59.25-.87.41A17.49,17.49,0,0,1,55,39.42c-.32.11-.58.27-.93.42a17,17,0,0,1-1.83.6c-.16.05-.3.12-.44.16-.37.12-.73.18-1.12.28a12.65,12.65,0,0,1-2.82.66c-.58.15-1.3.28-2,.4-.38.06-.75.14-1.13.17l-1.09.06a3.13,3.13,0,0,1-.92.08L41,42.41a9.23,9.23,0,0,1-1.67,0,35.27,35.27,0,0,1-6.61-.61,53.34,53.34,0,0,1-6.41-1.69,3.86,3.86,0,0,0-1.1-.4,1.25,1.25,0,0,0-.37-.2,13.26,13.26,0,0,1-1.77-.76c-.2,0-.54-.22-.82-.25-.07-.11.16,0,0-.1a13.61,13.61,0,0,1-2.4-1.12s0,.06,0,0-.23-.08-.39-.18c-1-.66-1.94-.91-2.82-1.5-.1-.1-.33-.39-.48-.4.15.13.35.27.29.33a3,3,0,0,0-.82-.5c-.32-.23-.47-.37-.78-.56-.06,0,0,.13-.13,0-.4-.4-.66-.52-1-.87a2.17,2.17,0,0,1-.75-.54c-.14-.07.1.17,0,.1a6.19,6.19,0,0,1-1-.88,1.12,1.12,0,0,1-.32-.17c-.09-.07.08,0-.06-.13s0,.14,0,.16-.18-.07-.3-.12a3.16,3.16,0,0,0-.66-.51c-.23-.19-.43-.46-.64-.65a4.57,4.57,0,0,1-.49-.42c-.16-.16-.24-.35-.41-.53s0,.11-.13,0c-.63-.63-1.16-1.35-1.67-1.78.75.69,1.06,1.39,1.77,1.95,0,.15.31.25.32.43.07,0,0-.16.09,0a.92.92,0,0,0,.11.15c-.15,0,0,.11,0,.21.51.56.95,1,1.43,1.4.11.07,0-.1.09,0s.32.3.55.48c0,.11.13.27,0,.27C11,32.37,10,31.65,9.3,30.86c-.22-.24-.39-.53-.6-.59a9.49,9.49,0,0,1,.78,1c.35.41.82.74,1.19,1.11.1.1.12.17.22.26s.24.15.32.24.07.12.15.19.33.22.51.4a8.54,8.54,0,0,0,.92.87c0,.08,0,.12-.13.06-.4-.35-.49-.39-.89-.78,0,0,.06.09,0,.11s-.14-.18-.26-.23c.3.28.18.36,0,.31-.71-.74-1.71-1.51-2.22-2.19a.92.92,0,0,1-.28-.16c-.67-.66-1.37-1.47-2-2.25A17.77,17.77,0,0,0,9.52,32c0,.05,0,.06.06.15l1.25,1.14.26.57c.52.48,1,.91,1.38,1.36a13.31,13.31,0,0,0,1.37,1.32s0,.12.05.17a1.37,1.37,0,0,1-.34-.07,3.57,3.57,0,0,1-.5-.42A16.17,16.17,0,0,1,11.43,35c-.55-.48-1.09-1-1.65-1.5-.19-.06-.14.09-.11.23.48.52,1,.88,1.49,1.46.07.32-.26.27-.68-.13a27.36,27.36,0,0,1-2.29-2.28A44.84,44.84,0,0,1,2.81,26.2c.88,1.35,1.78,2.54,2.65,3.69,0,0,.07,0,.14.09a27.38,27.38,0,0,0,2.81,3.15c.26.48,1.11,1,1.4,1.51-.24,0-.62-.18-1.05-.52.41.38.74.79,1.07,1.12s.8.69.93.84-.07,0,0,.07c-.12-.11.23.17.25.19a2.19,2.19,0,0,1,.35.24,1.43,1.43,0,0,1,.35.38c.82.76,1.73,1.33,2.6,2l.29.22c.08.07,0,0,.09.13s.06,0,.15.07a12.09,12.09,0,0,0,1.11.76l1.43.92c.47.3.95.55,1.33.77.17.1-.09,0,.15.16a38.93,38.93,0,0,0,4.23,2.16c.12.05,0,.08.17.14s.18,0,.37.07a.78.78,0,0,1,.25.2,31.76,31.76,0,0,0,5.45,1.73c.88.18,1.75.43,2.63.57l2.58.42c1.34.11,2.62.23,3.82.31l2.29,0,2.21-.12,1.66-.08.8,0,.73-.13c.15,0,.33-.1.51-.12s.56,0,.83-.07c.74-.11,1.48-.3,2.22-.42s1.59-.38,2.39-.57c.45-.11.86-.28,1.3-.4s.62-.11.92-.19c.83-.31,1.65-.7,2.44-1l1.6-.54a12.75,12.75,0,0,0,1.52-.77,22.5,22.5,0,0,0,3.53-1.8A28.45,28.45,0,0,0,66,39.81a2.39,2.39,0,0,0,.28-.13c1.38-.93,2.79-2.14,3.86-3a5.18,5.18,0,0,1,1.07-.93c.39-.32.69-.69,1-1l.37-.28a8.77,8.77,0,0,0,1-1.14,25.67,25.67,0,0,0,1.78-1.9,8.8,8.8,0,0,0,1.67-2,17.47,17.47,0,0,0,1.3-1.65c.42-.57.73-1.22,1.14-1.81a6.17,6.17,0,0,0,.76-1.19,6.7,6.7,0,0,0,.91-1.47l.9-1.66c.41-.81.89-1.83,1.27-2.42.49-.14.15-.93.47-1.58.21-.33.3-.25.5-.35a3.5,3.5,0,0,0,.34-.95C84.81,16,85.11,15.8,85.23,15.29ZM12.66,33.39s0,0,0-.06C12.79,33.33,12.88,33.57,12.66,33.39Zm-.1,0a7.1,7.1,0,0,1-.92-.85c-.06-.06,0,.12-.13,0a2.84,2.84,0,0,0-.43-.52c.09-.12.45.35.56.27.15.16.23.25.35.27.3.35.44.35.65.63C12.52,33.2,12.65,33.3,12.56,33.35Z"/></g></g></svg>