<svg xmlns="http://www.w3.org/2000/svg" width="289" height="484.218" viewBox="0 0 289 484.218">
  <defs>
    <style>
      .cls-1 {
        fill: #cc543a;
        fill-rule: evenodd;
      }
    </style>
  </defs>
  <path id="色彩填色_3" data-name="色彩填色 3" class="cls-1" d="M232,439v2c1.133,0.541,1.676,1.823,2,2,3.641,1.991,4.576-1.1,6,4h2q0.5,2,1,4h1c0.25,1.242-2.4,6.91-3,8h-1v2h-1v3h-1c-1.139,1.139,0,.4-2,1-0.9,3.418-3.176,4.506-5,7h-1v4h-1c-1.376,1.907-2.253,2.316-3,5h1v1h2v1h11v-1h3v-1h2v-1h3c3.927-1.586,10.017-6,17-4v1h3v1h1l1-2h2v-1l15,5a21.507,21.507,0,0,1,2,7c-1.139,1.139-.4,0-1,2h-2l-3,10-3,2q-1,4.5-2,9h-1l-1,4h-1v3h-1v15h1l1,4,2,1c1.036,1.754.932,4.238,1,7l-3,2v1h-2v1l-9,3-1,2h-2l-1,2h-2v1l-3,1a7.816,7.816,0,0,1-2,4h-1v2l-2,1v2l-2,1-7,22v52h-1c-0.822,1.363-2.678,3.5-2,6h1v2h1c1.022,2.75-.26,4.87,1,7l2,1v2h1v7h1v9h1v1h-1v3h1v1h-1v4h-1v3h-1v1h1v1l-2,1v2h-1v2h-1v2h-1v2h-1v2h-1v2l-3,2v3h-1v2h-1v3h-1v4h-1v1h1v1h-1v2h-1v2l-3,2v4l-2,1q-0.5,3-1,6h-1v2h-1v7l-2,1v5c-0.071.3-1.29,0.294-1,2l6,27h1v2h1v2h1v2h1v2h1v2h1v2h1l2,6h1l3,14h1v2h1v3h1q0.5,8,1,16s-1.1.1-1,2h1c0.153,1.2-1.288,1.736-1,4h1v1h-1q0.5,8,1,16c2.974,1.982,2.886,4.9,7,6,0.675,3.292,3.719,8.058,2,13h-1v2h-1q-1,9.5-2,19l-19,18c-1.056,1.037-6,6.624-8,6v-1c-5.347-1.206-18.351-11.325-19-17l7-1v-1h15c1-1.693,4.661-4.294,5-5V860c2.709-2.968.087-11.277,0-15v-8h-1v-5h-1v-3h-1l-3-14h-1v-9h-1l-1-4-11-9q-0.5-3-1-6h-1v-3h-1v-9h-1v-3h-1q-0.5-5-1-10h-1q-0.5-5.5-1-11c-1.273-3.591-5.185-10.307-3-17h1q0.5-3,1-6h1v-2h1q1-5,2-10l2-1v-2h1v-2h1q0.5-2.5,1-5l3-2v-1h2v-1h2c1.5-1.163,2.029-5.064,3-7h1v-3l4-3v-3h1v-5h-1v-8h-1v-2l-3-2-1-4-3-2v-2h-1v-3h-1v-2h-1c-0.432-1.712.939-1.733,1-2v-9h1l-1-3h1c1.358-5.8-.637-7.241,2-12h1v-2c1.028-1.309,2.527-.014,4-1,0.56-.375.885-2.126,2-3-1.1-5.7-3.019-11.837-1-18h1v-5h1v-4h1q0.5-7,1-14h1l1-4h1q1-5.5,2-11l3-2v-2l2-1v-2h1v-2h1v-2h1q1-3.5,2-7h1v-2c1.058-1.386,3.295-1.143,5-2v-1c2.756-1.259,2.992.285,5-2h1v-4h2v-8h-1v-2l-2-1q0.5-1,1-2h-1q0.5-6,1-12h1l-1-3h1v-4c-0.622-.733-1.461.337-1-1l2-1v-2h1l1-3-7-1v1l-4,1-2-3a108.658,108.658,0,0,0-11-2v1h-4v1h-2v1h-2v1c-6.794,3.605-11.888,4.591-21,3l-3-4h-1v-4c-0.143-.267-2.3-1.771-3-3h2v-3h1c1.18-5.076,4.773-7.937,8-11l1-2h2c2.532-1.821,1.932-3.955,6-5v-2h2a10.6,10.6,0,0,0,1-4c-1.832-1.025-4.137-3.293-6-4h-6v-1c-5.653-1.656-14.032,2.809-18,1v2l-3-1-4,5H172v1h-3v1l-4,1v1H152v1h-5v1h-6v1c-2.186.582-8.575-1.572-10-2h-9c-3.343-.988-8.167-2.3-12-3v-3l-21,7v2H87v1l-3,1-3,4-3,1v2c-2.424.675-1.762,0.355-3,2H74l1,5H74l-7,8H65c-1.755,1.45-3.491,9.1-4,12l-5-1-1,8-3,2,1,7H52l-1,6H50v3H49v2H48v13H47v7H46v4H45v4H44v7H43v15l-2,1c-0.128,1.408.417-.288,1,1a28.233,28.233,0,0,0,4,9l2,1v2l3,2c1.567,2.481-.019,5.6,1,9h1v6l6,5v2l2,1v2l2,1v2l2,1,1,4h1l1,4h1v3h1v2h1v5h1v3h1v4h1l1,15h1v4h1v6h1l1,9h1v3h1v3h1v3h1v2c1.636,3.159,3.4,4.289,4,9H86v1c-2.506-1.139-3.8-2.729-6-4v2c1.97,1.781.843,1.945,2,4h1v2l2,1,1,4,4,3v2l7,6v1h2v-1c-1.139-1.139-.4,0-1-2h3l3,4h2l2,3h2l2,3,3,1q0.5,1,1,2h3c3.8,1.6,6.735,3.713,12,4v-4h3v1c4.5,1.165,8.069,6.074,11,9q9.011,9,18,18c3.3,3.306,7.275,4.99,8,11-5.494-.22-6.274-1.189-10-3v-1l-3-1v2c-2.835-.7-2.888-1.783-5-3,0.339,3.955.964,2.907,0,6l-3-1v-1c-1.784-1.424-2.387-2.285-5-3v-2l-3-1-2-3h-2l-4-5-4-1q-0.5-1-1-2h-2q-0.5-1-1-2h-2q-0.5-1-1-2l-4-1q-0.5-1-1-2l-6-2q-0.5-1-1-2l-4-1v-1l-3-1q-0.5-1-1-2l-4-1-1-2-9-8v1l12,13h2l4,5h2l3,4h2l4,5h2l3,4h2l3,4h2q0.5,1,1,2c2.4,2.27,5.566,6.053,9,7v2l4,3v2l9,8v2l5,4v2l3,2v2l2,1,1,3h1l2,6,2,1,7,18q0.5,12.5,1,25c2.388,7.212,9.376,9.456,10,19h-1v1h-1v-1c-2.677-1.6-15.93-14.454-17-17q-2.5-13-5-26h-1l-1-4h-1v-2l-2-1-2-6-3-2v-2l-2-1v-2l-2-1-1-3-3-2v-2l-5-4v-2l-13-12-14-15h-2l-4-5h-2l-4-5H99l-1-2H96L77,748v-2l-4-3v-2l-2-1-1-3H69v-2l-2-1v-2H66v-2H65v-2H64v-2H63v-2l-2-1v-2H60v-2H59v-3H58v-2H57l-2-6H54v-3H53v-2H52l-1-6H50v-2H49l-1-6H47v-3H46v-2H45v-3H44L34,648l-3-2v-2l-3-2v-2l-6-5v-2l-6-5v-2l-4-3v-2l-3-2v-2l-2-1-3-9H3v-2H2v-3l-2-1V571l2-1v-3l2-1v-3H5v-3H6l2-6H9l1-4,2-1,1-3,4-3v-2h1v-2h1v-2h1v-2h1v-2l2-1,1-6,2-1,2-10h1v-3h1v-2h1l5-21,3-1v-2l6-5v-2l2-1,3-4h2l5-6h1v-2l5-1v-1h5v-1h3l1-2h2l3-4h1v-2l5-6h2l1-2h2v-1l4-1v-1l9-1v-1h4v-1c3.585-1.131,26.656.088,29,1v1l6,2v1h2v1h3v1h8c5.439,1.433,18.769,2,29,2h10v-1h2l2-3c1.756-.771,1.543.709,2,1l3-1v-2h2c1.1-2.874,2.218-5.895,5-7h6v-1h2v-1c2.354-.689,2.651,1.052,4,1v-1h1v1c2.093,0.5,4.739-1.065,5-1v1h2v1A8.744,8.744,0,0,0,232,439Z" transform="translate(0 -434.844)"/>
</svg>
