<svg xmlns="http://www.w3.org/2000/svg" width="340" height="667.125" viewBox="0 0 340 667.125">
  <defs>
    <style>
      .cls-1 {
        fill: #cc543a;
        fill-rule: evenodd;
      }
    </style>
  </defs>
  <path id="色彩填色_6" data-name="色彩填色 6" class="cls-1" d="M293,47c3.428,0.871,2.575,2.068,6,3q0.5,2,1,4c-2.809,1.65-4.613,4.972-6,8l-3-1v1h-1c0.789,1.633,2.632,5.155,4,6h3v1c1.759,1.513,1.567.86,2,4h-1v3l-2,1v1h-2l-1,2c-2.314,1.577-4.3,1.918-6,4h-5q-0.5,6-1,12l2,1v2h1v2h1l1,3,6-1a3.982,3.982,0,0,0,2,2q-1,2.5-2,5l-3,1c-1.756,2.256-1.98,5.09-4,7l-4,2-1,5-3,1v1c-2.01-.574-0.865.12-2-1-1.719-1.127-1.355-.633-2-3h-8c-1.382-2.612-1.769-1.693-2-6,2-1.667.876-2.485,2-4l4-2v-1h-1v-6h1q-0.5-3-1-6l-4-3V93h-1l-3-4c-3.356-2.451-5.321-1.481-6-7,1.834-1.194,4.881-6.018,6-8-6.809-3.135-6-.522-13,1v2l-3,1v1l-2,1v2l-2,1-1,3h-2v1h-3l-2-3h-1V81l-2-1V78l-4-3V73l-6-5V61l3-2V58h3V57h2l1-2c2.26-1.373,5.208-1.088,8-2V52l8,1V52h2l1-2h2V49l4-1V47h3l1-2,8-3v1l3,1v1h2v1h5c2.072-3.056,5.093-2.075,8-4l3-4h3c1.584,2.731,2.742,2.446,3,7C293.139,46.139,292.4,45,293,47ZM234,79h2c1.619-6.353,7.669-7.252,13-10V68h2V67h8v1h3v1l3,1q-0.5,2-1,4h-1q-1,4.5-2,9l15,16c-0.844,1.135.127,0.145-1,1a13.3,13.3,0,0,1-3,4c0.684,3.409,2.228,4.613,3,8-2.711,1.4-5.479,3.357-7,6,5.883,0.053,5.617,1.988,9,4,0.341-1.783,1.94-6.114,3-7l3-1v-2l4-3v-1h-3l-6-8V97l-2-1V90c1.8-1.741,2-4.394,2-8a13.307,13.307,0,0,0,4-3l5,1c1.408-5.451,1.636-2.131,5-4,0.3-.166.943-1.458,2-2l-1-3c-4.064-.971-8.517-6.355-9-11,3.428-.871,2.575-2.068,6-3q0.5-2.5,1-5c-1.548-1.326-3.03-4.2-4-6l-3,2v1h-2v1l-12,4a12.219,12.219,0,0,0-6-4v1l-5,1v1h-2l-1,2-5,1v1l-4,1v1h-3v1l-6-1v1h-3v1h-4c-1.733.625-5.035,2.189-7,3l1,3,2,1v2l4,3v2h1A8.067,8.067,0,0,1,234,79ZM200,91q0.5,2,1,4c5.682-.184,7.871-0.934,13,0a10.6,10.6,0,0,1,1,4h-1v4c-3.125,1.777-4.734,4.065-9,5-0.94,4.074-2.933,4.166-8,4-2.05,1.885-9.224,1.1-13,1l-5,7q0.5,3,1,6h-1v2h-1v2l-2,1c-0.523,1.669.961,1.807,1,2v7h1q0.5,7.5,1,15c-1.182.614-1.5,1.694-2,2l-5,1v1l-3,1c3.133,5.37,6.984,5.956,7,15-1.3,1.082-2,2.624-3,4h-1v3h-1v2h-1v1h1q0.5,3,1,6h-1v2h-1v5h-1v1a7.49,7.49,0,0,0-3,2l-15-2v-1l-3-1-2-3c-1.6-.945-2.81.109-4-1q-1-2-2-4h-5v1l-5,1q-0.5,1-1,2h-2v1l-13-2q0.5-4.5,1-9l4-3v-2l2-1v-2h1v-2l3-2v-1h2v-1c4.027-1.331,7.84,3.2,10,4h6c0.942-4.112,7.194-10.044,5-16h-1c-1.493-3.153-2.454-3.08-3-7-3.986-.8-5.338-3.023-9-4v-2l-2-1v-4c3.122-1.817,3.387-2.982,9-3,1.4,2.263,4.7,3,6,2,2.776-1.819,2.269-4.085,4-7l2-1c0.9-2.061-1.02-6.86-1-7h1v-3l3-2c-0.059-1.715-1.878-1.648-2-2v-7h1q-0.5-3-1-6h-1c-0.046-.711.921-1.952,1-4h2c1.006-3.858,2.93-3.142,4-7h2V89h1c1.151-4.818,5.19-7.851,9-10h2l1-2,4-1V75h7c1.547,2.821,2.772,3.4,3,8-1.4,1.2-2.207,3.241-3,5l10,1v1Zm-39,9q0.5,6,1,12l2,1v2h1c0.443,1.343-.378.177-1,1l-6,7q-0.5,9-1,18c-3.534,1.965-4.2,3.851-10,4a7.742,7.742,0,0,0-3-2v2c3.444,1.71,6.812,3.94,9,7h1v6h-1v5h-1q-0.5,2-1,4h-1v3h-1c-1.254,2.558-1.925,4.654-3,7l-21,2v1h-1q-0.5,2.5-1,5h-1l-2,3h1c2.392-2.761,5.631-2.3,9-4v-1h2v-1h4v-1c1.676-.295,1.746.944,2,1h5c3.524,6.626,11.317,10.642,21,11v-1h-1v-5h-1c-1.538-6.246,7.311-9.364,8-17h-1v-2l-2-1v-2l-2-1v-6c1.139-1.139.4,0,1-2l5-1c1.412-2.663,2.03-4.22,2-9h-1l-3-13h-1c-0.221-2.051.408-1.162,1-2,0.851-3.607,3.029-3.472,4-6V114l7-8h7c1.855,1.744,11.018,1.266,13,0l3-4h3v-1l3-1V99H198V98h-5V97h-1V94a60.638,60.638,0,0,0-11-1q-0.5-3-1-6h1V83c-2.664.605-4.537,1.949-7,3q-0.5,3.5-1,7h-1c-1.72,2.019-2.275.835-4,2l-1,2-3,1v1Zm141,70h3c1.756,3.316,2.058,4.368,2,10h-1v5h-1l-1,3h2v-1c2.528-2.188,3.084-5.1,5-8l2-1v-2h1l1-4,5-4v-2l3-2v-2l3-2v-2l2-1c3.7-5.448,3.7-9.855,13-10,1.5,1.4,7.535,2.555,10,3a19.168,19.168,0,0,1,1,7c-2,1.822.108,1.152-1,3l-4,3c-0.667,1.247.587,0.614,1,1,0.579,0.416.147,1.633,2,1v-1c5.364-1.212,5.762-3.886,9-7l1-2,10-1c2.571,4.338,6.587,5.211,7,12-2.567,2.224-1.56,3.757-3,7h-1l-1,4h-1v4h-1c-1.41,3.777-2.391,8.618-1,13h1v4h1v2h1l2,6h1v10h1v3h1v2l2,1v2l2,1,3,4h2l1,2h2v1h2v1h2v1h2l1,2h2l6,5q0.5,3,1,6h1v2h1c1.6,3.075,1.9,5.353,2,10l-3,2v1h-2l-2,3h-4c-1.216.94-5.312-.206-9,1v1h-5v1a41.752,41.752,0,0,1-13,3c-2.045-2.42-3.466-1.635-4-6,3.219-2.14,4.041-7.616,4-13-2.4-1.113-4.32-1.815-7-3v-1c-6.287-2.228-13.606,4.323-22,2-13.8-3.819-24.979-1.526-36,3-0.653,1.267-1.6,1.391-2,2v2l-2,1v9l-2,1v2l-4,3c-1.631,1.6-5.281,2.638-9,2a1.457,1.457,0,0,0-2-1v1h-1v3l-2,1v1l-15,5-1,4,2,1c3.186,3.7,6.569,5.41,7,12-2.488,1.519-.623,1.083-2,3h-1c-1.516,1.894-1.846,2.475-2,6,1.951,1.674,2.722,4.666,3,8-4.089,3.494-4.22,7.851-12,8v-1l-6-1-1-2h-2v-1H240l-1-2-4-1c-0.7-.514-0.814-2.051-2-3v1h-4v1h-2v1h-2v1h-2l-1,2h-2l-1,2c-2.454,1.6-4.011,1.863-8,2-3.081-4.84-6.548-1.589-7-9,2.492-1.633,2.3-3.555,4-6l3-2v-2l2-1v-3l2-1v-2h1V290s0.677-.179,1-2l6-5,18-1c3.052-1.664,1.631-7.553,3-11h1q0.5-2,1-4l2-1v-2h1v-2h1c0.9-1.371.722-1.749,1-4-5.327-3.636-5.329-13.039-13-14-2.2,1.92-8.767.924-12,2v1h-4v1h-3v1h-2v1c-5.556,2.152-15.551.983-21,0-3.2-5.523-6.906-5.837-7-15l7-5h4l3-4h2q0.5-1,1-2l9-3v-1c-3.63-1.909-5.288-4.146-7-8-2.243.908-12.551,3.909-16,3v-1h-6c-0.877-4.045-2.654-4.092-3-9,8.532-4.538,15.348-13.6,26-16l3-10,2-1q0.5-2,1-4l3-2v-2l2-1v-2h1l2-3c2.057-1.313,5.687-1.073,9-1q0.5,1.5,1,3h1v2h1v6h1q0.5,5,1,10l5,2a18.223,18.223,0,0,1-1,7c5.4-.12,8.586.574,12,2q0.5,1.5,1,3h1c1.741,4.143-1.122,3.524,3,6v1c0.661,0.419,3.237.62,4,1v-1h1v-5c1.149-3.33,6.963-12.637,5-18h-1v-2l-2-1c-1.153-1.958-.929-4.916-1-8,1.977-1.733.847-2.33,2-4l4-3,1-2h2l3-4h2l5-6h2l8-9h9c1.593,1.485,5.892,1.092,9,1,1.895,3.256,3.731,3.633,4,9l-3,2v1h-2l-1,2h-2v1l-6,5A15.682,15.682,0,0,1,302,170Zm-55,33c-3.455-.154-5.689-0.529-8-2q-0.5-1-1-2l-3-1c-1.676-2.725,1.817-2.98-2-5l-3-1c-1.272-6.871-3.227-12.008-2-19h-2q-1,3-2,6l-2,1q-0.5,2-1,4l-3,2v2h-1c-0.922,2.269.332,5.159-1,7l-3,1q-0.5,1-1,2h-2l-2,3h-2c-3.345,1.919-3.676,3.728-9,4-1.139-1.139,0-.4-2-1v2l6,1c2.675-3.129,8.52-4.785,14-5l3,4h1q0.5,2.5,1,5l2,1,2,3h2c1.412,1.262.958,4.364,1,7h-1v4c-7.657,4-14.4,9.853-24,12v2l15,1v-1h4v-1h11c1.362-.381-0.4-0.765,1-1h12a1.449,1.449,0,0,1,2-1v1c4.072,1.125,1.211.4,3,3l2,1v4h1v2h1v3h1v3h1v2h1v8h-1v2h-1v2h-1v2l-2,1q-0.5,2-1,4h-1q0.5,4,1,8c-3.178,11.423-10.085,9.336-24,9v1c0.685,0.679,2.269,7.023,1,9h-1c-0.875,3.583-3.9,5.508-6,8h-1v2l-2,1v1l-4,1v1h3v-1h2l6-7h2c3.482,3.022,11.946-.621,17,1v1h3v1l6,1v1l4,1v1l3-1V304h-1v-1h1v-2c-3.893-.9-5.643-3.542-6-8,2.567-2.382.716-2.594,2-6h1v-3l2-1,2-6,2-1v-2h1l1-3,7-1v-1h2v-1l5-1,2-3,5-1,3-4h1v-4h1v-2a22.726,22.726,0,0,1,5-6l1-2,4-1,1-2,5-1v-1h2l1-2,9-1c6.447-1.956,10.41-2,20-2h12v1l6,1c4.054,0.353,10.609-1.081,13,1,3.041,0.724,4.668,2.646,6,5h1c0.438,0.627,1.928,13.02,1,15a11.181,11.181,0,0,0-2,2h6c2.335-2.658,5.189-2.615,9-4v-1c3.348-1.077,9.06.305,11,1v-1h1q-0.5-2.5-1-5l-24-9-2-3h-1v-2l-2-1v-2h-1l-1-3-3-2-1-4-2-1v-3h-1v-2h-1q0.5-7,1-14l-3-2v-3c-1.1-2.62-4.831-6.885-3-12h1l1-4h1v-4c1.858-5.06,4.557-7.825,5-15h-2c-1.6,3.668-4.821,7.942-9,9-0.8,3.555-2.95,5.594-7,6l-8-7V162c1.361-1.166,1.528-1.825,2-4h-1l-5,7-2,1v2l-3,2v2l-2,1v2l-2,1v2h-1v2h-1v4l-2,1c-2.019,2.254-3.325,5.426-6,7h-2l-1,2h-3v1h-2v1h-2l-1,2c-1.959.458-1.311-.552-2-1l-4-1v-1h-2c-1.273-1.062-1.028-3.625-1-6,1.7-1.911.217-5.31,0-9-2.762-.723-2.237-0.279-3-3h-1v-2h-1a2.485,2.485,0,0,1,1-3V159l3-2v-1h2l1-2h2l1-2h3v-1a19.831,19.831,0,0,0-9,3v1h-2l-1,2-4,1-3,4-2,1v2l-6,5c-1.155,1.685-.027,2.26-2,4,2,4.508,3.9,7.321,4,14-3,1.761-7.429,7.641-9,11h-1c-1.322,3.831,3.118,6.315,0,10-1.666,2.1-3.713,2.418-6,4l-2,3h-4v-1l-5-1C250.741,210.132,247.635,208.861,247,203Zm-65,71v-2h-1l1-2c0.01-1.813-1-2-1-2a2.873,2.873,0,0,1,1-3q-0.5-3-1-6H171c-1.382-2.612-1.769-1.693-2-6h1v-3l2-1q1-4,2-8l4-1v1c2.486,0.676,1.65.487,3,2h1v2h1v3l7,5v2h1c1.161,3.121-1.517,4.842-1,7h1q0.5,2,1,4l2,1q0.5,2.5,1,5l-3,1C190.3,274.583,185.273,274.1,182,274Zm4-4a7.173,7.173,0,0,1,4,1v-1h1c-1.139-1.139,0-.4-2-1-0.707-3.131-1.488-1.975-2-3v-3h-1v-7h-1c-0.648-1.75-.422-2.6-1-4a12.71,12.71,0,0,0-5-1q-0.5-2.5-1-5h-1v2h-1q-0.5,2.5-1,5h1c4.29,4.451,7.889-1.08,8,9C185.05,263.155,185.7,268.228,186,270Zm9,9h5l2,3c1.526,1.042,7.143,1.454,8,3v4a12.119,12.119,0,0,0-2,2H194v1c-0.661.335-7.534-1.707-8-2l-1-2-3-1v-4c1.135-.844.145,0.127,1-1C187.388,282.117,193.05,281.037,195,279Zm7,8c-0.723-2.762-.279-2.237-3-3-1.685-1.471-7.526,0-10,1,0.844,1.135-.127.145,1,1C191.934,287.783,198.393,287.1,202,287Zm176,89v2c1.082-.573,2.1-2.7,4-2v1h1v4h1v1h3c0.087,5.375,1.665,5.993,2,11-2.63,1.606-3.839,3.8-4,8h1v3c0.207,0.359,1.434.927,2,2l4-3v-1l9-3a60.687,60.687,0,0,1,1-12c1.335-.721,2.653-2.815,3-3h4v-1l3-2v-2c1.17-1.468,2.455-.559,4-3l3,1,1,2h2v1l7,1v1c1.016,0.771.984,1.229,2,2-0.574,2.01.12,0.865-1,2v1h-3c-1.189.771-4.546,8.132-5,10h1v1l9-2c0.541,1.057,1.835,1.7,2,2v3a10.443,10.443,0,0,1,2,2c1.135-.844.145,0.127,1-1a11.576,11.576,0,0,0,6-5l3,1q0.5,5,1,10l2,1,1,4h1c0.482,0.667,3.241,5.218,3,6h-1c-1.278,4.515-.694,1.384-4,3v1h-2l-1,2h-9v-1c-2.169-1.575-1.946,1.048-4-2h-1q-0.5-3.5-1-7h-2c-0.945,1.8-1.385,1.574-2,4h-1q1,5.5,2,11h-1q-0.5,3-1,6h-1v5l-5,4v2l-2,1c-2.392,3.685,0,5.273-6,6-1.3-3.067-1.849-4.561-6-5-2.335,4.353-5.384,7.778-12,8-1.094-2.078-1.611-1.771-2-5h-3l-1,3h-1v2h-1v4c-0.788,1.9-2.957,4.119-4,6l-3-1c-1.438-3.272-3.175-5.951-4-10-3.4-.88-3.065-1.861-3-6h-1l3-5h1c0.945-2.038-1.065-5.589-1-6h1l1-5,2-1c0.916-2.082-1.292-4.3-1-5l2-1,1-2h2v-1c3.59-2.172,5.253-1.767,6-7h-1v-4l-3-2v-5h-1v-1c-1.139,1.139-.4,0-1,2-3.97,3.612-2.727,11.725-6,15v1h-3a15.682,15.682,0,0,1-1-6c0.985-1.078,2.128-8.456,1-11l-2-1v-2h-1c0.255-1.546,1.932-1.814,2-2v-5h-1l-3,4h-1v2l-4,3v2h-1l-1,3c-2.01-.574-0.865.12-2-1h-1v-4c7.21-4.912-2.519-10.06,0-14v-2l4-1v-1c1.872-.6,1.395.547,2,1,1.283-.126,1.6-0.817,4-1,0.244-1.671,1-2,1-2v-9h1v-1h6C377.139,376.139,376,375.4,378,376Zm-16,16q0.5,3.5,1,7h1v-1c4.074-3.147,8.441-6.269,11-11,1.135,0.844.145-.127,1,1l2,1q-0.5,5-1,10h-1l-1,5h1l1,3c1.135-.844.145,0.127,1-1,2.677-2.372,1.5-4.6,3-8h1v-2h1c1.64-3.02,1.943-4.261,2-9-4.371-2-6.992-5.677-11-8,0.047,2.627-.025,5.413-1,7l-2,1c-1.814,2.529,1.1,1.913-3,3v1Zm51-6h-2c-1.894,3.181-4.391,3.3-5,8h1v8a7.27,7.27,0,0,0-2,2h-6v1c-5.147,2.023-6.958.666-7,8,2.919,2.983,1.316,7.594,1,12l-3,2v1h-2l-1,2h-4v1h1c0.432,1.354-3.316,5.965-4,7h-1q0.5,4.5,1,9h-1l-1,3h-1c-0.582,2.047,2.778,5.008,3,9h2c0.032-7.857,3.494-9.466,5-15,6.1,0.232,8.627,3.249,14,4,1.867-4.4,3.41-5.209,10-5a8.445,8.445,0,0,0,3,2v-1c2.92-1.854,3.484-4.645,5-8h1v-7h1q0.5-3,1-6h-1v-2h-1q-0.5-4-1-8c2.934-.053,5.337.176,7-1l1-2,6,1a11.249,11.249,0,0,0,2,5h1v3c1.051,1.4,4.525,1.068,7,1v1l3-1,1-3-3-2v-6h-1v-5h-1v-1l-4,2v2c-1.019,1.108-2,.713-4,1l-2-3h-1c-1.482-2.356.331-3.084,0-4h-1v-1c-5.429,1.4-12.6,6.8-13-4,4.134-2.533,1.22-1.849,3-6h1v-2c0.276-.454,1.4-0.867,2-2-3.041-.724-4.668-2.646-6-5-1.135.844-.145-0.127-1,1C414.025,383.129,413.662,383.417,413,386Zm-96,15h-2c-0.749,3.152-3.059,4.6-4,7v5h-1a9.388,9.388,0,0,0-2,4h2c1.508-2.476,1.215-.627,3-2l1-2h1v-2h1l1-2h4c2.384-2.133,14.256,2.181,18,3a12.71,12.71,0,0,1,1,5c-3.576,2.369-1.862,4.784-4,8l-3,2v1h-2v1h-2l-2,3h-1q-0.5,4-1,8l-3,2,1,2c0.036,2.255-2.01,3.876-1,7h1v3h1a8.909,8.909,0,0,1,2,4l-6-1v-2h-1v-2l-3-2v-1l-3-1-2-3h-2v-1h-2l-2-3h-1v-9l-3-1v-1h-7c-0.885,1.416-1.373,2.319-3,3h-2l-5,6h-2v1l-7,1v1c-1.139,1.139-.4,0-1,2-5.535,1.04-4.372.182-9-1v-4l-3-1c-2.209-2.241-8.381-3.013-13-3l-2,6h-5v-1c-2.351-.849-11.918-4.045-15-3v1l-4,1-3,8-2,1v2h-1v11c3.883,2.379,2.162,2.922,4,7h1v2h1q0.5,2,1,4h1q0.5,2.5,1,5l2,1v2h1q0.5,2.5,1,5c-2.128,1.212-2.177,2.252-5,3v-1h-3l-2-3-15-1v1l-3-1c-1.643-3.1-1.9-1.8-2-7h-1v-2h-1v-1h1q0.5-5,1-10l4-3v-2h1v-2h1v-3h1c1.167-3.618-.163-14.35-1-17h-1q-0.5-7-1-14c2.523-1.339,3.5-1.99,8-2,1.864,1.7,5.867,1.073,8,0v-1h2v-1l4-1v-1l4-1v-1h3l1-2,11-2c0.7,1.412,1.44,1.226,2,2v2c0.954,1.094,2.039.772,4,1v-1h3l1-2,4-1v-1l3-1,1-2,4-1,1-2h2l11-12v-2l2-1v-2c0.723-.994,3.037-1.8,4-3h10l3,5h2l1,2h3v1h2v1h8v1h1v4Zm-73,18a28.867,28.867,0,0,0-15,5l-1,2-5,1v1h-2v1c-1.694.878-7.17,2.435-8,1v2l2,1q-0.5,7-1,14h-1v3h-1v3h-1q-0.5,5-1,10h-1v3l-3,2v12c1.135,0.844.145-.127,1,1,7.248-.01,9.445,2.568,16,3v-1c-2.293-1.916-1.275-3-5-4v-2l-2-1v-7h-1v-3h-1v-3l-2-1c-1.357-3.231,2.163-13.244,3-15h1q0.5-6,1-12c2.5-.6,12.387-5.685,16-4l3,4,6,2v-1c2.642-2.942-.188-4.6,5-6,0.1-.071,16.009.911,21,1a15.682,15.682,0,0,1,1,6c5.616-.007,7.509-1.028,11-3v-1l4-1,2-3h2l5-6h2v-1c2.766-1.689.658,0.741,3-2h1q0.5-3,1-6h1l1-4h1v-3l2-1,1-4-3-1v-1h-3v-1c-2.8-1.419-3.762-1.848-8-2l-3,4h-2l-6,7-4,1-2,3h-2l-2,3h-2l-1,2h-2l-1,2-4,1-2,3-13,1C244.906,421.922,244.389,422.229,244,419Zm78-4c-2.645,3.15-8.08,5.23-12,7,0.344,2.222,1.74,3.891,1,7h-1v4h1q-0.5,3-1,6h1c0.724,3.041,2.646,4.668,5,6v-7l3-2v-3h1v-2h1v-2l3-2v-1h2v-1h2l6-8A30.594,30.594,0,0,0,322,415Zm-24,11v2h6v-5C300.572,423.871,301.425,425.068,298,426ZM163,532l-1,3h-1q-1,5.5-2,11l7-1v-1c2.989-.827,4.889.625,7,1,1.066,4.354,2.809,4.659,3,11l9,1,3-4h2l4-5,2-1,3-9,3-2v-1l2-1v-2l3-1q0.5-1,1-2l9-3,2,3h1v2h1c1.891,4.5-2.762,5.111,4,6,2.375-5.117,4.129-3.718,7-7,6.384,1.286,12.011,3.823,20,4v5a8.329,8.329,0,0,0-4,2v1l-4,1-3,9h-1q-0.5,3.5-1,7l-2,1v1l-2,1v2l-3,2v2h-1v2h-1c-2.127,3.944-1.361,5.353-5,8v1h-3v-1l-13-4-3,4h-1q-0.5,4-1,8l-3,2v2l-4,3q-0.5,1-1,2h-2l-4,5h-2l-1,3c-2.623.234-13.654,2.649-17,1-0.509-.251-3.975-5.53-5-5v1h-1v3c-0.794,1.231-5.179,3.548-7,4v4c-4.374.824-5.93,2.674-11,3-0.844-1.135.127-.145-1-1a7.173,7.173,0,0,1,1-4h-1c-2.2-1.921-5.8-.976-9-2v-1h-9v-1h-2q-0.5-1-1-2h-2v-1h-5v-1h-1c-1.181-2.642-1.913-3.763-2-8,4.1-1.087,1.131-.529,3-3l4-3V576c2.194-1.343,1.516-2.814,3-4h2l2-3c3.363-3.039,4.725-1.2,5-8-1.361-1.166-1.528-1.825-2-4-2.391-.463-3.145-1.158-5-2,0.823-1.876,1.481-2.616,2-5l3-1v1l6,1c0.753-4.133,1.909-6.7,2-12-5.235.549-5.462,0.871-10-1-0.945-1.8-1.385-1.574-2-4,2.391-.463,3.145-1.158,5-2q1-5.5,2-11l2-1v-2h1c1.354-1.478.49-1.368,3-2v-1h3l3,4h2l2,3h2v1c1.256,0.19,1.673-1.591,4-1v1h11s0.176,0.687,2,1a10.6,10.6,0,0,1,1,4C167.37,529.505,166.622,531.189,163,532Zm-26,24c0.789,3.229,1.856,3.449,2,8-1.344,1.077-1.8,2.8-3,4h-1q-0.5,1-1,2h-2l-1,3-4,3v2h-1q-0.5,5-1,10h-1c-0.485,1.017-3.2,7.451-3,8h1v1h2q0.5,1,1,2h2v1h9l16,7v-2h2l4-5h1v-3h1c1.959-2.489,2.786-3.6,7-4,1.139,1.139,0,.4,2,1,0.723,2.762.279,2.237,3,3v1h8c1.559-1.825,2-.853,4-2v-1h2v-1l2-1v-3l3-2v-1h2l3-4h1v-2l2-1q1-6,2-12h2v-1c2.589-1.477,9.736,1.444,11,2v1h10c0.638-1.256,1.632-1.424,2-2v-2h1v-2l2-1v-2l2-1v-2l2-1v-5c1.294-3.89,2.753-9.894,6-12v-1h3v-2a68.253,68.253,0,0,1-12,1c-1.217,4.58-3.546,3.216-6,6-2.01-.574-0.865.12-2-1l-6-5c-1.543-3.028,1.269-4.025-2-7v1l-7,5v2l-3,2-1,4h-1a12.865,12.865,0,0,0-3,6h-2l-1,3h-1v2h-1v2c-2.357,4.146-4.385,4.237-11,4-1.552,1.127-11.415-2.254-15-3v-3h2a18.329,18.329,0,0,0-2-8c-5.541,2.554-9.059,4.229-16,3q0.5-8,1-16h1v-2c0.259-.427,1.4-0.918,2-2l-12-4v-1a8.469,8.469,0,0,0-4-2v1h-1q-0.5,3.5-1,7c-0.354.765-1.281,0.02-2,3h1c2.079-3.186,4.988-1.323,8,0l1,3h-1v3h-1v2h-1c-1.8,4.288-.195,7.028,0,12A15.682,15.682,0,0,1,137,556Zm95,82c3.469,0.618,5.168,1.648,6,5h1v1h-1c-1.429,4.958-2.593,2.719-6,5l-2,3c-3.379,2.264-4.614.05-6,5l-6,1c-0.333,6.8-4.629,7.28-6,13-3.515.915-2.853,2.433-7,3a9.784,9.784,0,0,0-2-2v-3l-2-1-1-4h-6v-1h-1v-5l-2-1v-3l-10-6v-6c3.766-3.182,4.462-7.322,11-8v1h7v1h2q0.5,1,1,2c5.05,2.187,16.454-2.193,19-3h10Zm-29,21v2c2.3,1.516,2.1,3.358,4,5v-1c5.429-3.105,5.409-10.865,10-14h2v-1h2v-1h3q0.5-1,1-2c3.739-1.977,4.5,1.065,6-4-1.719-1.127-1.355-.633-2-3-3.6.187-5.63,1.3-8,2H208v1h-4v-1h-6a41.832,41.832,0,0,0-8-2c-1.584,2.749-2.47,1.8-3,6l10,8a3.465,3.465,0,0,1,0,4h1v1l3-1v1h2Zm74,1c-0.612,2.519-.534,1.647-2,3v1h-2v1l-3,1c0.584,3.144,1.621,4.461,2,8-4.147,2.243-7.08,5.343-13,6a7.173,7.173,0,0,0,1,4h-1c-2.072,3.067-1.067.548-4,2v1h-2q-0.5,1-1,2a10.506,10.506,0,0,1-7,3l-1-3h-2c-0.951-.484-1.41-3.859-4-3v1c-2.985.763-3.929,2.362-6,4v1l-6,1v1l-2,1v2l-2,1v2l-7,5c-2.01-.574-0.865.12-2-1-2.162-1.419-2.01-2.366-2-6h-1v-6c3.032-.536,5.594-1.791,7-4,0.89-.859,4.561-10.053,4-12h-1l-1-4,3-1v-1h3v-1l5-1,2-3,3-1v-2l2-1c1.288-2.79-.431-5.787,1-8h1l2-3c2.231-1.633,4.308-1.918,6-4,3.543,0.317,3.949,1.314,7,2v2c3.218,0.808,3.556,2.559,6,4,0.684-3.409,2.228-4.613,3-8l11-2v1h3v1h4v1h4v1h1v3h-1l-1,3-3,2v2h-1l-1,2h-2Zm-14,0c-4.321.013-7.367-.242-10-2v-1c-2.081-1.672-3.03-3.149-6-4v1l-3,2v2h-1v3l-3,2v2l-2,1v1h-2l-1,3-3,1q-0.5,1-1,2l-5,1c-2.935,2.23-.5,5.7-2,9l-2,1v2c-1.311,2.362-3.218,3.928-4,7h-2v6h1c1.139-1.139,0-.4,2-1v-2l7-6v-1h4l1-3,3-2c2.784-3.945.034-5.6,7-6,1.467,2.871,4.068,4.561,7,6v-1l5-6,6-2v-1c1.791-1.365,1.969-1.6,5-2v-8c2.771-1.57,4.044-3.2,8-4,1.2-4.666,5.39-5.875,8-9h-1v-1c-1.208.382-1.834,1.638-4,1v-1l-6-2v1C265.74,650.893,263.437,655.355,263,660Z" transform="translate(-114 -38)"/>
</svg>
