<svg xmlns="http://www.w3.org/2000/svg" width="287.094" height="583" viewBox="0 0 287.094 583">
  <defs>
    <style>
      .cls-1 {
        fill: #cc543a;
        fill-rule: evenodd;
      }
    </style>
  </defs>
  <path id="色彩填色_2" data-name="色彩填色 2" class="cls-1" d="M227,814c-1.079-5.912-4.311-8.963-7-13v-2l-2-1v-2l-2-1v-2l-3-2v-2l-4-3v-2l-4-3v-6h-1v-3h-1q-0.5-5-1-10h-1v-7c-1.362-4.426-6.406-13.632-4-21h1q0.5-3,1-6h1v-2h1q1-5,2-10l2-1v-2h1v-2h1q0.5-2.5,1-5l3-2v-1h2v-1h2c1.5-1.163,2.029-5.064,3-7h1v-3l4-3v-3h1v-5h-1v-8h-1v-2l-3-2-1-4-3-2v-2h-1v-3h-1v-2h-1c-0.432-1.712.939-1.733,1-2v-9h1l-1-3h1c1.358-5.8-.637-7.241,2-12h1v-2c1.028-1.309,2.527-.014,4-1,0.56-.375.885-2.126,2-3-1.1-5.7-3.019-11.837-1-18h1v-5h1v-4h1q0.5-7,1-14h1l1-4h1q1-5.5,2-11l3-2v-2l2-1v-2h1v-2h1v-2h1q1-3.5,2-7h1v-2c1.058-1.386,3.295-1.143,5-2v-1c2.756-1.259,2.992.285,5-2h1v-4h2v-8h-1v-2l-2-1q0.5-1,1-2h-1q0.5-6,1-12h1l-1-3h1v-4c-0.622-.733-1.461.337-1-1l2-1v-2h1l1-3h-2l-1-3h1v-3l2-1v-3l2-1v-3h1l4-5,5-1,1-3c1.469-1.863,3.863-2.706,7-3,1.561-5.141,2.5-1.839,6-4l1-2,4-1v-1c2.318-1.888,3.7-4.126,7-5v-2h1l5-6h2l4-5h3c0.805-.571,4.645-9.39,5-11l-3-1c-0.439-6.633-6.62-15.889-4-24h1v-3h1v-2h1v-6l2-1,1-4,2-1,1-4,2-1v-2h1l1-3h2v-4l2-1v-1h-1v-3h-1v-6l-2-1-1-5-2-1v-2h-1l-1-5h1v-5h1l1-4h1v-2l4-3v-1h2l1-2h2l2-3h1v-2h1v-1h2c1.112-1.016.709-2.007,1-4l4-1v-1l-4-3v-3l-2-1V308h-1v-2h-1v-9c0.714-2.375,1.775-4.4,2-8,2.458-1.526.623-1.213,2-3l2-1v-1h2l3-4,6-2,1-2h3l1-2h2l1-2h2v-1h4v-1h2v-1h3l4-5,3-1,1-4,9-1v-1l4-1v-1h3v-1c2.478-1.867,3.61-4.028,7-5v-2l3-1,4-6h4v-1h7v-1h2v-1c4.54-1.6,9.882.075,13,1h6v1h1v-1h4l5-7v1l5,1v1h6v1l6,1v1l4,1v1h2l8,9,4,3v3c-1.635,2.447,1.655,11.627,0,17h-1q-0.5,5.5-1,11h-1q-1,6.5-2,13h-1v5h-1v4h-1v4h-1v4h-1v3h-1v4h-1v3h-1v4h-1v2h-1q-0.5,3.5-1,7h-1q-0.5,3-1,6h-1v2h-1v3h-1q-1,4.5-2,9h-1v2h-1q-0.5,3-1,6h-1v2h-1v3h-1v2h-1q-0.5,3-1,6h-1l-1,5h-1v2h-1v3h-1v2h-1q-0.5,3-1,6h-1v2h-1v3h-1v2h-1l-1,5h-1q-0.5,3-1,6h-1v2h-1v3h-1v2h-1q-0.5,3-1,6h-1v2h-1q-1,4.5-2,9h-1v2h-1v3h-1v3h-1v3h-1v3h-1v4h-1v3h-1v3h-1q-0.5,5.5-1,11h-1v6h-1v3l-2,1v3l-2,1v2h-1v2h-1q-6,14-12,28-1,4.5-2,9c-3.76,9.43-7.244,20.569-11,30q-1,4.5-2,9h-1l-1,4h-1c-1.183,2.672-.729,5.5-2,8h-1v2h-1v4h-1v2h-1q-0.5,3-1,6h-1q-0.5,3-1,6h-1l-1,4h-1v4h-1v2h-1v3h-1l-2,6h-1v2h-1v3h-1v2h-1v2l-2,1v3l-2,1-2,6-3,2-1,4-3,2v2h-1l-1,3-2,1v2l-5,4v2l-14,13c-7.871,7.87-15.389,15.846-22,25l-5,4-1,3-2,1v2l-4,3-1,3-2,1v2l-3,2-1,4-3,2-2,6-2,1-1,4h-1l-2,6h-1v3h-1v2h-1v3h-1l-1,4h-1v4h-1v3h-1v4h-1v2h-1v4h-1v4h-1v4h-1v4h-1v7h-1q-1,5-2,10l-3,2v2l-2,1v1h-2l-2,3h-2q-0.5,1-1,2h-2q-0.5,1-1,2h-7v1ZM351,352h-3v1c-1.485,1.593-1.092,5.892-1,9,2.4,2.738-.173,8.824,1,13,1.49,5.306,2.052,9.63,2,17h-5c-0.612,1.174-1.7,1.509-2,2v2h-1v3h-1v3h-1v3h-1v4h-1q-0.5,5-1,10h-1q0.5,11.5,1,23l-5,4v4h-1v3h-1v2h-1v3h-1v2h-1v2a62.313,62.313,0,0,1-6,4h-2l-1,2h-2c-4.147,2.752-7.159,6.773-13,8-1.569,6.107-7.088,9.155-11,13l-2,3h-2l-3,4h-1v2l-4,3q-1,4.5-2,9h-1l-1,4h-1c-0.849,1.976-2.158,14.795-1,18h1l1,4,2,1c1.043,1.761.919,4.233,1,7l-3,2v1h-2v1l-9,3-1,2h-2l-1,2h-2v1l-3,1a7.766,7.766,0,0,1-2,4h-1v2l-2,1v2l-2,1-7,22v52l-2,1v2h-1c-0.043.136,2.628,11.375,3,12l2,1v2h1v7h1v9h1c0.162,1.246-1.416,1.684-1,4h1v1h-1v4h-1v3h-1v1h1v1l-2,1v2h-1v2h-1v2h-1v2h-1l-1,4-3,2v3h-1v2h-1v3h-1v4h-1q0.5,1,1,2h-1v2l-2,1v2l-2,1v4l-2,1c-1.381,2.335-.989,5.22-2,8h-1v7h-1v1c0.735,1.163,1.33-.375,1,1h-1v7h-1v1h1q0.5,3.5,1,7h1q0.5,6.5,1,13h1v6h1q0.5,4,1,8c2.078,1.094,1.771,1.611,5,2v-4h-1v-1h1v-5h1v-7h1v-6h1V755h1V745h1v-5h1l1-4h1l1-4,2-1,2-6h1l1-3,2-1v-2l5-4,1-3,2-1v-2l2-1v-2h1v-2h1v-2h1v-2h1v-2l4-3v-2l15-14,7-8,3-2v-2l8-7v-2l5-4v-2l5-4v-2l2-1v-2l4-3,1-4,2-1,1-4,2-1,1-4h1l2-6h1v-3h1v-2h1q0.5-2.5,1-5h1q0.5-3,1-6h1v-2h1q0.5-3,1-6h1v-2h1q0.5-3,1-6h1v-2h1q0.5-3,1-6h1v-2h1v-3h1q0.5-2.5,1-5h1v-2h1v-3h1v-2h1l2-6h1v-3h1v-2h1v-3h1v-5h1v-3h1v-5h1v-4h1v-2h1l3-14h1v-2h1q0.5-2.5,1-5h1v-4h1v-2h1v-3h1v-2h1v-3h1l2-6h1l1-4,2-1v-2h1v-2h1v-2h1v-2h1l1-4,2-1v-2h1v-2h1v-2h1v-2l2-1,1-4h1v-2h1l2-6h1q5.5-16.5,11-33v-4h1v-4h1v-3h1v-4h1v-3h1v-2h1v-4h1v-2c1.376-2.688,3.151-4.328,4-8h-3c0.115-5.527,2.419-9.077,4-13q0.5-3,1-6h1v-3h1v-2h1q0.5-3.5,1-7h1v-2h1q1-4.5,2-9h1l1-4h1v-4h1v-2h1v-3h1l1-5h1v-2h1v-3h1l1-4h1v-4h1v-2h1v-3h1v-3h1v-4h1v-4h1q0.5-8.5,1-17c-0.054-.247-1.412-0.3-1-2h1v-2h1v-3h1c1.815-3.461,2.62-3.229,3-8-3.479-.725-4.349-1.856-9-2-2.5,4.124-1.777,1.186-5,3l-1,2h-2c-5.2,3.4-5.877,5.937-15,6v-1h-3l-2-3-2,1-2-3-6-2v1c-4.885,1.014-8.8,5.974-12,9l-1,2h-2l-2,3h-2l-3,4h-2v1h-2v1h-5l-2,3-7,2v1l-2,1v2l-3,2v2h-1l-2,3-2,1v7h1c-0.13,1.689-1.944,1.8-2,2q0.5,3,1,6l2,1,1,5h1v2h1v2h1c0.98,1.917,2.384,8.746,1,11h-1C359.308,343.341,351.966,345.19,351,352Z" transform="translate(-196.375 -231)"/>
</svg>
