<svg xmlns="http://www.w3.org/2000/svg" width="389.031" height="364.094" viewBox="0 0 389.031 364.094">
  <defs>
    <style>
      .cls-1 {
        fill: #cc543a;
        fill-rule: evenodd;
      }
    </style>
  </defs>
  <path id="色彩填色_4" data-name="色彩填色 4" class="cls-1" d="M255,148c6.976,0.143,10.7,3.367,16,5,4.874,1.5,12.832-.906,16,2,1.969,1.738.848,2.33,2,4l2,1c3.1,3.3,6,7.687,11,9,0.678,3.733,1.273,8.252,3,11h-1q-2.5,4.5-5,9h-1v4l-2,1c-1.048,1.834-.9,4.176-1,7,3.616,2.084,4.82,3.883,11,4,1.555-1.825,1.979-.864,4-2v-1h2l1-2h2c2.188-1.223,5.212-4.547,10-3v1h3l1,2c2.042,1.742,3.1,1.815,7,2a18.371,18.371,0,0,0,3,7l3,2v2h1v2h1v3h1v3h1l1,3c3.432,0.85,9.842,5.6,15,4v-1h3v-1l4-1,1-2,7-2v1c2.434,0.571,6.761,3.316,8,5v2l2,1v1l4,1v1l6,2v1h3v1h3v1h3v1h6v1c2.754,2.312,3.811,6.088,7,8l-2,3h-1q-0.5,2.5-1,5l-2,1v3l-4,3v1c-2.017.954-2.612-.722-3-1l-3,1v1h-2l-9,10h-2l-2,3h-2l-3,4h-2v1h-2v1h-5l-2,3-7,2v1l-2,1v2l-3,2v2h-1l-2,3-2,1v7h1c-0.13,1.689-1.944,1.8-2,2q0.5,3,1,6l2,1,1,5h1v2h1v2h1c0.98,1.917,2.384,8.746,1,11h-1c-1.692,6.341-9.034,8.19-10,15h-3v1c-1.485,1.593-1.092,5.892-1,9,2.4,2.738-.173,8.824,1,13,1.49,5.306,2.052,9.63,2,17h-5c-0.611,1.154-1.706,1.521-2,2v2h-1v3h-1v3h-1v3h-1v4h-1q-0.5,5-1,10h-1q0.5,11.5,1,23l-5,4v4h-1c-1.5,3.832-3.219,12.047-6,14l-6,2-1,2h-2l-1,2h-2l-1,2h-2l-1,2-6,2-3,6-7,6-2,3h-2l-6,7h-3v1h-3v1h-3v1h-3v1l-14-1v-1h-3v-1c-4.048-1.115-5.066,2.927-8,2l-2-3a108.431,108.431,0,0,0-11-2v1h-4v1h-2v1h-2v1c-6.746,3.572-11.928,4.641-21,3l-3-4h-1v-4c-0.143-.267-2.3-1.771-3-3h2v-3h1c1.18-5.076,4.773-7.937,8-11l1-2h2c2.532-1.821,1.932-3.955,6-5v-2h2a10.6,10.6,0,0,0,1-4c-1.832-1.025-4.137-3.293-6-4h-6v-1c-5.653-1.656-14.032,2.809-18,1v2l-3-1-4,5H172v1h-3v1l-4,1v1H152v1h-5v1h-6v1c-2.186.582-8.575-1.572-10-2h-9c-3.343-.988-8.167-2.3-12-3v-3l-21,7v2H78v1H73s0.189,0.907-2,1c-4.2.177-10.568-2.584-16-1a89.2,89.2,0,0,1-20,3l-5-7c0.447-1.458,1.394-2.424,1-5a1.55,1.55,0,0,1-1-2h1v-4H30v-1h1v-2h1l-1-2,2-12,2-1v-5h1v-2h1l-1-4h1v-6h1v-5h1v-4h1v-2h1v-4l2-1v-2l2-1v-2l2-1v-2l3-2v-2l3-2v-2l3-2v-2l4-3,1-3,2-1v-2l4-3,1-3,2-1v-2l4-3v-2l3-2v-2l2-1,1-4,2-1,2-6h1l2-6h1v-3h1v-2h1l1-6h1v-2h1v-3h1v-3h1v-3h1v-3h1v-3h1v-3h1v-3l17-33c2.01,0.574.865-.12,2,1h1v3c-3.329,3.2-.087,3.845-2,7l-3,2v3l-2,1v2h-1v2h-1v4h-1v3h-1v2h-1v4h-1v4h-1v6h-1v7h-1v5h-1v5h-1v5c-0.775,2.229-2.392,4.192-3,7h1v-2c1.909-1.788.89-1.785,2-4h1v-3h1v-2h1v-3h1v-2h1v-3h1v-3h1v-3h1v-3h1v-3h1v-2h1q0.5-3,1-6h1q0.5-2.5,1-5h1v-2h1v-3h1l2-6h1q0.5-2,1-4l2-1q0.5-2,1-4l4-3v-2h1v-2h1v-2h1v-2h1v-2h1v-2h1v-2h1q0.5-3,1-6h1v-2h1v-4h1q0.5-5,1-10h1v-2h1v-3l2-1v-3l2-1q0.5-2,1-4l2-1v-2h1v-2l2-1v-2l2-1v-2l2-1v-2h1v-3h1v-2h1q0.5-2.5,1-5h1v-3h1v-2h1v-3h1q0.5-2,1-4h1v-2h1v-3h1q1-3,2-6h1q0.5-2,1-4l2-1q0.5-2,1-4l2-1v-2l3-2v-2l3-2v-2l12-11c4.6-4.6,7.913-9.819,14-13v-1l10-1v-1c3.432-.97,9.086.438,11,1h6c5.508,1.648,13.134,2.871,19,4v1C254.861,147.139,255.6,146,255,148ZM201,446v-2h2c1.1-2.874,2.218-5.895,5-7h6v-1h2v-1c2.354-.689,2.651,1.052,4,1v-1h1v1c2.093,0.5,4.739-1.065,5-1v1h2v1a8.744,8.744,0,0,0,4,2v2c1.133,0.541,1.676,1.823,2,2,3.641,1.991,4.576-1.1,6,4h2q0.5,2,1,4h1c0.25,1.242-2.4,6.91-3,8h-1v2h-1v3h-1c-1.139,1.139,0,.4-2,1-0.9,3.418-3.176,4.506-5,7h-1v4h-1c-1.376,1.907-2.253,2.316-3,5h1v1h2v1h11v-1h3v-1h2v-1h3c3.969-1.617,9.968-5.939,17-4v1h3v1h1l1-2h2v-1l5-1c1.561-5.141,2.5-1.839,6-4l1-2,4-1v-1c2.318-1.888,3.7-4.126,7-5v-2h1l5-6h2l4-5h3c0.805-.571,4.645-9.39,5-11l-3-1c-0.439-6.633-6.62-15.889-4-24h1v-3h1v-2h1v-6l2-1,1-4,2-1,1-4,2-1v-2h1l1-3h2v-4l2-1v-1h-1v-3h-1v-6l-2-1-1-5-2-1v-2h-1l-1-5h1v-5h1l1-4h1v-2l4-3v-1h2l1-2h2l2-3h1v-2h1v-1h2c1.112-1.016.709-2.007,1-4l4-1v-1l-4-3v-3l-2-1V308h-1v-2h-1v-9c0.714-2.375,1.775-4.4,2-8,2.446-1.539.62-1.209,2-3h1l1-2h2l3-4,6-2,1-2h3l1-2h2l1-2h2v-1l9-2,1-2,3-2v-1h2c0.783-.614.764-2,2-3-0.574-2.01.12-.865-1-2-1.208-3.9-.209-1.288-3-3v-1h-2v-1h-2v-1h-2l-1-2h-1v1l-26,1-2-3-11-4v-2l-2-1V229c-3.58-2.084-4.346-4.662-10-5-1.73-1.485-8.628-1.543-12-1v1h-1v-1h-8v1c-4.177,1.186-10.27-.319-12-2-1.088-.9-0.248.2-1-1v-1l-2-1v-3h-1q-0.5-4-1-8h-1v-3h-1q0.5-8,1-16h2c1.584-2.731,2.742-2.446,3-7h-1l1-3c-4.392-2.064-5.491-4.793-12-5v-1h-6v-1h-6v-1l-12,1v1h-3v1h-8v1h-1v3l-2,1-7,8h-2l-5,6-10,9v2l-4,3v2h-1v2l-2,1v2l-2,1v2h-1v2h-1v3h-1v3h-1v3h-1v2h-1v3h-1v3h-1v3h-1v3h-1v2l-2,1q-0.5,2-1,4l-2,1q-0.5,2-1,4l-2,1v2h-1v2h-1l-1,3-2,1q-0.5,2-1,4l-2,1v2h-1v2l-3,2-2,6-3,2q-0.5,2-1,4h-1l-1,3-2,1v2h-1v2l-2,1-2,6-2,1q-0.5,2-1,4l-3,2q-0.5,2-1,4l-2,1v2h-1v2h-1v3h-1q-0.5,2-1,4h-1v3h-1v2h-1q-0.5,2.5-1,5h-1v3h-1v2h-1v3h-1v2h-1v3h-1q-0.5,2-1,4h-1v3h-1l-2,6h-1v2h-1l-2,6-2,1q-0.5,2-1,4h-1l-1,3-2,1v6h-1v2h-1v2l-3,2q-0.5,2-1,4l-5,4v2l-4,3v2l-5,4v2l-5,4v2l-4,3v2l-3,2v2l-2,1v2l-2,1-1,4-4,3c-4.377,4.41-8.41,9.876-10,17l2-1,1,2,9,2v-1h3l1-2h2l1-2h2l1-2,3-1v-1c6.849-4.348,19.679-6,31-6h12v1h5v1l6,2v1h2v1h3v1h8c1.375,0.332-.41.89,1,1v-1h1v1l37,1v-1h2l2-3a1.424,1.424,0,0,1,2,1Z" transform="translate(-29.969 -139.656)"/>
</svg>
