<svg xmlns="http://www.w3.org/2000/svg" width="321" height="270.125" viewBox="0 0 321 270.125">
  <defs>
    <style>
      .cls-1 {
        fill: #cc543a;
        fill-rule: evenodd;
      }
    </style>
  </defs>
  <path id="色彩填色_5" data-name="色彩填色 5" class="cls-1" d="M442,21c1.541,6.239,8.066,9.506,9,16l17,5c5.24,1.5,9.838-2.061,13-3h15c1.861,0.684,4.164,3,6,4l-2-3h3l4,5h1c1.946,2.778,4.566,10.818,5,15h5c2.835,6.493,8.455,13.891,9,22h-2l-1,3-2,1c-1.164,1.25-1.677,2.9-3,4q0.5,3.5,1,7h-6c-0.88,4.015-3.357,5.935-5,9l-1,4h-1v2h-1v2h-1v2h-1v3h-1c-2.161,5.435-2.671,9.807-3,17q-0.5,4-1,8l9,15c3.928,9.05,5.013,38.026,1,48l-2-1-1-3h-1v-3h-1c0.528,8.175,1.422,13.5-2,20v2l-3,2v2l-12,11-1,4-2,1c-1.1,1.66-3.365,6.114-2,7h-2v1l-6,1-1,2h-2v1h-2v1h-3v1h-3l-1,2-5,1-1,2h-3v1c-3.942.994-5.407-4.058-10-2l-2,3h-3l-1,2h-2c-5.34,3.5-5.748,5.786-15,6v-1h-3l-2-3-2,1-1-2c-1.848-1.483-3.166-1.285-6-2v-1c-0.062-.011-4.736,1.71-7,1v-1h-3v-1h-3v-1c-4.082-1.47-11.548-1.02-17-1-1.331-4.643-2.394-3.041-6-5v-1h-2v-1h-2l-1-2c-1.413.058,0.4,0.784-1,1l-26,1-2-3-11-4v-2l-2-1V229c-3.58-2.084-4.346-4.662-10-5-1.73-1.485-8.628-1.543-12-1v1h-1v-1h-8v1c-4.177,1.186-10.27-.319-12-2-1.088-.9-0.248.2-1-1v-1l-2-1v-3h-1q-0.5-4-1-8h-1v-3h-1q0.5-8,1-16h2c1.584-2.731,2.742-2.446,3-7h-1l1-3c-4.392-2.064-5.491-4.793-12-5v-1h-6c-2.684-.807-9.706-3.264-14-2-3.188.938-9.625,4.742-15,3v-1h-3q-0.5-1-1-2l-16-5q-0.5-2-1-4h-1v-6h-1q-0.5-2.5-1-5l-2-1q0.5-3,1-6h1c0.678-2.592,1.572-3.263,3-5h1q0.5-1.5,1-3l2-1v-2l2-1q0.5-1.5,1-3h1v-2l2-1q0.5-2,1-4l2-1q0.5-2,1-4l2-1v-2h1v-2h1v-2h1v-2l2-1q0.5-2,1-4l2-1v-2l4-3V95l4-3V90l6-5,10-11h2l2-3h2l1-2h2V68h2V67h2V66h2c3.173-1.688,5.8-4.116,10-5,0.56-3.137.974-4.19,4-5V55l7-1V53h4c11.246-3.8,26.851-5.243,41-6,1.544-2.456,1.15-.615,3-2l3-4h1q0.5-2.5,1-5h1V34h1q0.5-3,1-6h1V26h1q0.5-3.5,1-7l3-2c4.2-4.331,8.144-10.472,14-13,5.41-2.335,13.455.8,20-1,1.648-.454,9.589-2.734,12-2V2h3V3l11,3,2,3h2l1,2h2l1,2,9,3,2,3ZM273,113q-9,17.5-18,35c6.976,0.143,10.7,3.367,16,5,4.874,1.5,12.832-.906,16,2,1.969,1.738.848,2.33,2,4l2,1c3.1,3.3,6,7.687,11,9,0.678,3.733,1.273,8.252,3,11h-1q-2.5,4.5-5,9h-1v4l-2,1c-1.048,1.834-.9,4.176-1,7,3.616,2.084,4.82,3.883,11,4,1.555-1.825,1.979-.864,4-2v-1h2l1-2h2c2.188-1.223,5.212-4.547,10-3v1h3l1,2c2.042,1.742,3.1,1.815,7,2a18.371,18.371,0,0,0,3,7l3,2v2h1v2h1v3h1v3h1l1,3c3.432,0.85,9.842,5.6,15,4v-1h3v-1l4-1,1-2,7-2v1c2.471,0.616,6.725,3.277,8,5v2l2,1v1l4,1v1l6,2v1c2.524,1.118,15.635,4.572,20,3v-1l4-1v-1c4.189-1.5,8.725,1.294,11,2,4.387,1.362,7.024.1,11,0l5-7v1h3v1h2v1h11s0.185,0.684,2,1l1-3h1v-2l2-1v-2l4-3v-2l3-2,3-9-5-3-6-25h-1v-4h-1v-5h-1v-5h-1v-7c-4.127-14.188-6.045-36.033-1-51q0.5-3.5,1-7h1l1-4h1V97h1q0.5-2,1-4h1q0.5-2,1-4h1l1-3,2-1q0.5-2,1-4l2-1V78l2-1,1-3h1l1-3h-1V66c-0.029-.092-0.623.186-1-2-19.982.216-37.946-.351-50-8l-1-2h-2l-2-3h-2l-4-5h-2V45l-3-2-6-7h-7c-2.285,2.089-10.884,1.1-15,1l-1,3-2,1q-0.5,2-1,4l-2,1q-0.5,2-1,4l-2,1v2l-2,1v2l-2,1v2l-3,2v2l-6,5-3,4h-2l-1,2-16,7-15,1v1l-7,1v1h-2v1h-3v1l-9,2v1h-2v1h-4v1l-4,1v1l-6,1v1h-2v1h-3l-8,7v2h-1v2h-1C275.223,111.73,278.238,111.477,273,113Z" transform="translate(-206 -0.875)"/>
</svg>
