<svg id="orderlist" xmlns="http://www.w3.org/2000/svg" width="89" height="89" viewBox="0 0 89 89">
  <path id="Path_18" data-name="Path 18" d="M47.5,92h0A44.631,44.631,0,0,1,3,47.5H3A44.631,44.631,0,0,1,47.5,3h0A44.631,44.631,0,0,1,92,47.5h0A44.631,44.631,0,0,1,47.5,92Z" transform="translate(-3 -3)" fill="#cc543a"/>
  <g id="Group_90" data-name="Group 90" transform="translate(14.741 24.614)">
    <g id="Group_89" data-name="Group 89" transform="translate(7.37 7.787)">
      <line id="Line_53" data-name="Line 53" x2="13.35" transform="translate(30.594 12.098)" fill="none" stroke="#efeeee" stroke-linecap="round" stroke-linejoin="round" stroke-miterlimit="10" stroke-width="1.778"/>
      <line id="Line_54" data-name="Line 54" x2="13.35" transform="translate(30.594)" fill="none" stroke="#efeeee" stroke-linecap="round" stroke-linejoin="round" stroke-miterlimit="10" stroke-width="1.778"/>
      <line id="Line_55" data-name="Line 55" x2="13.35" transform="translate(30.594 5.841)" fill="none" stroke="#efeeee" stroke-linecap="round" stroke-linejoin="round" stroke-miterlimit="10" stroke-width="1.778"/>
      <line id="Line_56" data-name="Line 56" x2="13.35" transform="translate(30.594 24.753)" fill="none" stroke="#efeeee" stroke-linecap="round" stroke-linejoin="round" stroke-miterlimit="10" stroke-width="1.778"/>
      <line id="Line_57" data-name="Line 57" x2="13.35" transform="translate(30.594 17.8)" fill="none" stroke="#efeeee" stroke-linecap="round" stroke-linejoin="round" stroke-miterlimit="10" stroke-width="1.778"/>
      <g id="Group_88" data-name="Group 88" transform="translate(0 0)">
        <path id="Path_19" data-name="Path 19" d="M43.792,30.9V44.528a4.985,4.985,0,0,1-5.006,5.006H23.906A4.985,4.985,0,0,1,18.9,44.528V30.9Z" transform="translate(-18.9 -24.503)" fill="none" stroke="#efeeee" stroke-linecap="round" stroke-linejoin="round" stroke-miterlimit="10" stroke-width="1.778"/>
        <path id="Path_20" data-name="Path 20" d="M23.1,37.7V29.5a3.332,3.332,0,0,1,3.2-3.2h6.953a3.332,3.332,0,0,1,3.2,3.2v8.2" transform="translate(-17.259 -26.3)" fill="none" stroke="#efeeee" stroke-linecap="round" stroke-linejoin="round" stroke-miterlimit="10" stroke-width="1.778"/>
      </g>
    </g>
    <path id="Path_21" data-name="Path 21" d="M67.139,60.333H19.58a6.118,6.118,0,0,1-5.98-5.98V26.68a6.118,6.118,0,0,1,5.98-5.98H66.861a6.118,6.118,0,0,1,5.98,5.98v27.4A5.788,5.788,0,0,1,67.139,60.333Z" transform="translate(-13.6 -20.7)" fill="none" stroke="#efeeee" stroke-linecap="round" stroke-linejoin="round" stroke-miterlimit="10" stroke-width="1.778"/>
  </g>
</svg>
