<?xml version="1.0" encoding="utf-8"?>
<!-- Generator: Adobe Illustrator 21.1.0, SVG Export Plug-In . SVG Version: 6.00 Build 0)  -->
<svg version="1.1" id="圖層_1" xmlns="http://www.w3.org/2000/svg" xmlns:xlink="http://www.w3.org/1999/xlink" x="0px" y="0px"
	 viewBox="0 0 156 156" style="enable-background:new 0 0 156 156;" xml:space="preserve">
<style type="text/css">
	.st0{fill:#F7F8F7;}
	.st1{fill:#45566E;}
	.st2{fill:#43546C;}
</style>
<g>
	<circle class="st0" cx="78" cy="78" r="77"/>
	<g>
		<g>
			<path class="st1" d="M78,154c-41.8,0-76-34.2-76-76S36.2,2,78,2s76,34.2,76,76S119.8,154,78,154z M78,9.3C40,9.3,9.3,40,9.3,78
				S40,146.7,78,146.7S146.7,116,146.7,78S116,9.3,78,9.3z"/>
		</g>
	</g>
	<path class="st2" d="M102.5,58.7C101.8,45.9,96,40,91.1,37.3c-3.8-2.1-7.9-3.1-12.8-3.5l0,0l0,0l0,0c-2.8,0-7.9,0.3-12.8,3.1
		c-4.8,2.8-11,9-11.7,21.8c0,1.7-1.7,19.3,7.6,29.7c4.1,4.8,9.7,7.3,16.6,7.3h0.3l0,0c0,0,0,0,0.3,0c6.9,0,12.4-2.4,16.6-7.3
		C104.2,78,102.9,60.4,102.5,58.7z M90.8,84.2c-3.1,3.5-7.3,5.2-12.8,5.2l0,0l0,0c-5.5,0-9.7-1.7-12.8-5.2c-7.9-9-6.2-25.9-6.2-25.9
		s0,0,0-0.3c0.7-17.6,13.5-19.7,19-19.7l0,0c0,0,0,0,0.3,0c6.6,0,18,2.8,19,19.7c0,0,0,0,0,0.3C97,58.7,98.7,75.6,90.8,84.2z"/>
	<path class="st2" d="M78,15.8c-34.2,0-62.2,28-62.2,62.2s28,62.2,62.2,62.2s62.2-28,62.2-62.2S112.2,15.8,78,15.8z M78,20
		c31.8,0,58,25.9,58,58c0,10-2.4,19.3-6.9,27.3c-2.8-2.4-6.6-4.5-12.1-4.8c-4.1-0.3-8.3-1.7-11.7-3.5c-3.5-2.1-7.6-1.7-11,0.7
		c-5.9,3.8-11.4,5.5-15.5,5.5c-3.8,0-9.7-1.7-15.5-5.5c-3.5-2.1-7.6-2.4-11-0.7c-3.5,2.1-7.6,3.1-11.7,3.5
		c-6.2,0.7-10.4,3.1-13.1,5.9c-4.5-8.3-7.3-18-7.3-28C20,46.2,46.2,20,78,20z"/>
</g>
</svg>
