<?xml version="1.0" encoding="utf-8"?>
<!-- Generator: Adobe Illustrator 22.0.1, SVG Export Plug-In . SVG Version: 6.00 Build 0)  -->
<svg version="1.1" id="圖層_1" xmlns="http://www.w3.org/2000/svg" xmlns:xlink="http://www.w3.org/1999/xlink" x="0px" y="0px"
	 viewBox="0 0 36 36" style="enable-background:new 0 0 36 36;" xml:space="preserve">
<style type="text/css">
	.st0{fill:#45566E;}
	.st1{fill:none;stroke:#EFEEEE;stroke-linecap:round;stroke-linejoin:round;stroke-miterlimit:10;}
</style>
<g>
	<g>
		<path class="st0" d="M18,36L18,36C8.1,36,0,27.9,0,18l0,0C0,8.1,8.1,0,18,0l0,0c9.9,0,18,8.1,18,18l0,0C36,27.9,27.9,36,18,36z"/>
		<g>
			<g>
				<line class="st1" x1="21.3" y1="18" x2="26.7" y2="18"/>
				<line class="st1" x1="21.3" y1="13.1" x2="26.7" y2="13.1"/>
				<line class="st1" x1="21.3" y1="15.5" x2="26.7" y2="15.5"/>
				<line class="st1" x1="21.3" y1="23.1" x2="26.7" y2="23.1"/>
				<line class="st1" x1="21.3" y1="20.3" x2="26.7" y2="20.3"/>
			</g>
			<path class="st1" d="M27.6,26H8.4C7.1,26,6,24.9,6,23.6V12.4C6,11.1,7.1,10,8.4,10h19.1c1.3,0,2.4,1.1,2.4,2.4v11.1
				C30,24.9,28.9,26,27.6,26z"/>
		</g>
	</g>
	<g>
		<path class="st1" d="M16.8,14.8c-0.9-1-2.4-1-3.3,0c-0.9-1-2.4-1-3.3,0s-0.9,2.6,0,3.6l3.3,3.6l3.3-3.6
			C17.8,17.4,17.8,15.8,16.8,14.8z"/>
	</g>
</g>
</svg>
